<svg width="200" height="200" viewBox="0 0 200 200" fill="none" xmlns="http://www.w3.org/2000/svg">
<rect width="200" height="200" fill="none"/>
<g id="Homepage / Donators hero">
<g id="Homepage">

<g id="Frame 19">
<g id="Frame 18">
<g id="Frame 1686557075">


<g id="Checklist-rafiki 1">
<g id="freepik--background-complete--inject-2">
<path id="Vector" d="M200 152.96H0V153.06H200V152.96Z" fill="var(--illo-light, #ebe3d8)"/>
<path id="Vector_2" d="M179.96 156.768H143.6V156.868H179.96V156.768Z" fill="var(--illo-light, #ebe3d8)"/>
<path id="Vector_3" d="M132.488 155.684H122.532V155.784H132.488V155.684Z" fill="var(--illo-light, #ebe3d8)"/>
<path id="Vector_4" d="M155.244 160.484H139.808V160.584H155.244V160.484Z" fill="var(--illo-light, #ebe3d8)"/>
<path id="Vector_5" d="M30.0399 159.812H20.9839V159.912H30.0399V159.812Z" fill="var(--illo-light, #ebe3d8)"/>
<path id="Vector_6" d="M44.3561 159.812H33.6001V159.912H44.3561V159.812Z" fill="var(--illo-light, #ebe3d8)"/>
<path id="Vector_7" d="M90.06 158.124H71.324V158.224H90.06V158.124Z" fill="var(--illo-light, #ebe3d8)"/>
<path id="Vector_8" d="M94.7999 135.12H17.5639C16.9589 135.119 16.379 134.878 15.9515 134.45C15.524 134.021 15.2839 133.441 15.2839 132.836V24.264C15.2892 23.6624 15.5316 23.0872 15.9585 22.6633C16.3854 22.2394 16.9623 22.001 17.5639 22H94.7999C95.4057 22 95.9866 22.2406 96.415 22.669C96.8433 23.0973 97.0839 23.6782 97.0839 24.284V132.836C97.0839 133.442 96.8433 134.023 96.415 134.451C95.9866 134.879 95.4057 135.12 94.7999 135.12ZM17.5639 22.08C16.9854 22.0811 16.4309 22.3116 16.0222 22.7211C15.6135 23.1306 15.3839 23.6855 15.3839 24.264V132.836C15.3839 133.415 15.6135 133.969 16.0222 134.379C16.4309 134.788 16.9854 135.019 17.5639 135.02H94.7999C95.3788 135.019 95.9337 134.789 96.3431 134.379C96.7524 133.97 96.9829 133.415 96.9839 132.836V24.264C96.9829 23.6851 96.7524 23.1302 96.3431 22.7208C95.9337 22.3115 95.3788 22.0811 94.7999 22.08H17.5639Z" fill="var(--illo-light, #ebe3d8)"/>
<path id="Vector_9" d="M181.324 135.12H104.084C103.479 135.119 102.898 134.878 102.47 134.45C102.042 134.022 101.801 133.441 101.8 132.836V24.264C101.806 23.662 102.05 23.0868 102.477 22.663C102.905 22.2392 103.482 22.001 104.084 22H181.324C181.925 22.0021 182.501 22.2409 182.927 22.6647C183.353 23.0885 183.595 23.6631 183.6 24.264V132.836C183.6 133.44 183.361 134.02 182.934 134.448C182.507 134.876 181.928 135.118 181.324 135.12ZM104.084 22.08C103.505 22.0811 102.95 22.3115 102.541 22.7208C102.132 23.1302 101.901 23.6851 101.9 24.264V132.836C101.901 133.415 102.132 133.97 102.541 134.379C102.95 134.789 103.505 135.019 104.084 135.02H181.324C181.903 135.019 182.458 134.789 182.867 134.379C183.277 133.97 183.507 133.415 183.508 132.836V24.264C183.507 23.6851 183.277 23.1302 182.867 22.7208C182.458 22.3115 181.903 22.0811 181.324 22.08H104.084Z" fill="var(--illo-light, #ebe3d8)"/>
<path id="Vector_10" d="M20.98 152.956H68.804L68.804 47.1921H20.98L20.98 152.956Z" fill="var(--illo-light, #ebe3d8)"/>
<path id="Vector_11" d="M20.984 152.956H66.54L66.54 47.1921H20.984L20.984 152.956Z" fill="none"/>
<path id="Vector_12" d="M64.1399 150.56V49.5959H23.3839L23.3839 150.56H64.1399Z" fill="var(--illo-light, #ebe3d8)"/>
<path id="Vector_13" d="M36.552 97.2H28.244C27.9611 97.1989 27.6901 97.086 27.49 96.886C27.2899 96.6859 27.1771 96.4149 27.176 96.132C27.1771 95.849 27.2899 95.578 27.49 95.3779C27.6901 95.1779 27.9611 95.065 28.244 95.064H36.552C36.835 95.065 37.106 95.1779 37.3061 95.3779C37.5061 95.578 37.619 95.849 37.62 96.132C37.619 96.4149 37.5061 96.6859 37.3061 96.886C37.106 97.086 36.835 97.1989 36.552 97.2Z" fill="var(--illo-paper, #f2ebe1)"/>
<path id="Vector_14" d="M24.0081 150.56L24.0081 49.5959H23.3841L23.3841 150.56H24.0081Z" fill="var(--illo-light, #ebe3d8)"/>
<path id="Vector_15" d="M91.212 150.952H98.332V120.072H91.212V150.952Z" fill="var(--illo-light, #ebe3d8)"/>
<path id="Vector_16" d="M61.8521 152.912H96.9641V150.956H61.8521V152.912Z" fill="var(--illo-light, #ebe3d8)"/>
<path id="Vector_17" d="M91.2119 120.076H60.4839V150.956H91.2119V120.076Z" fill="none"/>
<path id="Vector_18" d="M88.408 123.876H63.28V134.004H88.408V123.876Z" fill="var(--illo-light, #ebe3d8)"/>
<path id="Vector_19" d="M88.408 137.024H63.28V147.152H88.408V137.024Z" fill="var(--illo-light, #ebe3d8)"/>
<path id="Vector_20" d="M73.024 124.728H78.668C78.8512 124.727 79.0266 124.654 79.1562 124.524C79.2857 124.395 79.359 124.219 79.36 124.036C79.36 123.852 79.2873 123.676 79.1576 123.545C79.0279 123.415 78.8519 123.341 78.668 123.34H73.024C72.8401 123.341 72.6641 123.415 72.5345 123.545C72.4048 123.676 72.332 123.852 72.332 124.036C72.3331 124.219 72.4063 124.395 72.5359 124.524C72.6654 124.654 72.8408 124.727 73.024 124.728Z" fill="none"/>
<path id="Vector_21" d="M73.024 137.88H78.668C78.8492 137.879 79.0228 137.807 79.152 137.681C79.2813 137.554 79.3559 137.381 79.36 137.2C79.359 137.017 79.2857 136.841 79.1562 136.712C79.0266 136.582 78.8512 136.509 78.668 136.508H73.024C72.8408 136.509 72.6654 136.582 72.5359 136.712C72.4063 136.841 72.3331 137.017 72.332 137.2C72.3362 137.381 72.4108 137.554 72.54 137.681C72.6692 137.807 72.8429 137.879 73.024 137.88Z" fill="none"/>
<path id="Vector_22" d="M78.1879 119.468C78.0482 119.467 77.9145 119.411 77.8157 119.312C77.7169 119.213 77.661 119.08 77.6599 118.94V102.896C77.6599 102.756 77.7155 102.622 77.8146 102.523C77.9136 102.424 78.0479 102.368 78.1879 102.368C78.3276 102.369 78.4613 102.425 78.5601 102.524C78.6589 102.623 78.7149 102.756 78.7159 102.896V118.94C78.7149 119.08 78.6589 119.213 78.5601 119.312C78.4613 119.411 78.3276 119.467 78.1879 119.468Z" fill="none"/>
<path id="Vector_23" d="M83.1281 118.844H73.248V120.088H83.1281V118.844Z" fill="var(--illo-light, #ebe3d8)"/>
<path id="Vector_24" d="M80.9239 109.868C80.8546 109.868 80.788 109.841 80.7386 109.792C80.6892 109.743 80.661 109.677 80.6599 109.608V101.6C80.6609 101.53 80.6891 101.464 80.7384 101.414C80.7877 101.365 80.8542 101.337 80.9239 101.336C80.9936 101.337 81.0602 101.365 81.1094 101.414C81.1587 101.464 81.1869 101.53 81.1879 101.6V109.6C81.1884 109.635 81.182 109.67 81.169 109.702C81.1559 109.735 81.1366 109.764 81.112 109.789C81.0875 109.814 81.0582 109.834 81.0259 109.847C80.9936 109.861 80.9589 109.868 80.9239 109.868Z" fill="var(--illo-light, #ebe3d8)"/>
<path id="Vector_25" d="M70.5039 104.36C70.5039 104.36 70.6999 96.8 78.1879 96.8C85.6759 96.8 85.8679 104.352 85.8679 104.352L70.5039 104.36Z" fill="var(--illo-light, #ebe3d8)"/>
<path id="Vector_26" d="M135.324 115.04C135.536 115.04 135.752 115.04 135.968 115.06C138.18 115.22 140.261 116.174 141.826 117.746C143.39 119.318 144.334 121.403 144.484 123.616C144.547 124.621 144.447 125.631 144.188 126.604C143.185 130.509 142.701 134.529 142.748 138.56V150.296C142.749 150.499 142.709 150.701 142.631 150.888C142.554 151.076 142.439 151.247 142.296 151.39C142.152 151.534 141.981 151.648 141.793 151.725C141.605 151.802 141.403 151.841 141.2 151.84H103.948V115.04H135.324Z" fill="var(--illo-light, #ebe3d8)"/>
<path id="Vector_27" d="M94.7681 124.22C94.772 122.915 95.0542 121.626 95.5958 120.439C96.1375 119.252 96.9261 118.194 97.909 117.336C98.8919 116.477 100.047 115.839 101.296 115.462C102.545 115.086 103.861 114.98 105.154 115.152C106.448 115.324 107.69 115.77 108.797 116.46C109.904 117.15 110.852 118.069 111.576 119.154C112.301 120.239 112.785 121.467 112.998 122.754C113.21 124.042 113.145 125.36 112.808 126.62C111.809 130.525 111.326 134.545 111.372 138.576V150.312C111.372 150.515 111.332 150.715 111.254 150.902C111.177 151.089 111.063 151.259 110.92 151.402C110.776 151.545 110.606 151.659 110.419 151.736C110.231 151.813 110.031 151.853 109.828 151.852H98.0641C97.8618 151.852 97.6616 151.812 97.4747 151.735C97.2879 151.657 97.1181 151.544 96.9751 151.401C96.8321 151.258 96.7187 151.088 96.6413 150.901C96.5639 150.715 96.5241 150.514 96.5241 150.312V137.872C96.558 134.092 96.079 130.324 95.1001 126.672C94.8795 125.873 94.7678 125.049 94.7681 124.22Z" fill="none"/>
<path id="Vector_28" d="M116.596 151.84H150.04V129.496H116.596V151.84Z" fill="var(--illo-light, #ebe3d8)"/>
<path id="Vector_29" d="M177.68 134.552H132.916V100.284C132.916 98.4423 133.648 96.6761 134.95 95.3739C136.252 94.0716 138.018 93.34 139.86 93.34H170.736C172.578 93.34 174.344 94.0716 175.646 95.3739C176.948 96.6761 177.68 98.4423 177.68 100.284V134.552Z" fill="var(--illo-mid, #ddd3c6)"/>
<path id="Vector_30" d="M168.932 134.552H124.168V99.948C124.168 98.1944 124.865 96.5126 126.105 95.2726C127.345 94.0326 129.027 93.336 130.78 93.336H162.304C164.058 93.336 165.74 94.0326 166.98 95.2726C168.22 96.5126 168.916 98.1944 168.916 99.948V134.552H168.932Z" fill="none"/>
<path id="Vector_31" d="M147.856 136.556L117.028 136.556C116.498 136.556 115.989 136.345 115.614 135.97C115.239 135.595 115.028 135.086 115.028 134.556V129.488C115.028 128.957 115.239 128.449 115.614 128.074C115.989 127.699 116.498 127.488 117.028 127.488H147.856C148.016 127.488 148.17 127.552 148.283 127.665C148.396 127.778 148.46 127.932 148.46 128.092V135.956C148.459 136.115 148.395 136.268 148.282 136.38C148.168 136.493 148.015 136.556 147.856 136.556Z" fill="var(--illo-mid, #ddd3c6)"/>
<path id="Vector_32" d="M180.98 115.04C181.192 115.04 181.404 115.04 181.624 115.06C183.836 115.221 185.915 116.175 187.479 117.747C189.043 119.319 189.987 121.403 190.136 123.616C190.203 124.622 190.103 125.631 189.84 126.604C188.837 130.51 188.353 134.531 188.4 138.564V150.3C188.4 150.503 188.36 150.703 188.282 150.89C188.205 151.077 188.091 151.247 187.948 151.39C187.804 151.533 187.634 151.647 187.447 151.724C187.259 151.801 187.059 151.841 186.856 151.84H149.6V115.04H180.98Z" fill="var(--illo-light, #ebe3d8)"/>
<path id="Vector_33" d="M140.424 124.22C140.408 121.828 141.327 119.524 142.985 117.799C144.643 116.074 146.909 115.065 149.3 114.987C151.691 114.909 154.018 115.767 155.785 117.38C157.552 118.993 158.62 121.232 158.76 123.62C158.823 124.625 158.723 125.634 158.464 126.608C157.461 130.513 156.977 134.533 157.024 138.564V150.3C157.024 150.708 156.862 151.1 156.573 151.389C156.284 151.678 155.892 151.84 155.484 151.84H143.716C143.514 151.84 143.314 151.8 143.127 151.723C142.94 151.645 142.77 151.532 142.627 151.389C142.484 151.246 142.371 151.076 142.293 150.889C142.216 150.702 142.176 150.502 142.176 150.3V137.872C142.209 134.092 141.732 130.324 140.756 126.672C140.535 125.873 140.424 125.049 140.424 124.22Z" fill="none"/>
<path id="Vector_34" d="M104.6 152.96H180.324C180.471 152.96 180.616 152.931 180.752 152.875C180.888 152.818 181.011 152.736 181.114 152.632C181.218 152.528 181.3 152.404 181.356 152.268C181.412 152.133 181.44 151.987 181.44 151.84H103.484C103.483 151.987 103.512 152.133 103.568 152.268C103.624 152.404 103.706 152.528 103.809 152.632C103.913 152.736 104.036 152.818 104.172 152.875C104.308 152.931 104.453 152.96 104.6 152.96Z" fill="var(--illo-mid, #ddd3c6)"/>
<path id="Vector_35" d="M149.448 67.1479H173.804V40.584H149.448V67.1479Z" fill="var(--illo-mid, #ddd3c6)"/>
<path id="Vector_36" d="M147.996 67.1479H172.984V40.584H147.996V67.1479Z" fill="none"/>
<path id="Vector_37" d="M170.888 65.056V42.676H150.084V65.056H170.888Z" fill="var(--illo-paper, #f2ebe1)"/>
<path id="Vector_38" d="M160.488 48.208L166.176 58.064H154.8L160.488 48.208Z" fill="none"/>
<path id="Vector_39" d="M115.28 82.656H139.636V56.092H115.28V82.656Z" fill="var(--illo-mid, #ddd3c6)"/>
<path id="Vector_40" d="M113.828 82.656H138.816V56.092H113.828V82.656Z" fill="none"/>
<path id="Vector_41" d="M136.72 80.564V58.184H115.916V80.564H136.72Z" fill="var(--illo-paper, #f2ebe1)"/>
<path id="Vector_42" d="M123.776 73.364L121.308 69.088C121.051 68.6417 120.916 68.1357 120.917 67.6208C120.918 67.1059 121.054 66.6002 121.311 66.1544C121.569 65.7086 121.939 65.3385 122.385 65.0811C122.831 64.8237 123.337 64.6882 123.852 64.688H128.8C129.315 64.6887 129.82 64.8245 130.266 65.0819C130.712 65.3393 131.082 65.7092 131.34 66.1547C131.598 66.6001 131.735 67.1055 131.736 67.6203C131.738 68.1351 131.604 68.6412 131.348 69.088L128.88 73.364C128.623 73.8137 128.251 74.1874 127.803 74.4474C127.355 74.7073 126.846 74.8442 126.328 74.8442C125.81 74.8442 125.301 74.7073 124.853 74.4474C124.405 74.1874 124.033 73.8137 123.776 73.364Z" fill="none"/>
</g>
<g id="freepik--Shadow--inject-2">

</g>
<g id="freepik--Checklist--inject-2">
<path id="Vector_43" d="M126.6 39.72H34.3921L40.4601 165.296H132.668L126.6 39.72Z" fill="#e8623a"/>
<path id="Vector_44" opacity="0.2" d="M126.6 39.72H34.3921L40.4601 165.296H132.668L126.6 39.72Z" fill="black"/>
<path id="Vector_45" d="M127.452 39.72H35.2441L41.3161 165.296H133.524L127.452 39.72Z" fill="#e8623a"/>
<path id="Vector_46" opacity="0.2" d="M122.584 43.944H39.4602L45.2682 159.62L117.548 159.524L129.56 148.876L122.584 43.944Z" fill="black"/>
<path id="Vector_47" d="M123.22 43.9399C124.107 78.5825 126.904 113.15 131.6 147.484C125.014 152.017 118.46 156.551 111.94 161.084H49.7722C43.9044 122.288 40.4604 83.1643 39.4602 43.9399H123.22Z" fill="var(--illo-paper, #f2ebe1)"/>
<path id="Vector_48" d="M131.6 147.484C125.014 152.017 118.46 156.551 111.94 161.084C113.364 155.084 114.848 149.084 116.392 143.084L131.6 147.484Z" fill="var(--illo-light, #ebe3d8)"/>
<path id="Vector_49" d="M62.0001 54.524C62.1574 58.7586 62.3414 62.996 62.5521 67.236H49.8441C49.6307 62.996 49.4467 58.7586 49.2921 54.524H62.0001ZM63.2961 53.184H47.9041C48.0827 58.312 48.3054 63.4426 48.5721 68.576H63.9681C63.7014 63.4453 63.4787 58.3146 63.3001 53.184H63.2961Z" fill="#e8623a"/>
<path id="Vector_50" d="M113.928 59.296H70.4001C70.3601 58.34 70.3241 57.38 70.2881 56.424H113.812C113.848 57.38 113.888 58.34 113.928 59.296Z" fill="var(--illo-mid, #ddd3c6)"/>
<path id="Vector_51" d="M104.732 65.336H70.6681C70.6241 64.376 70.5761 63.42 70.5361 62.464H104.596C104.641 63.4213 104.687 64.3787 104.732 65.336Z" fill="var(--illo-mid, #ddd3c6)"/>
<path id="Vector_52" d="M63.2481 79.42C63.5147 83.66 63.8121 87.9 64.1401 92.14H51.4281C51.1001 87.9 50.8027 83.66 50.5361 79.42H63.2481ZM64.5041 78.08H49.1121C49.4267 83.2133 49.7854 88.3466 50.1881 93.48H65.6001C65.2001 88.3493 64.8401 83.216 64.5201 78.08H64.5041Z" fill="#e8623a"/>
<path id="Vector_53" d="M87.7601 84.1959H71.7601C71.6961 83.2359 71.6281 82.2799 71.5681 81.3199H87.5681C87.6281 82.2799 87.6921 83.2359 87.7601 84.1959Z" fill="var(--illo-mid, #ddd3c6)"/>
<path id="Vector_54" d="M102.908 84.1959H91.1441C91.0801 83.2359 91.0121 82.2799 90.9521 81.3199H102.716C102.776 82.2799 102.84 83.2359 102.908 84.1959Z" fill="var(--illo-mid, #ddd3c6)"/>
<path id="Vector_55" d="M110.292 90.24H72.2C72.128 89.28 72.06 88.324 71.988 87.364H110.08C110.152 88.324 110.22 89.28 110.292 90.24Z" fill="var(--illo-mid, #ddd3c6)"/>
<path id="Vector_56" d="M65.1561 104.328C65.5375 108.568 65.9481 112.808 66.3881 117.048H53.6761C53.2361 112.808 52.8255 108.568 52.4441 104.328H65.1561ZM66.3801 102.988H50.9841C51.4375 108.124 51.9335 113.259 52.4721 118.392H67.8681C67.3348 113.256 66.8388 108.121 66.3801 102.988Z" fill="#e8623a"/>
<path id="Vector_57" d="M117.64 112.276H74.1082L74.3962 115.148H117.928L117.64 112.276Z" fill="var(--illo-mid, #ddd3c6)"/>
<path id="Vector_58" d="M107.6 106.232H73.5361C73.6241 107.188 73.7121 108.148 73.8041 109.104H107.864C107.776 108.148 107.684 107.2 107.6 106.232Z" fill="var(--illo-mid, #ddd3c6)"/>
<path id="Vector_59" d="M67.728 129.236C68.224 133.476 68.748 137.715 69.3 141.952H56.588C56.036 137.717 55.512 133.479 55.016 129.236H67.728ZM68.928 127.896H53.52C54.1067 133.032 54.74 138.164 55.42 143.292H70.8C70.1254 138.164 69.492 133.032 68.9 127.896H68.928Z" fill="#e8623a"/>
<path id="Vector_60" d="M120.036 134H76.5042C76.3882 133.04 76.2722 132.084 76.1602 131.124H119.688C119.804 132.096 119.916 133.052 120.036 134Z" fill="var(--illo-mid, #ddd3c6)"/>
<path id="Vector_61" d="M97.076 140.052H77.26C77.136 139.096 77.016 138.136 76.896 137.18H96.712C96.832 138.136 96.952 139.096 97.076 140.052Z" fill="var(--illo-mid, #ddd3c6)"/>
<path id="Vector_62" d="M108.908 140.052H100.352C100.228 139.096 100.108 138.136 99.988 137.18H108.544C108.664 138.136 108.8 139.096 108.908 140.052Z" fill="var(--illo-mid, #ddd3c6)"/>
<path id="Vector_63" d="M56.4001 65.42L55.8361 64.524C54.6041 62.564 52.0921 60.816 51.2241 60.304L51.8721 59.156C53.575 60.1901 55.0966 61.4968 56.3761 63.024C58.3121 60.388 61.1761 57.664 65.0961 54.736L65.9241 55.816C61.7401 58.948 58.8121 61.816 56.9641 64.576L56.4001 65.42Z" fill="#e8623a"/>
<path id="Vector_64" d="M57.9201 90.324L57.3321 89.428C56.0521 87.468 53.4921 85.716 52.6121 85.204L53.2241 84.056C54.9595 85.0904 56.5168 86.3979 57.8361 87.928C59.7001 85.288 62.4881 82.564 66.3321 79.632C66.6161 79.992 66.9041 80.352 67.1881 80.716C63.0881 83.852 60.2361 86.716 58.4641 89.48C58.2801 89.76 58.1001 90.044 57.9201 90.324Z" fill="#e8623a"/>
<path id="Vector_65" d="M60.1282 115.296L59.5162 114.4C58.1802 112.44 55.5722 110.688 54.6802 110.18C54.8722 109.78 55.0802 109.412 55.2642 109.032C57.0266 110.068 58.6165 111.373 59.9762 112.9C61.7722 110.26 64.4882 107.54 68.2482 104.604L69.1362 105.688C65.1362 108.824 62.3362 111.688 60.6442 114.452L60.1282 115.296Z" fill="#e8623a"/>
<path id="Vector_66" d="M100.452 154.184C98.092 154.184 96.732 153.312 95.532 152.544C94.332 151.776 93.3 151.112 91.308 151.112C89.316 151.112 88.428 151.808 87.488 152.544C86.548 153.28 85.396 154.184 83.036 154.184C80.676 154.184 79.316 153.312 78.12 152.544C76.924 151.776 75.892 151.112 73.896 151.112C71.9 151.112 71.016 151.808 70.076 152.544C69.136 153.28 67.984 154.184 65.628 154.184C63.272 154.184 61.908 153.312 60.708 152.544C59.508 151.776 58.48 151.112 56.484 151.112C56.432 150.712 56.376 150.344 56.324 149.96C58.684 149.96 60.04 150.832 61.24 151.6C62.44 152.368 63.468 153.032 65.46 153.032C67.452 153.032 68.34 152.336 69.28 151.6C70.22 150.864 71.376 149.96 73.736 149.96C76.096 149.96 77.448 150.832 78.648 151.6C79.848 152.368 80.88 153.032 82.872 153.032C84.864 153.032 85.752 152.336 86.692 151.6C87.632 150.864 88.788 149.96 91.148 149.96C93.508 149.96 94.864 150.832 96.064 151.6C97.264 152.368 98.292 153.032 100.288 153.032C100.34 153.416 100.4 153.8 100.452 154.184Z" fill="var(--illo-light, #ebe3d8)"/>
<path id="Vector_67" d="M103.836 42.8279C102.484 39.2279 99.3602 36.8639 96.0002 36.8639H89.1522C88.6424 36.8595 88.1451 36.7055 87.7221 36.4211C87.299 36.1367 86.9687 35.7343 86.7722 35.2639C86.2881 34.1143 85.4785 33.1311 84.4431 32.4354C83.4077 31.7396 82.1915 31.3617 80.9442 31.3479C79.7375 31.3357 78.5584 31.7089 77.5785 32.4133C76.5986 33.1176 75.8691 34.1163 75.4962 35.2639C75.3442 35.7335 75.046 36.1422 74.6451 36.43C74.2442 36.7179 73.7617 36.87 73.2682 36.8639H66.4242C63.0602 36.8639 60.1642 39.2399 59.1642 42.8279L58.7642 44.2559H104.364L103.836 42.8279Z" fill="var(--illo-ink, #12262b)"/>
<path id="Vector_68" d="M104.08 45.664H59.2001C58.8216 45.6596 58.4588 45.5118 58.1849 45.2505C57.911 44.9893 57.7464 44.6339 57.7241 44.256C57.7143 44.0744 57.7417 43.8928 57.8048 43.7222C57.8678 43.5517 57.9651 43.3958 58.0906 43.2643C58.2161 43.1328 58.3673 43.0283 58.5347 42.9574C58.7021 42.8865 58.8823 42.8506 59.0641 42.852H103.944C104.322 42.8563 104.684 43.0035 104.958 43.2639C105.232 43.5244 105.397 43.8788 105.42 44.256C105.431 44.4379 105.403 44.6199 105.341 44.791C105.278 44.962 105.181 45.1183 105.055 45.2503C104.93 45.3823 104.778 45.4871 104.611 45.5582C104.443 45.6294 104.262 45.6654 104.08 45.664Z" fill="#e8623a"/>
<path id="Vector_69" opacity="0.2" d="M104.08 45.664H59.2001C58.8216 45.6596 58.4588 45.5118 58.1849 45.2505C57.911 44.9893 57.7464 44.6339 57.7241 44.256C57.7143 44.0744 57.7417 43.8928 57.8048 43.7222C57.8678 43.5517 57.9651 43.3958 58.0906 43.2643C58.2161 43.1328 58.3673 43.0283 58.5347 42.9574C58.7021 42.8865 58.8823 42.8506 59.0641 42.852H103.944C104.322 42.8563 104.684 43.0035 104.958 43.2639C105.232 43.5244 105.397 43.8788 105.42 44.256C105.431 44.4379 105.403 44.6199 105.341 44.791C105.278 44.962 105.181 45.1183 105.055 45.2503C104.93 45.3823 104.778 45.4871 104.611 45.5582C104.443 45.6294 104.262 45.6654 104.08 45.664Z" fill="black"/>
</g>
<g id="freepik--Character--inject-2">
<path id="Vector_70" d="M144.368 164.092H141.436L141.144 157.304H144.076L144.368 164.092Z" fill="#FFC3BD"/>
<path id="Vector_71" d="M161.964 164.092H159.032L157.56 157.304H160.488L161.964 164.092Z" fill="#FFC3BD"/>
<path id="Vector_72" d="M158.824 163.752H162.116C162.174 163.752 162.231 163.771 162.276 163.808C162.321 163.844 162.352 163.895 162.364 163.952L162.944 166.56C162.957 166.623 162.956 166.689 162.941 166.751C162.925 166.814 162.896 166.873 162.855 166.923C162.814 166.972 162.762 167.012 162.703 167.04C162.645 167.067 162.581 167.081 162.516 167.08C161.368 167.06 160.808 166.992 159.36 166.992C158.468 166.992 156.632 167.084 155.404 167.084C154.176 167.084 154.012 165.884 154.516 165.76C156.776 165.264 157.624 164.584 158.348 163.932C158.48 163.816 158.649 163.752 158.824 163.752Z" fill="var(--illo-ink, #12262b)"/>
<path id="Vector_73" d="M141.456 163.752H144.656C144.714 163.752 144.771 163.771 144.816 163.808C144.861 163.844 144.892 163.895 144.904 163.952L145.484 166.56C145.498 166.621 145.499 166.685 145.486 166.746C145.472 166.807 145.446 166.865 145.407 166.915C145.369 166.964 145.32 167.005 145.264 167.034C145.208 167.062 145.147 167.078 145.084 167.08C143.928 167.06 142.26 166.992 140.808 166.992C139.112 166.992 137.648 167.084 135.656 167.084C134.456 167.084 134.12 165.884 134.624 165.76C136.916 165.256 138.788 165.204 140.768 163.98C140.973 163.844 141.211 163.765 141.456 163.752Z" fill="var(--illo-ink, #12262b)"/>
<path id="Vector_74" d="M147.2 57.168C146.8 59.312 146.568 61.968 148.068 63.4C148.068 63.4 147.208 65.576 143.224 65.576C139.584 65.576 141.408 63.4 141.408 63.4C143.808 62.828 143.672 59.872 143.256 58.2L147.2 57.168Z" fill="#FFC3BD"/>
<path id="Vector_75" d="M140.264 63.7C140.344 63.168 141.28 62.548 142.344 62.316C143.408 62.084 147.496 61.568 148.744 62.084C149.992 62.6 148.528 64.128 148.528 64.128L140.264 63.7Z" fill="#e8623a"/>
<path id="Vector_76" opacity="0.4" d="M140.264 63.7C140.344 63.168 141.28 62.548 142.344 62.316C143.408 62.084 147.496 61.568 148.744 62.084C149.992 62.6 148.528 64.128 148.528 64.128L140.264 63.7Z" fill="var(--illo-paper, #f2ebe1)"/>
<path id="Vector_77" opacity="0.2" d="M141.144 157.308L141.296 160.804H144.228L144.076 157.308H141.144Z" fill="black"/>
<path id="Vector_78" opacity="0.2" d="M160.492 157.308H157.56L158.32 160.804H161.252L160.492 157.308Z" fill="black"/>
<path id="Vector_79" d="M154.14 66.04L150.608 68.4C150.608 68.4 155.68 77.42 155.256 78.864C154.676 80.832 153.868 85.132 152.768 87.316C152.912 87.788 153.644 88.864 154.052 89.048C156.852 86.92 159.68 80.248 159.576 78.38C159.332 74.144 154.14 66.04 154.14 66.04Z" fill="#FFC3BD"/>
<path id="Vector_80" d="M152.768 87.324L149.968 87.108L151.436 90.192C151.436 90.192 153.88 90.3 154.288 88.432L152.768 87.324Z" fill="#B55B52"/>
<path id="Vector_81" d="M166.608 102.364L166.372 102.808L164.788 105.804L108.556 76.0721L110.372 72.6321L166.608 102.364Z" fill="#e8623a"/>
<path id="Vector_82" d="M170.244 95.496L169.084 97.688L168.428 98.928L112.192 69.196L114.008 65.756L170.244 95.496Z" fill="#e8623a"/>
<path id="Vector_83" d="M112.211 69.186L110.391 72.6217L166.604 102.397L168.424 98.9617L112.211 69.186Z" fill="#e8623a"/>
<path id="Vector_84" opacity="0.2" d="M112.211 69.186L110.391 72.6217L166.604 102.397L168.424 98.9617L112.211 69.186Z" fill="black"/>
<path id="Vector_85" d="M106.132 66.212L104.496 69.308L108.556 76.072L114.008 65.76L106.132 66.212Z" fill="#e8623a"/>
<path id="Vector_86" opacity="0.8" d="M106.132 66.212L104.496 69.308L108.556 76.072L114.008 65.76L106.132 66.212Z" fill="var(--illo-paper, #f2ebe1)"/>
<path id="Vector_87" d="M102.756 66.408L104.496 69.308L106.132 66.212L102.756 66.408Z" fill="#e8623a"/>
<path id="Vector_88" d="M147.716 88.512L149.18 91.24L151.448 90.192L149.98 87.108L147.716 88.512Z" fill="#B55B52"/>
<path id="Vector_89" d="M153.3 64.064C156.072 64.464 159.248 74.064 159.248 74.064L153.424 77.352C153.424 77.352 150.86 72.8 149.6 69.4C148.272 65.844 150.328 63.632 153.3 64.064Z" fill="var(--illo-ink, #12262b)"/>
<path id="Vector_90" opacity="0.2" d="M151.688 67.356C150.428 66.204 151.2 71.136 151.8 74.292C152.108 74.908 152.4 75.468 152.648 75.936C154.052 73.456 153.424 68.944 151.688 67.356Z" fill="black"/>
<path id="Vector_91" d="M136.884 64.216C136.884 64.216 133.424 73.064 136.708 89.544H152.4C152.508 87.144 150.996 75.4 153.316 64.064C151.583 63.7294 149.83 63.5076 148.068 63.4C145.85 63.2719 143.626 63.2719 141.408 63.4C139.881 63.5527 138.368 63.8256 136.884 64.216Z" fill="var(--illo-ink, #12262b)"/>
<path id="Vector_92" d="M139.296 68.328L135.344 66.764C135.344 66.764 130.792 76.056 129.344 76.524C127.396 77.164 123.396 78.924 120.972 79.268C120.668 79.668 120.196 80.868 120.272 81.308C123.612 82.4 130.72 80.952 132.192 79.808C135.568 77.2 139.296 68.328 139.296 68.328Z" fill="#FFC3BD"/>
<path id="Vector_93" opacity="0.2" d="M139.74 67.272C139.088 65.768 137.84 65.14 136.54 65.36C136.036 67.204 135.184 71.256 135.34 77.36L136.272 77.808C136.272 77.808 140.856 69.844 139.74 67.272Z" fill="black"/>
<path id="Vector_94" d="M140.364 66.2201C141.348 68.8441 136.364 76.5641 136.364 76.5641L130.5 73.3641C131.381 70.9629 132.517 68.6631 133.888 66.5041C135.948 63.4281 139.28 63.3441 140.364 66.2201Z" fill="var(--illo-ink, #12262b)"/>
<path id="Vector_95" d="M121.116 79.26L117.628 80L119.396 83.228C120.371 82.743 121.257 82.0966 122.016 81.316L121.116 79.26Z" fill="#FFC3BD"/>
<path id="Vector_96" d="M115.98 80.732L117.372 82.66L119.396 83.244L117.628 80.016L115.98 80.732Z" fill="#FFC3BD"/>
<path id="Vector_97" d="M140.552 54.084C140.552 54.32 140.404 54.484 140.248 54.484C140.092 54.484 139.98 54.276 139.996 54.04C140.012 53.804 140.144 53.64 140.3 53.64C140.456 53.64 140.568 53.848 140.552 54.084Z" fill="var(--illo-ink, #12262b)"/>
<path id="Vector_98" d="M140.76 54.104C140.437 54.8088 140.019 55.4656 139.516 56.056C139.671 56.1809 139.851 56.2704 140.043 56.3181C140.236 56.3658 140.437 56.3706 140.632 56.332L140.76 54.104Z" fill="#ED847E"/>
<path id="Vector_99" d="M140.252 53.268C140.231 53.2635 140.211 53.2554 140.192 53.244C140.177 53.2343 140.163 53.2215 140.153 53.2065C140.142 53.1914 140.135 53.1744 140.131 53.1565C140.128 53.1386 140.127 53.1201 140.131 53.1021C140.135 53.0842 140.142 53.0671 140.152 53.052C140.268 52.8647 140.427 52.7076 140.615 52.5935C140.804 52.4795 141.016 52.4118 141.236 52.396C141.273 52.3979 141.307 52.4133 141.333 52.4391C141.359 52.465 141.374 52.4995 141.376 52.536C141.376 52.5731 141.361 52.6087 141.335 52.635C141.309 52.6612 141.273 52.676 141.236 52.676C141.066 52.6919 140.901 52.7476 140.756 52.8386C140.611 52.9296 140.489 53.0534 140.4 53.2C140.386 53.2253 140.364 53.2455 140.337 53.2577C140.311 53.2699 140.281 53.2735 140.252 53.268Z" fill="var(--illo-ink, #12262b)"/>
<path id="Vector_100" d="M148.504 53.8801C148.16 56.7681 148.104 58.4721 146.556 59.8801C144.224 61.9921 140.724 60.4601 140.196 57.5241C139.724 54.8841 140.368 50.6081 143.272 49.6161C143.911 49.395 144.596 49.3408 145.262 49.4588C145.928 49.5768 146.552 49.8629 147.076 50.2901C147.6 50.7172 148.007 51.2713 148.257 51.8996C148.506 52.5279 148.592 53.2096 148.504 53.8801Z" fill="#FFC3BD"/>
<path id="Vector_101" d="M142.684 54.444C141.672 54.644 140.056 52.396 141.376 50.488C140.708 50.156 138.528 51.468 137.708 50.244C136.888 49.02 139.164 48.368 138.728 47.332C140.272 47.648 137.728 49.576 139.196 49.388C140.664 49.2 142.356 46.488 143.996 47.6C146.896 49.548 150.848 46.3 149.236 50.368C151.212 49.968 152.564 52.304 150.68 53.924C146.924 57.144 149.236 57.568 146.856 57.732C145.664 57.82 142.892 56.4 142.684 54.444Z" fill="var(--illo-ink, #12262b)"/>
<path id="Vector_102" d="M144.184 55.2C144.046 55.4887 143.851 55.7468 143.611 55.9591C143.371 56.1714 143.092 56.3335 142.788 56.436C141.988 56.712 141.528 55.996 141.716 55.208C141.884 54.496 142.516 53.496 143.344 53.568C143.526 53.5858 143.7 53.6488 143.851 53.7514C144.002 53.8539 144.125 53.9927 144.209 54.1551C144.293 54.3174 144.334 54.4982 144.33 54.6807C144.325 54.8633 144.275 55.0418 144.184 55.2Z" fill="#FFC3BD"/>
<path id="Vector_103" d="M142.268 89.5441C142.268 89.5441 145.596 111.944 147.42 120.344C149.42 129.544 156.952 160.14 156.952 160.14H162.32C162.32 160.14 157.356 130.276 156.212 121.176C154.976 111.304 152.384 89.5561 152.384 89.5561L142.268 89.5441Z" fill="#e8623a"/>
<path id="Vector_104" opacity="0.2" d="M142.268 89.5441C142.268 89.5441 145.596 111.944 147.42 120.344C149.42 129.544 156.952 160.14 156.952 160.14H162.32C162.32 160.14 157.356 130.276 156.212 121.176C154.976 111.304 152.384 89.5561 152.384 89.5561L142.268 89.5441Z" fill="var(--illo-paper, #f2ebe1)"/>
<path id="Vector_105" opacity="0.2" d="M146.22 97.376C145.972 97.024 145.748 96.904 145.54 96.976H145.496C145.449 96.9968 145.404 97.0237 145.364 97.056C145.322 97.0906 145.283 97.1295 145.248 97.172L145.184 97.252L145.1 97.3841C145.031 97.5004 144.971 97.6222 144.92 97.748C144.888 97.824 144.856 97.9041 144.828 97.9841C144.8 98.0641 144.756 98.188 144.724 98.3C144.692 98.412 144.632 98.604 144.588 98.768C144.588 98.812 144.568 98.852 144.556 98.896C144.544 98.94 144.512 99.08 144.492 99.172C144.472 99.264 144.456 99.332 144.44 99.412C144.404 99.568 144.372 99.732 144.34 99.9C144.308 100.068 144.272 100.264 144.24 100.452C144.24 100.516 144.22 100.58 144.208 100.648C144.168 100.888 144.132 101.132 144.096 101.384C144.984 106.96 146.04 113.352 146.896 117.812C146.936 117.668 146.98 117.516 147.016 117.352C147.191 116.608 147.324 115.855 147.416 115.096C148.172 109.348 147.824 99.668 146.22 97.376Z" fill="black"/>
<path id="Vector_106" d="M136.708 89.5441C136.708 89.5441 136.308 111.456 136.624 120.396C136.956 129.692 140.204 160.128 140.204 160.128H145.168C145.168 160.128 145.348 130.232 145.568 121.104C145.808 111.152 147.008 89.5441 147.008 89.5441H136.708Z" fill="#e8623a"/>
<path id="Vector_107" opacity="0.2" d="M136.708 89.5441C136.708 89.5441 136.308 111.456 136.624 120.396C136.956 129.692 140.204 160.128 140.204 160.128H145.168C145.168 160.128 145.348 130.232 145.568 121.104C145.808 111.152 147.008 89.5441 147.008 89.5441H136.708Z" fill="var(--illo-paper, #f2ebe1)"/>
<path id="Vector_108" d="M145.496 158.608C145.516 158.608 145.496 160.228 145.496 160.228H139.772L139.532 158.408L145.496 158.608Z" fill="var(--illo-ink, #12262b)"/>
<path id="Vector_109" d="M162.32 158.728C162.344 158.728 162.588 160.228 162.588 160.228H156.688L156.168 158.508L162.32 158.728Z" fill="var(--illo-ink, #12262b)"/>
<path id="Vector_110" d="M157.856 164.264C157.657 164.28 157.458 164.228 157.292 164.116C157.238 164.072 157.197 164.015 157.172 163.951C157.146 163.886 157.138 163.817 157.148 163.748C157.149 163.708 157.16 163.669 157.18 163.634C157.2 163.6 157.229 163.572 157.264 163.552C157.588 163.388 158.536 163.952 158.644 164.032C158.655 164.04 158.664 164.051 158.669 164.064C158.674 164.077 158.675 164.091 158.672 164.104C158.67 164.117 158.664 164.13 158.655 164.14C158.646 164.15 158.633 164.157 158.62 164.16C158.37 164.222 158.114 164.257 157.856 164.264ZM157.42 163.66C157.39 163.653 157.358 163.653 157.328 163.66C157.314 163.668 157.303 163.68 157.295 163.694C157.287 163.708 157.283 163.724 157.284 163.74C157.278 163.787 157.284 163.834 157.3 163.878C157.317 163.922 157.345 163.961 157.38 163.992C157.707 164.144 158.079 164.164 158.42 164.048C158.115 163.855 157.775 163.724 157.42 163.66Z" fill="#e8623a"/>
<path id="Vector_111" d="M158.604 164.164C158.594 164.167 158.582 164.167 158.572 164.164C158.268 164 157.684 163.364 157.744 163.032C157.754 162.981 157.782 162.935 157.822 162.903C157.862 162.87 157.912 162.852 157.964 162.852C158.017 162.844 158.071 162.848 158.122 162.863C158.173 162.878 158.22 162.904 158.26 162.94C158.6 163.216 158.66 164.064 158.66 164.1C158.66 164.112 158.657 164.124 158.651 164.136C158.646 164.147 158.638 164.156 158.628 164.164C158.62 164.165 158.612 164.165 158.604 164.164ZM158.012 162.964H158C157.908 162.964 157.9 163.016 157.896 163.036C157.86 163.228 158.232 163.712 158.536 163.94C158.515 163.606 158.394 163.287 158.188 163.024C158.163 163.002 158.132 162.986 158.1 162.977C158.067 162.968 158.033 162.966 158 162.972L158.012 162.964Z" fill="#e8623a"/>
<path id="Vector_112" d="M140.236 164.264C139.985 164.287 139.734 164.224 139.524 164.084C139.478 164.042 139.442 163.99 139.42 163.931C139.398 163.873 139.39 163.81 139.396 163.748C139.396 163.71 139.407 163.673 139.426 163.64C139.446 163.608 139.474 163.582 139.508 163.564C139.864 163.364 141.044 163.964 141.176 164.032C141.189 164.038 141.2 164.049 141.207 164.062C141.213 164.075 141.215 164.09 141.212 164.104C141.21 164.118 141.204 164.132 141.194 164.142C141.184 164.152 141.17 164.158 141.156 164.16C140.854 164.225 140.545 164.259 140.236 164.264ZM139.704 163.66C139.66 163.658 139.616 163.667 139.576 163.684C139.563 163.692 139.552 163.703 139.544 163.716C139.536 163.73 139.532 163.745 139.532 163.76C139.526 163.801 139.531 163.842 139.546 163.881C139.561 163.919 139.585 163.953 139.616 163.98C139.796 164.14 140.28 164.168 140.928 164.06C140.545 163.859 140.132 163.724 139.704 163.66Z" fill="#e8623a"/>
<path id="Vector_113" d="M141.144 164.164H141.116C140.76 164.004 140.06 163.364 140.116 163.04C140.116 162.964 140.184 162.864 140.372 162.848C140.443 162.837 140.516 162.842 140.585 162.862C140.654 162.882 140.718 162.917 140.772 162.964C141.144 163.272 141.22 164.06 141.224 164.096C141.226 164.108 141.224 164.119 141.219 164.13C141.214 164.141 141.206 164.15 141.196 164.156C141.18 164.165 141.162 164.168 141.144 164.164ZM140.428 162.964H140.4C140.276 162.964 140.268 163.024 140.264 163.044C140.232 163.24 140.708 163.74 141.064 163.956C141.03 163.62 140.89 163.304 140.664 163.052C140.596 163.001 140.513 162.973 140.428 162.972V162.964Z" fill="#e8623a"/>
</g>
</g>
</g>
</g>
</g>
</g>
</g>
</svg>
