<svg width="200" height="200" viewBox="0 0 200 200" fill="none" xmlns="http://www.w3.org/2000/svg">
<rect width="200" height="200" fill="none"/>
<g id="Homepage / Donators hero">
<g id="Homepage">

<g id="Frame 19">
<g id="Frame 18">
<g id="Frame 1686557076">


<g id="Frame 1686557084">
<g id="Charity-rafiki 1">
<g id="freepik--background-complete--inject-61">
<path id="Vector" d="M175.724 61.3479C175.832 60.7044 175.798 60.045 175.624 59.4162C175.449 58.7873 175.139 58.2044 174.715 57.7085C174.291 57.2127 173.763 56.8159 173.169 56.5462C172.575 56.2766 171.928 56.1406 171.276 56.1479C171.031 56.1488 170.786 56.1702 170.544 56.2119C170.027 55.3492 169.269 54.6567 168.363 54.22C167.457 53.7834 166.443 53.6216 165.446 53.7548C164.449 53.888 163.513 54.3102 162.754 54.9694C161.994 55.6285 161.444 56.4958 161.172 57.4639C160.85 57.3656 160.516 57.3157 160.18 57.3159C159.293 57.3159 158.442 57.6682 157.815 58.2953C157.188 58.9225 156.836 59.773 156.836 60.6599C156.837 60.8966 156.862 61.1325 156.912 61.3639L175.724 61.3479Z" fill="var(--illo-light, #ebe3d8)"/>
<path id="Vector_2" d="M58 43.544C58.0664 43.1474 58.1011 42.7462 58.104 42.344C58.104 40.287 57.2869 38.3142 55.8323 36.8597C54.3778 35.4052 52.405 34.588 50.348 34.588C49.927 34.5909 49.5069 34.6283 49.092 34.7C48.2049 33.2179 46.9032 32.0281 45.3475 31.2773C43.7919 30.5265 42.0505 30.2477 40.3382 30.4753C38.626 30.7029 37.0179 31.4269 35.7124 32.558C34.4069 33.6891 33.4612 35.1777 32.992 36.84C32.0326 36.5394 31.0111 36.4959 30.0297 36.7141C29.0483 36.9323 28.1414 37.4045 27.3998 38.0833C26.6582 38.7621 26.1079 39.6238 25.8039 40.5822C25.5 41.5405 25.4532 42.5619 25.668 43.544H58Z" fill="var(--illo-light, #ebe3d8)"/>
<path id="Vector_3" d="M200 152.96H0V153.06H200V152.96Z" fill="var(--illo-light, #ebe3d8)"/>
<path id="Vector_4" d="M179.96 159.396H166.712V159.496H179.96V159.396Z" fill="var(--illo-light, #ebe3d8)"/>
<path id="Vector_5" d="M132.488 160.484H129.012V160.584H132.488V160.484Z" fill="var(--illo-light, #ebe3d8)"/>
<path id="Vector_6" d="M166.312 155.684H158.636V155.784H166.312V155.684Z" fill="var(--illo-light, #ebe3d8)"/>
<path id="Vector_7" d="M38.2599 156.356H20.9839V156.456H38.2599V156.356Z" fill="var(--illo-light, #ebe3d8)"/>
<path id="Vector_8" d="M44.356 156.356H41.824V156.456H44.356V156.356Z" fill="var(--illo-light, #ebe3d8)"/>
<path id="Vector_9" d="M90.0599 158.044H52.5879V158.144H90.0599V158.044Z" fill="var(--illo-light, #ebe3d8)"/>
<path id="Vector_10" d="M94.7999 135.12H17.5639C16.9589 135.119 16.379 134.878 15.9515 134.45C15.524 134.021 15.2839 133.441 15.2839 132.836V24.264C15.2892 23.6624 15.5316 23.0872 15.9585 22.6633C16.3854 22.2394 16.9623 22.001 17.5639 22H94.7999C95.4057 22 95.9866 22.2406 96.415 22.669C96.8433 23.0973 97.0839 23.6782 97.0839 24.284V132.836C97.0839 133.442 96.8433 134.023 96.415 134.451C95.9866 134.879 95.4057 135.12 94.7999 135.12ZM17.5639 22.08C16.9854 22.0811 16.4309 22.3116 16.0222 22.7211C15.6135 23.1306 15.3839 23.6855 15.3839 24.264V132.836C15.3839 133.415 15.6135 133.969 16.0222 134.379C16.4309 134.788 16.9854 135.019 17.5639 135.02H94.7999C95.3788 135.019 95.9337 134.789 96.3431 134.379C96.7524 133.97 96.9829 133.415 96.9839 132.836V24.264C96.9829 23.6851 96.7524 23.1302 96.3431 22.7208C95.9337 22.3115 95.3788 22.0811 94.7999 22.08H17.5639Z" fill="var(--illo-light, #ebe3d8)"/>
<path id="Vector_11" d="M181.324 135.12H104.084C103.479 135.119 102.898 134.878 102.47 134.45C102.042 134.022 101.801 133.441 101.8 132.836V24.264C101.806 23.662 102.05 23.0868 102.477 22.663C102.905 22.2392 103.482 22.001 104.084 22H181.324C181.925 22.0021 182.501 22.2409 182.927 22.6647C183.353 23.0885 183.595 23.6631 183.6 24.264V132.836C183.6 133.44 183.361 134.02 182.934 134.448C182.507 134.876 181.928 135.118 181.324 135.12ZM104.084 22.08C103.505 22.0811 102.95 22.3115 102.541 22.7208C102.132 23.1302 101.901 23.6851 101.9 24.264V132.836C101.901 133.415 102.132 133.97 102.541 134.379C102.95 134.789 103.505 135.019 104.084 135.02H181.324C181.903 135.019 182.458 134.789 182.867 134.379C183.277 133.97 183.507 133.415 183.508 132.836V24.264C183.507 23.6851 183.277 23.1302 182.867 22.7208C182.458 22.3115 181.903 22.0811 181.324 22.08H104.084Z" fill="var(--illo-light, #ebe3d8)"/>
<path id="Vector_12" d="M15.1641 141.384V114.792H27.9721V107.52H34.1041V86.1479L42.0241 78.228H58.1041V101.128H80.1641V105.652H95.7601V99.708H112.516V95.228H125.6V68.7H148.764V85.6039H154.096V91.728H166.492V101.772H173.116L178.212 106.868V112.052H183.288V141.384H15.1641Z" fill="var(--illo-light, #ebe3d8)"/>
<path id="Vector_13" d="M30.7641 114.792H28.1921L27.9721 114.64V114.792H15.1641V141.384H30.7641V114.792Z" fill="var(--illo-mid, #ddd3c6)"/>
<path id="Vector_14" d="M95.9839 101.644V105.652H95.3519L94.6799 109.94L96.5799 141.384H117.712V99.708H112.74H96.2839L95.9839 101.644Z" fill="var(--illo-mid, #ddd3c6)"/>
<path id="Vector_15" d="M145.18 91.728V141.384H183.508V112.052H178.432V106.868L173.336 101.772H166.712V91.728H155.46H154.316H145.18Z" fill="var(--illo-mid, #ddd3c6)"/>
<path id="Vector_16" d="M173.36 104.468H171.044V106.784H173.36V104.468Z" fill="var(--illo-paper, #f2ebe1)"/>
<path id="Vector_17" d="M169.268 104.468H166.952V106.784H169.268V104.468Z" fill="var(--illo-paper, #f2ebe1)"/>
<path id="Vector_18" d="M173.36 108.784H171.044V111.1H173.36V108.784Z" fill="var(--illo-paper, #f2ebe1)"/>
<path id="Vector_19" d="M169.268 108.784H166.952V111.1H169.268V108.784Z" fill="var(--illo-paper, #f2ebe1)"/>
<path id="Vector_20" d="M160.712 93.5959H158.396V95.9119H160.712V93.5959Z" fill="var(--illo-paper, #f2ebe1)"/>
<path id="Vector_21" d="M156.62 93.5959H154.304V95.9119H156.62V93.5959Z" fill="var(--illo-paper, #f2ebe1)"/>
<path id="Vector_22" d="M28.076 118.54H25.76V120.856H28.076V118.54Z" fill="var(--illo-paper, #f2ebe1)"/>
<path id="Vector_23" d="M23.984 118.54H21.668V120.856H23.984V118.54Z" fill="var(--illo-paper, #f2ebe1)"/>
<path id="Vector_24" d="M115.044 108.832V106.516H112.728V108.832H115.044Z" fill="var(--illo-paper, #f2ebe1)"/>
<path id="Vector_25" d="M115.044 104.74V102.424H112.728V104.74H115.044Z" fill="var(--illo-paper, #f2ebe1)"/>
</g>
<g id="freepik--Shadow--inject-61">

</g>
<g id="freepik--Box--inject-61">
<path id="Vector_26" d="M177.412 146.776H155.56V164.848H177.412V146.776Z" fill="#e8623a"/>
<path id="Vector_27" opacity="0.3" d="M177.412 146.776H155.56V164.848H177.412V146.776Z" fill="var(--illo-paper, #f2ebe1)"/>
<path id="Vector_28" d="M160.948 146.776H144.012V164.848H160.948V146.776Z" fill="#e8623a"/>
<path id="Vector_29" opacity="0.1" d="M160.948 146.776H144.012V164.848H160.948V146.776Z" fill="var(--illo-paper, #f2ebe1)"/>
<path id="Vector_30" opacity="0.3" d="M154.876 146.776H150.084V152.4H154.876V146.776Z" fill="var(--illo-paper, #f2ebe1)"/>
<path id="Vector_31" opacity="0.1" d="M172.756 146.776H167.964V152.4H172.756V146.776Z" fill="black"/>
<path id="Vector_32" d="M168.224 157.412H167.592C167.582 157.228 167.582 157.044 167.592 156.86C167.592 156.572 167.812 156.016 168.212 156.268C168.336 156.344 168.48 156.168 168.356 156.092C168.266 156.038 168.165 156.007 168.06 156.002C167.956 155.997 167.851 156.018 167.757 156.063C167.663 156.109 167.581 156.177 167.519 156.261C167.458 156.346 167.418 156.444 167.404 156.548C167.351 156.83 167.337 157.118 167.364 157.404H167C166.856 157.404 166.816 157.624 166.964 157.628H167.364C167.364 157.98 167.364 158.332 167.364 158.684C167.364 158.832 167.592 158.804 167.592 158.66C167.592 158.316 167.592 157.976 167.592 157.632H168.184C168.332 157.64 168.372 157.416 168.224 157.412Z" fill="var(--illo-paper, #f2ebe1)"/>
<path id="Vector_33" d="M169.272 156.916C169.256 156.912 169.24 156.912 169.224 156.916C168.188 156.84 168.352 158.536 169.344 158.516C169.556 158.485 169.749 158.377 169.886 158.212C170.022 158.047 170.093 157.838 170.084 157.624C170.087 157.521 170.068 157.418 170.026 157.324C169.985 157.229 169.923 157.145 169.846 157.077C169.768 157.01 169.676 156.96 169.577 156.932C169.478 156.904 169.374 156.899 169.272 156.916ZM169.428 158.272C168.68 158.468 168.44 157.072 169.208 157.156C169.232 157.162 169.256 157.162 169.28 157.156C170 157.048 170 158.12 169.428 158.272Z" fill="var(--illo-paper, #f2ebe1)"/>
<path id="Vector_34" d="M171.744 157.336C171.436 156.336 169.884 157.156 170.328 158.068C170.441 158.247 170.616 158.378 170.819 158.438C171.022 158.497 171.24 158.481 171.432 158.392C171.528 158.355 171.615 158.297 171.686 158.222C171.757 158.147 171.811 158.057 171.843 157.959C171.875 157.861 171.885 157.758 171.872 157.655C171.859 157.553 171.824 157.455 171.768 157.368L171.744 157.336ZM170.508 157.908C170.296 157.3 171.308 156.708 171.532 157.428C171.535 157.44 171.54 157.452 171.547 157.463C171.555 157.473 171.565 157.482 171.576 157.488C171.968 158.188 170.724 158.54 170.508 157.908Z" fill="var(--illo-paper, #f2ebe1)"/>
<path id="Vector_35" d="M173.48 158.44C173.412 157.52 173.348 156.6 173.28 155.684C173.28 155.536 173.044 155.564 173.052 155.708L173.136 156.868C173.015 156.829 172.886 156.818 172.76 156.836C172.634 156.854 172.513 156.9 172.408 156.972C172.302 157.044 172.215 157.139 172.152 157.25C172.089 157.361 172.052 157.485 172.044 157.612C172.012 158.232 172.732 158.444 173.244 158.376V158.464C173.264 158.608 173.492 158.584 173.48 158.44ZM172.28 157.712C172.273 157.612 172.291 157.512 172.332 157.42C172.373 157.329 172.435 157.249 172.514 157.187C172.593 157.125 172.686 157.083 172.784 157.065C172.883 157.047 172.984 157.054 173.08 157.084C173.102 157.09 173.126 157.09 173.148 157.084C173.176 157.436 173.2 157.788 173.228 158.144C172.88 158.192 172.332 158.12 172.272 157.712H172.28Z" fill="var(--illo-paper, #f2ebe1)"/>
</g>
<g id="freepik--Device--inject-61">
<path id="Vector_36" d="M99.9881 38.2041H46.0081C42.6943 38.2041 40.0081 40.8904 40.0081 44.2041V156.82C40.0081 160.134 42.6943 162.82 46.0081 162.82H99.9881C103.302 162.82 105.988 160.134 105.988 156.82V44.2041C105.988 40.8904 103.302 38.2041 99.9881 38.2041Z" fill="var(--illo-ink, #12262b)"/>
<path id="Vector_37" d="M101.724 46.5122H44.2761V146.736H101.724V46.5122Z" fill="#e8623a"/>
<path id="Vector_38" opacity="0.3" d="M101.724 136.8H44.2761V146.732H101.724V136.8Z" fill="var(--illo-paper, #f2ebe1)"/>
<path id="Vector_39" opacity="0.1" d="M101.724 87.7522C87.1201 102.276 60.0761 129.444 44.2761 145.352V146.752H76.3761L101.724 121.408V87.7522Z" fill="var(--illo-paper, #f2ebe1)"/>
<path id="Vector_40" opacity="0.1" d="M44.2761 96.9122L94.6761 46.5122H71.1081C64.8681 52.7042 54.2081 63.3842 44.2761 73.3522V96.9122Z" fill="var(--illo-paper, #f2ebe1)"/>
<path id="Vector_41" opacity="0.1" d="M44.2761 117.98L101.724 60.532V48.24L44.2761 105.684V117.98Z" fill="var(--illo-paper, #f2ebe1)"/>
<path id="Vector_42" opacity="0.2" d="M101.724 46.5122H44.2761V51.0322H101.724V46.5122Z" fill="black"/>
<path id="Vector_43" d="M73.6337 157.476C75.7685 157.13 77.2182 155.118 76.8717 152.984C76.5252 150.849 74.5136 149.399 72.3788 149.746C70.244 150.092 68.7943 152.104 69.1409 154.238C69.4874 156.373 71.4989 157.823 73.6337 157.476Z" fill="#e8623a"/>
<g id="Group" opacity="0.6">
<path id="Vector_44" opacity="0.6" d="M50.488 49.8081H51.356V48.6481H50.488V49.8081Z" fill="var(--illo-paper, #f2ebe1)"/>
<path id="Vector_45" opacity="0.6" d="M49.0719 49.8081H49.9399V48.2641H49.0719V49.8081Z" fill="var(--illo-paper, #f2ebe1)"/>
<path id="Vector_46" opacity="0.6" d="M47.6559 49.8081H48.5239V47.8761H47.6559V49.8081Z" fill="var(--illo-paper, #f2ebe1)"/>
<path id="Vector_47" opacity="0.6" d="M46.2399 49.8081H47.1079V47.4881H46.2399V49.8081Z" fill="var(--illo-paper, #f2ebe1)"/>
</g>
<path id="Vector_48" opacity="0.6" d="M95.6281 48.2241H95.1121V49.3841H95.6281V48.2241Z" fill="var(--illo-paper, #f2ebe1)"/>
<path id="Vector_49" opacity="0.6" d="M95.984 49.8081H100.092V47.8041H95.984V49.8081Z" fill="var(--illo-paper, #f2ebe1)"/>
<path id="Vector_50" opacity="0.4" d="M75.8601 106.4C74.5441 105.2 73.0001 106.8 73.0001 106.8C73.0001 106.8 71.4601 105.2 70.1401 106.38C68.2601 108.064 70.9921 111.076 73.0001 111.68C75.0081 111.092 77.7401 108.08 75.8601 106.4Z" fill="var(--illo-paper, #f2ebe1)"/>
<path id="Vector_51" d="M89.4521 114.8H56.5481C55.553 114.8 54.5987 115.195 53.8951 115.899C53.1914 116.603 52.7961 117.557 52.7961 118.552C52.7961 119.547 53.1914 120.501 53.8951 121.205C54.5987 121.909 55.553 122.304 56.5481 122.304H89.4521C90.4472 122.304 91.4016 121.909 92.1052 121.205C92.8088 120.501 93.2041 119.547 93.2041 118.552C93.2041 117.557 92.8088 116.603 92.1052 115.899C91.4016 115.195 90.4472 114.8 89.4521 114.8Z" fill="var(--illo-paper, #f2ebe1)"/>
<path id="Vector_52" d="M62.1479 120.548V116.568H63.6C63.8906 116.563 64.1791 116.618 64.4479 116.728C64.6785 116.825 64.8858 116.969 65.056 117.152C65.2199 117.335 65.3439 117.55 65.42 117.784C65.5958 118.303 65.5958 118.865 65.42 119.384C65.3334 119.62 65.1969 119.834 65.02 120.012C64.8448 120.185 64.6367 120.321 64.408 120.412C64.1529 120.511 63.8814 120.56 63.608 120.556L62.1479 120.548ZM64.752 118.548C64.7523 118.371 64.7267 118.194 64.676 118.024C64.6273 117.877 64.5498 117.741 64.4479 117.624C64.3461 117.508 64.2188 117.416 64.076 117.356C63.9193 117.289 63.7502 117.257 63.5799 117.26H62.912V119.88H63.6C63.7732 119.884 63.9451 119.85 64.1039 119.78C64.2441 119.716 64.3684 119.622 64.468 119.504C64.5702 119.38 64.6476 119.238 64.696 119.084C64.7411 118.911 64.7599 118.731 64.752 118.552V118.548Z" fill="var(--illo-mid, #ddd3c6)"/>
<path id="Vector_53" d="M67.8039 120.576C67.5276 120.581 67.2539 120.522 67.0039 120.404C66.774 120.294 66.5686 120.139 66.3999 119.948C66.0596 119.566 65.8705 119.072 65.8679 118.56C65.8668 118.298 65.9171 118.039 66.0159 117.796C66.1084 117.559 66.244 117.34 66.4159 117.152C66.5895 116.964 66.799 116.814 67.0319 116.708C67.2737 116.596 67.5375 116.54 67.8039 116.544C68.0743 116.54 68.3417 116.6 68.5839 116.72C68.8195 116.837 69.029 117 69.1999 117.2C69.372 117.391 69.5076 117.612 69.5999 117.852C69.6932 118.086 69.7407 118.336 69.7399 118.588C69.7412 118.848 69.6924 119.106 69.5959 119.348C69.5028 119.584 69.3672 119.801 69.1959 119.988C69.0244 120.175 68.8161 120.325 68.5839 120.428C68.3385 120.536 68.0718 120.586 67.8039 120.576ZM66.6599 118.576C66.6603 118.745 66.6873 118.912 66.7399 119.072C66.7894 119.227 66.8652 119.371 66.9639 119.5C67.064 119.621 67.1862 119.721 67.3239 119.796C67.4754 119.872 67.6427 119.91 67.8119 119.908C67.983 119.911 68.152 119.871 68.3039 119.792C68.4438 119.717 68.5664 119.613 68.6639 119.488C68.7614 119.359 68.8359 119.214 68.8839 119.06C68.9348 118.904 68.9605 118.741 68.9599 118.576C68.96 118.406 68.933 118.238 68.8799 118.076C68.8308 117.921 68.7535 117.776 68.6519 117.648C68.5547 117.526 68.4318 117.426 68.2919 117.356C68.1395 117.284 67.9728 117.246 67.8039 117.246C67.6351 117.246 67.4684 117.284 67.3159 117.356C67.1763 117.432 67.0538 117.535 66.9559 117.66C66.8593 117.788 66.7849 117.931 66.7359 118.084C66.6879 118.238 66.6623 118.399 66.6599 118.56V118.576Z" fill="var(--illo-mid, #ddd3c6)"/>
<path id="Vector_54" d="M71.0881 118V120.548H70.3201V116.568H70.9161L72.9681 119.18V116.576H73.7361V120.548H73.1161L71.0881 118Z" fill="var(--illo-mid, #ddd3c6)"/>
<path id="Vector_55" d="M75.6801 116.568H76.3561L77.8561 120.548H77.0561L76.6881 119.556H75.3121L74.9521 120.548H74.1521L75.6801 116.568ZM76.5641 119.012L76.0201 117.448L75.4521 119.012H76.5641Z" fill="var(--illo-mid, #ddd3c6)"/>
<path id="Vector_56" d="M80.8481 117.248H79.6001V120.548H78.8401V117.248H77.5801V116.568H80.8601L80.8481 117.248Z" fill="var(--illo-mid, #ddd3c6)"/>
<path id="Vector_57" d="M84.0759 119.868V120.548H81.3359V116.568H84.0239V117.248H82.1039V118.204H83.7639V118.832H82.1039V119.868H84.0759Z" fill="var(--illo-mid, #ddd3c6)"/>
<path id="Vector_58" opacity="0.3" d="M105.992 73.7561L93.9399 75.4721L97.0879 97.8641L105.992 96.9601V73.7561Z" fill="var(--illo-ink, #12262b)"/>
<path id="Vector_59" opacity="0.7" d="M73.5561 101.768C85.808 101.768 95.7401 91.836 95.7401 79.5842C95.7401 67.3323 85.808 57.4001 73.5561 57.4001C61.3042 57.4001 51.3721 67.3323 51.3721 79.5842C51.3721 91.836 61.3042 101.768 73.5561 101.768Z" fill="var(--illo-paper, #f2ebe1)"/>
<path id="Vector_60" d="M81.5119 66.02C81.5119 66.02 86.0439 72.724 88.5879 72.996C91.1319 73.268 101.084 64.708 101.084 64.708L102.772 66.168C102.772 66.168 93.3039 76.568 89.3519 77.176C85.3999 77.784 77.8879 69.952 77.8879 69.952L81.5119 66.02Z" fill="#c94a24"/>
<path id="Vector_61" d="M80.4321 66.5201C80.4321 66.5201 82.0321 64.9521 84.2321 67.6761C86.4321 70.4001 87.3361 70.9561 87.3361 70.9561L81.7361 76.4241C81.7361 76.4241 78.4441 67.9761 80.4321 66.5201Z" fill="#e8623a"/>
<path id="Vector_62" d="M100.296 64.088C100.296 64.088 100.492 61.572 101.076 61.412C101.66 61.252 101.452 63.112 101.452 63.112C101.452 63.112 104.532 61.232 105.152 61.4C105.772 61.568 105.672 62.784 105.552 63.112C104.612 65.912 101.252 67.072 101.252 67.072L99.896 65.792L100.296 64.088Z" fill="#c94a24"/>
<path id="Vector_63" d="M77.2 59.364C77.2 59.364 80.292 64.516 79.344 67.764C78.396 71.012 73.52 68.092 73.52 68.092L73.58 61.692L77.2 59.364Z" fill="var(--illo-ink, #12262b)"/>
<path id="Vector_64" d="M68.9082 50.4841C68.9082 50.4841 64.3362 52.8001 66.1322 60.9481C69.1402 74.6081 73.5802 68.9481 73.5802 68.9481C73.5802 68.9481 73.3842 63.5641 71.5802 60.9481C69.7762 58.3321 70.1522 54.6001 70.1522 54.6001L68.9082 50.4841Z" fill="var(--illo-ink, #12262b)"/>
<path id="Vector_65" d="M82.168 86.5721L68.46 87.7721C68.3272 84.3742 67.8378 80.9997 67 77.7041C66.672 76.3921 66.264 74.9241 65.736 73.2321C65.452 72.3241 65.14 71.3521 64.792 70.3081C64.532 69.5081 64.248 68.6721 63.936 67.7801C65.798 67.1848 67.7002 66.7236 69.628 66.4001C71.6604 66.0361 73.7164 65.8196 75.78 65.7521C78.448 65.7281 81.512 66.0281 81.512 66.0281C81.512 66.0281 81.948 66.1321 82.224 68.9601C82.472 71.6001 82.716 76.9161 82.168 86.5721Z" fill="#e8623a"/>
<path id="Vector_66" opacity="0.2" d="M82.168 86.5721L68.46 87.7721C68.3272 84.3742 67.8378 80.9997 67 77.7041C66.672 76.3921 66.264 74.9241 65.736 73.2321C65.452 72.3241 65.14 71.3521 64.792 70.3081C64.532 69.5081 64.248 68.6721 63.936 67.7801C65.798 67.1848 67.7002 66.7236 69.628 66.4001C71.6604 66.0361 73.7164 65.8196 75.78 65.7521C78.448 65.7281 81.512 66.0281 81.512 66.0281C81.512 66.0281 81.948 66.1321 82.224 68.9601C82.472 71.6001 82.716 76.9161 82.168 86.5721Z" fill="var(--illo-paper, #f2ebe1)"/>
<path id="Vector_67" opacity="0.2" d="M68.4001 86.7281C70.5961 85.8721 77.8361 82.3281 77.8361 82.3281L68.2361 84.4961C68.2801 85.2241 68.3401 85.9601 68.4001 86.7281Z" fill="black"/>
<path id="Vector_68" d="M74.652 68.7682C71.272 68.3362 70.252 66.8962 70.252 66.8962C72.396 64.8722 70.6159 61.3682 70.6159 61.3682L74.6799 62.1282C74.587 62.6944 74.5348 63.2665 74.524 63.8402C74.492 66.3082 75.608 66.3322 75.608 66.3322C76.324 67.6682 74.652 68.7682 74.652 68.7682Z" fill="#c94a24"/>
<path id="Vector_69" opacity="0.2" d="M74.6841 62.1282C74.5911 62.6944 74.539 63.2665 74.5281 63.8402C71.7801 63.8402 70.6201 61.3682 70.6201 61.3682L74.6841 62.1282Z" fill="black"/>
<path id="Vector_70" d="M72.86 50.744C76.396 50.548 77.196 52.244 77.66 55.872C78.236 60.408 77.42 63.844 72.948 63.116C68.04 62.316 66.664 54.544 69.616 51.572C70.308 50.868 71.736 50.8 72.86 50.744Z" fill="#c94a24"/>
<path id="Vector_71" d="M75.376 56.332C75.6874 56.8442 76.0594 57.3169 76.484 57.74C76.3892 57.892 76.2542 58.0147 76.0939 58.0945C75.9336 58.1743 75.7543 58.208 75.576 58.192L75.376 56.332Z" fill="#c94a24"/>
<path id="Vector_72" d="M73.236 55.9242C73.3854 55.8485 73.5061 55.7264 73.58 55.5762L72.968 55.8722C72.8788 55.9241 72.8079 56.0023 72.7649 56.0961C72.7219 56.1899 72.709 56.2947 72.728 56.3962C72.748 56.6882 72.924 56.9082 73.128 56.8962C73.332 56.8842 73.46 56.6322 73.44 56.3442C73.4302 56.1827 73.3568 56.0317 73.236 55.9242Z" fill="var(--illo-ink, #12262b)"/>
<path id="Vector_73" d="M76.6681 55.6002C76.8174 55.5246 76.9382 55.4024 77.0121 55.2522L76.4041 55.5482C76.3146 55.6011 76.2434 55.6799 76.1998 55.7742C76.1562 55.8685 76.1424 55.9738 76.1601 56.0762C76.1841 56.3682 76.3601 56.5882 76.5601 56.5722C76.7601 56.5562 76.8921 56.3122 76.8681 56.0202C76.8655 55.9402 76.8464 55.8615 76.812 55.7893C76.7776 55.717 76.7286 55.6526 76.6681 55.6002Z" fill="var(--illo-ink, #12262b)"/>
<path id="Vector_74" d="M73.232 54.2921C72.9507 54.2741 72.6689 54.3207 72.4083 54.4281C72.1477 54.5356 71.915 54.7011 71.728 54.9121" stroke="var(--illo-ink, #12262b)" stroke-width="0.707336" stroke-linecap="round" stroke-linejoin="round"/>
<path id="Vector_75" d="M75.3801 54.1481C75.5978 54.0254 75.8403 53.9534 76.0896 53.9375C76.3389 53.9215 76.5887 53.9621 76.8201 54.0561" stroke="var(--illo-ink, #12262b)" stroke-width="0.707336" stroke-linecap="round" stroke-linejoin="round"/>
<path id="Vector_76" d="M67.124 67.268C67.124 67.268 71.092 70.488 74.784 70.436C78.476 70.384 79.776 66.232 79.776 66.232C79.776 66.232 74.048 64.536 67.124 67.268Z" fill="#c94a24"/>
<path id="Vector_77" d="M61.288 75.3081C61.288 75.3081 60.04 82.6681 60.188 84.7641C60.336 86.8601 63.504 86.9241 65.288 86.7121C67.34 86.4681 78.04 82.2361 78.04 82.2361L77.544 80.1201C77.544 80.1201 69.168 82.4001 65.6 82.8001C65.4333 82.8172 65.2649 82.7959 65.1076 82.7379C64.9504 82.68 64.8084 82.5869 64.6927 82.4657C64.5769 82.3445 64.4904 82.1985 64.4396 82.0388C64.3889 81.8791 64.3753 81.7099 64.4 81.5441L65.228 76.0801L61.288 75.3081Z" fill="#c94a24"/>
<path id="Vector_78" d="M63.9361 67.7642C63.9361 67.7642 66.1241 67.2802 66.5481 70.7562C66.8047 72.8612 66.5297 74.9969 65.7481 76.9682L60.2041 75.9682C60.2041 75.9682 61.4801 67.9442 63.9361 67.7642Z" fill="#e8623a"/>
<path id="Vector_79" d="M80.2762 78.0001C80.1396 77.9171 79.9782 77.8846 79.8202 77.9081C79.1642 78.0761 77.1722 80.0481 77.0562 80.3081L77.5682 82.1761C77.5682 82.1761 78.6162 82.7361 79.1242 82.5761C79.6322 82.4161 82.2082 80.5201 82.2122 80.0641C82.2151 80.0389 82.2151 80.0133 82.2122 79.9881C82.3042 79.9201 82.3802 79.8641 82.4322 79.8321C82.8682 79.5601 81.2562 78.3561 80.2762 78.0001Z" fill="#c94a24"/>
<path id="Vector_80" d="M72.6522 50.7561C72.6522 50.7561 73.1042 55.1881 69.4082 55.3481C65.7122 55.5081 68.8001 51.3761 68.8001 51.3761L72.6522 50.7561Z" fill="var(--illo-ink, #12262b)"/>
<path id="Vector_81" d="M71.8601 49.3881C65.7841 49.5801 66.2881 58.4681 69.5721 60.9481C69.5721 60.9481 67.9721 58.7961 68.9001 56.9241C68.9001 56.9241 70.1001 54.0281 69.7001 51.8001C70.6395 51.3925 71.6369 51.1347 72.6561 51.0361C73.3401 51.8681 75.0561 54.3961 77.3041 54.3441C77.4339 54.7361 77.5342 55.1372 77.6041 55.5441C77.6041 55.5441 77.9441 49.2001 71.8601 49.3881Z" fill="var(--illo-ink, #12262b)"/>
<path id="Vector_82" d="M76.2959 59.8962C75.9522 60.0791 75.5701 60.178 75.1807 60.185C74.7914 60.1919 74.406 60.1067 74.0559 59.9362C74.0461 59.9308 74.0375 59.9234 74.0305 59.9146C74.0236 59.9058 74.0185 59.8957 74.0155 59.8849C74.0125 59.8741 74.0117 59.8628 74.0132 59.8517C74.0146 59.8406 74.0183 59.8299 74.0239 59.8202C74.0285 59.8106 74.0351 59.8021 74.0432 59.7952C74.0512 59.7884 74.0607 59.7832 74.0708 59.7802C74.081 59.7772 74.0917 59.7764 74.1022 59.7777C74.1128 59.7791 74.1229 59.7827 74.1319 59.7882C74.4579 59.9442 74.8159 60.0215 75.1772 60.0138C75.5385 60.0062 75.8929 59.9138 76.2119 59.7442C76.2311 59.734 76.2535 59.7316 76.2744 59.7376C76.2953 59.7436 76.313 59.7574 76.3239 59.7762C76.3339 59.7948 76.3362 59.8165 76.3302 59.8368C76.3242 59.857 76.3104 59.874 76.2919 59.8842L76.2959 59.8962Z" fill="var(--illo-ink, #12262b)"/>
<path id="Vector_83" d="M69.5201 57.6401C69.4636 57.2329 69.2477 56.8648 68.92 56.6166C68.5923 56.3684 68.1795 56.2603 67.7721 56.3161C66.6841 56.4921 66.2841 58.7721 69.0401 59.1641C69.4321 59.2201 69.6321 58.8241 69.5201 57.6401Z" fill="#c94a24"/>
<path id="Vector_84" d="M69.1082 73.8042L72.7882 73.2842C72.7882 73.2842 73.9882 77.2082 71.8042 77.6282C69.4162 78.0922 69.1082 73.8042 69.1082 73.8042Z" fill="#e8623a"/>
<path id="Vector_85" d="M82.9721 94.948C82.7881 93.132 82.5001 90.66 82.1321 88.716L82.1681 86.572L68.4601 87.772L68.3361 89.772C68.0161 90.364 66.6161 93.296 65.9841 100.468C68.8349 101.502 71.8673 101.941 74.8943 101.758C77.9213 101.575 80.8787 100.774 83.5841 99.404L82.9721 94.948Z" fill="var(--illo-ink, #12262b)"/>
</g>
<g id="freepik--Character--inject-61">
<path id="Vector_86" d="M117.736 88.3279L110.764 90.0959C110.225 89.7627 109.586 89.6322 108.96 89.7279C107.972 89.9119 105.5 91.9319 105.596 92.2279C105.692 92.5239 108.672 93.8959 109.1 93.7839C110.636 93.3839 112.22 91.5959 112.22 91.5959L118.452 90.3119L117.736 88.3279Z" fill="#c94a24"/>
<path id="Vector_87" d="M135.2 63.2558C133.784 64.7638 130.032 64.6358 130.032 64.6358C130.032 64.6358 128.796 64.7438 128.488 63.6958C129.844 63.3598 130.052 62.3838 130.264 61.5398C130.368 61.0183 130.368 60.4813 130.264 59.9598C130.22 59.6657 130.159 59.3745 130.08 59.0878L134.436 55.2998C134.032 57.5998 133.6 61.7358 135.2 63.2558Z" fill="#c94a24"/>
<path id="Vector_88" opacity="0.2" d="M133.564 57.5598C133.6 60.3598 131.38 61.2958 130.276 61.5398C130.38 61.0183 130.38 60.4813 130.276 59.9598L133.564 57.5598Z" fill="black"/>
<path id="Vector_89" d="M133.924 58.1759C133.5 58.9254 132.842 59.5149 132.051 59.8539C131.259 60.1928 130.379 60.2624 129.544 60.0519C128.458 59.8028 127.509 59.1472 126.892 58.2199C126.803 58.0919 126.723 57.9583 126.652 57.8199C125.312 55.2679 124.588 50.6799 127.244 48.7279C127.828 48.2897 128.515 48.009 129.239 47.9127C129.963 47.8164 130.699 47.9078 131.377 48.1781C132.056 48.4484 132.653 48.8885 133.112 49.4562C133.572 50.0239 133.877 50.7001 134 51.4199C134.576 54.4799 135.064 56.2519 133.924 58.1759Z" fill="#c94a24"/>
<path id="Vector_90" d="M129.452 53.6199C129.494 53.7132 129.499 53.8191 129.466 53.9158C129.432 54.0125 129.363 54.0928 129.272 54.1399C129.112 54.1799 128.932 54.0119 128.872 53.7679C128.812 53.5239 128.892 53.2879 129.052 53.2479C129.212 53.2079 129.388 53.3719 129.452 53.6199Z" fill="var(--illo-ink, #12262b)"/>
<path id="Vector_91" d="M126.752 54.1879C126.832 54.4279 126.732 54.6679 126.576 54.7079C126.42 54.7479 126.232 54.5799 126.176 54.3359C126.12 54.0919 126.196 53.8559 126.356 53.8159C126.516 53.7759 126.692 53.9559 126.752 54.1879Z" fill="var(--illo-ink, #12262b)"/>
<path id="Vector_92" d="M127.724 54.2639C127.647 55.0679 127.457 55.857 127.16 56.6079C127.56 56.7679 128.12 56.5159 128.5 56.3079L127.724 54.2639Z" fill="#c94a24"/>
<path id="Vector_93" d="M130.252 52.3079C130.227 52.3177 130.199 52.3207 130.173 52.3165C130.146 52.3123 130.121 52.301 130.1 52.2839C129.957 52.1637 129.787 52.0787 129.605 52.0357C129.423 51.9926 129.234 51.9927 129.052 52.0358C129.033 52.0441 129.013 52.0482 128.992 52.0481C128.972 52.048 128.951 52.0436 128.932 52.0352C128.914 52.0267 128.897 52.0145 128.883 51.9992C128.869 51.9839 128.859 51.9659 128.852 51.9463C128.846 51.9268 128.844 51.9061 128.846 51.8856C128.848 51.8651 128.854 51.8453 128.864 51.8273C128.874 51.8094 128.888 51.7938 128.905 51.7815C128.921 51.7692 128.94 51.7604 128.96 51.7559C129.188 51.6977 129.427 51.6942 129.657 51.7456C129.887 51.797 130.102 51.902 130.284 52.0519C130.3 52.0636 130.313 52.0784 130.322 52.0952C130.332 52.1121 130.339 52.1307 130.341 52.15C130.344 52.1694 130.343 52.189 130.338 52.2079C130.333 52.2267 130.324 52.2444 130.312 52.2598C130.295 52.2791 130.275 52.2953 130.252 52.3079Z" fill="var(--illo-ink, #12262b)"/>
<path id="Vector_94" d="M129.072 57.52C129.436 57.4811 129.786 57.3564 130.092 57.1561C130.399 56.9559 130.654 56.6858 130.836 56.368C130.841 56.3588 130.843 56.3488 130.844 56.3385C130.845 56.3283 130.843 56.318 130.84 56.3082C130.837 56.2985 130.831 56.2896 130.825 56.282C130.818 56.2744 130.809 56.2682 130.8 56.264C130.791 56.2592 130.782 56.2562 130.772 56.2552C130.762 56.2543 130.752 56.2553 130.743 56.2583C130.734 56.2613 130.725 56.2662 130.717 56.2727C130.71 56.2791 130.704 56.2871 130.7 56.296C130.527 56.5883 130.289 56.8363 130.003 57.0203C129.718 57.2043 129.393 57.3192 129.056 57.356C129.045 57.3564 129.035 57.359 129.026 57.3636C129.017 57.3681 129.008 57.3745 129.002 57.3824C128.995 57.3903 128.99 57.3994 128.987 57.4093C128.984 57.4192 128.983 57.4297 128.984 57.44C128.985 57.45 128.988 57.4597 128.993 57.4685C128.997 57.4774 129.004 57.4852 129.012 57.4915C129.019 57.4978 129.028 57.5025 129.038 57.5053C129.048 57.5082 129.058 57.5091 129.068 57.508L129.072 57.52Z" fill="var(--illo-ink, #12262b)"/>
<path id="Vector_95" d="M125.392 53.4719C125.368 53.4913 125.338 53.5013 125.308 53.4999C125.289 53.4966 125.271 53.4895 125.254 53.4789C125.238 53.4684 125.224 53.4547 125.213 53.4386C125.202 53.4226 125.195 53.4045 125.191 53.3855C125.188 53.3664 125.188 53.3469 125.192 53.3279C125.235 53.0954 125.333 52.8764 125.478 52.6893C125.622 52.5022 125.81 52.3523 126.024 52.2519C126.042 52.2448 126.061 52.2414 126.081 52.2417C126.1 52.2421 126.12 52.2463 126.137 52.2541C126.155 52.2619 126.171 52.2732 126.185 52.2872C126.198 52.3012 126.209 52.3178 126.216 52.3359C126.223 52.3541 126.227 52.3734 126.226 52.3929C126.226 52.4123 126.222 52.4315 126.214 52.4494C126.206 52.4672 126.195 52.4833 126.181 52.4968C126.167 52.5103 126.15 52.5209 126.132 52.5279C125.965 52.6118 125.819 52.7336 125.707 52.8836C125.596 53.0336 125.52 53.2077 125.488 53.3919C125.478 53.4112 125.465 53.4282 125.448 53.442C125.432 53.4557 125.413 53.4659 125.392 53.4719Z" fill="var(--illo-ink, #12262b)"/>
<path id="Vector_96" d="M135.936 53.5599C135.772 54.3279 135.312 55.0004 134.656 55.4319C133.78 55.9919 133.056 55.2839 133.024 54.2999C133.024 53.4239 133.456 52.0479 134.46 51.8999C135.464 51.7519 136.12 52.6159 135.936 53.5599Z" fill="#c94a24"/>
<path id="Vector_97" d="M122.16 65.632C120.661 67.0592 119.559 68.8509 118.96 70.832C118.208 73.232 117.504 78.884 117.16 81.952C117.088 82.5444 116.827 83.0978 116.415 83.5301C116.004 83.9624 115.464 84.2506 114.876 84.352L106.452 85.82L107.124 90.104L117.796 89.076C118.938 88.966 120.014 88.4905 120.864 87.7201C121.715 86.9498 122.294 85.9257 122.516 84.8C123.168 81.5 124.04 76.716 124.436 72.928C125.108 66.492 124.4 64.968 122.16 65.632Z" fill="#e8623a"/>
<path id="Vector_98" opacity="0.1" d="M122.16 65.632C120.661 67.0592 119.559 68.8509 118.96 70.832C118.208 73.232 117.504 78.884 117.16 81.952C117.088 82.5444 116.827 83.0978 116.415 83.5301C116.004 83.9624 115.464 84.2506 114.876 84.352L106.452 85.82L107.124 90.104L117.796 89.076C118.938 88.966 120.014 88.4905 120.864 87.7201C121.715 86.9498 122.294 85.9257 122.516 84.8C123.168 81.5 124.04 76.716 124.436 72.928C125.108 66.492 124.4 64.968 122.16 65.632Z" fill="black"/>
<path id="Vector_99" d="M116.244 160.84L113.076 160.06L114.88 153.272L118.048 154.052L116.244 160.84Z" fill="#c94a24"/>
<path id="Vector_100" d="M113.108 158.964L116.708 160.26C116.767 160.281 116.817 160.322 116.849 160.376C116.881 160.43 116.893 160.494 116.884 160.556L116.52 163.4C116.503 163.522 116.438 163.633 116.34 163.708C116.242 163.783 116.118 163.816 115.996 163.8C115.961 163.795 115.928 163.785 115.896 163.772C114.74 163.336 113.92 162.972 112.46 162.432C111.56 162.104 108.812 161.232 107.572 160.772C106.332 160.312 106.612 159.04 107.172 159.108C109.632 159.436 111.596 159.368 112.56 158.976C112.735 158.903 112.93 158.899 113.108 158.964Z" fill="var(--illo-ink, #12262b)"/>
<path id="Vector_101" d="M111.94 159.128C111.733 159.073 111.551 158.947 111.428 158.772C111.391 158.707 111.371 158.633 111.371 158.558C111.371 158.483 111.391 158.409 111.428 158.344C111.442 158.303 111.467 158.266 111.501 158.239C111.535 158.212 111.577 158.196 111.62 158.192C112.02 158.14 112.752 159.072 112.82 159.18C112.829 159.191 112.834 159.205 112.834 159.22C112.834 159.234 112.829 159.248 112.82 159.26C112.814 159.273 112.804 159.285 112.791 159.292C112.778 159.299 112.763 159.302 112.748 159.3C112.473 159.272 112.202 159.214 111.94 159.128ZM111.72 158.356C111.688 158.348 111.655 158.348 111.624 158.356C111.624 158.356 111.572 158.356 111.548 158.42C111.525 158.464 111.513 158.514 111.513 158.564C111.513 158.614 111.525 158.663 111.548 158.708C111.827 158.977 112.197 159.131 112.584 159.14C112.348 158.826 112.055 158.56 111.72 158.356Z" fill="#e8623a"/>
<path id="Vector_102" d="M112.736 159.296H112.7C112.456 159.02 112.1 158.156 112.272 157.868C112.301 157.82 112.346 157.783 112.399 157.764C112.452 157.745 112.511 157.745 112.564 157.764C112.62 157.776 112.673 157.799 112.719 157.833C112.765 157.867 112.804 157.91 112.832 157.96C113.072 158.36 112.832 159.24 112.832 159.284C112.828 159.297 112.821 159.308 112.811 159.316C112.801 159.325 112.789 159.33 112.776 159.332C112.767 159.329 112.759 159.325 112.752 159.318C112.745 159.312 112.74 159.305 112.736 159.296ZM112.572 157.884H112.54C112.448 157.852 112.424 157.904 112.412 157.92C112.304 158.1 112.504 158.72 112.724 159.068C112.832 158.726 112.832 158.358 112.724 158.016C112.709 157.985 112.688 157.957 112.662 157.934C112.635 157.911 112.605 157.894 112.572 157.884Z" fill="#e8623a"/>
<path id="Vector_103" opacity="0.2" d="M118.048 154.052L114.88 153.272L113.952 156.776L117.12 157.552L118.048 154.052Z" fill="black"/>
<path id="Vector_104" d="M137.22 160.808L133.98 161.192L133.28 154.204L136.52 153.82L137.22 160.808Z" fill="#c94a24"/>
<path id="Vector_105" d="M133.624 160.156L137.444 160.104C137.507 160.104 137.568 160.126 137.618 160.165C137.667 160.204 137.702 160.259 137.716 160.32L138.372 163.12C138.398 163.24 138.376 163.366 138.31 163.47C138.244 163.574 138.14 163.648 138.02 163.676C137.985 163.68 137.951 163.68 137.916 163.676C136.68 163.676 135.78 163.608 134.228 163.628C133.272 163.628 130.392 163.776 129.072 163.796C127.752 163.816 127.56 162.508 128.1 162.384C130.5 161.824 132.332 161.068 133.1 160.36C133.241 160.226 133.429 160.153 133.624 160.156Z" fill="var(--illo-ink, #12262b)"/>
<path id="Vector_106" d="M132.592 160.72C132.378 160.741 132.163 160.687 131.984 160.568C131.925 160.521 131.879 160.459 131.851 160.389C131.823 160.319 131.814 160.243 131.824 160.168C131.822 160.124 131.832 160.081 131.854 160.043C131.876 160.006 131.909 159.975 131.948 159.956C132.296 159.772 133.32 160.384 133.432 160.452C133.445 160.459 133.455 160.469 133.462 160.482C133.468 160.495 133.47 160.51 133.468 160.524C133.467 160.539 133.46 160.554 133.45 160.565C133.44 160.577 133.427 160.585 133.412 160.588C133.145 160.664 132.869 160.708 132.592 160.72ZM132.116 160.076C132.083 160.072 132.049 160.079 132.02 160.096C132 160.096 131.976 160.124 131.972 160.184C131.966 160.234 131.973 160.284 131.991 160.331C132.009 160.377 132.038 160.419 132.076 160.452C132.431 160.607 132.831 160.621 133.196 160.492C132.866 160.285 132.499 160.144 132.116 160.076Z" fill="#e8623a"/>
<path id="Vector_107" d="M133.392 160.6H133.356C133.032 160.428 132.396 159.744 132.456 159.4C132.465 159.344 132.494 159.294 132.537 159.257C132.581 159.22 132.635 159.2 132.692 159.2C132.748 159.192 132.805 159.196 132.86 159.212C132.914 159.228 132.965 159.255 133.008 159.292C133.376 159.584 133.464 160.492 133.468 160.528C133.468 160.542 133.465 160.555 133.459 160.567C133.453 160.579 133.443 160.589 133.432 160.596L133.392 160.6ZM132.744 159.332H132.708C132.612 159.332 132.604 159.388 132.604 159.408C132.564 159.612 132.972 160.132 133.3 160.372C133.27 160.012 133.131 159.67 132.9 159.392C132.857 159.353 132.802 159.332 132.744 159.332Z" fill="#e8623a"/>
<path id="Vector_108" opacity="0.2" d="M136.52 153.82L133.28 154.204L133.644 157.808L136.884 157.424L136.52 153.82Z" fill="black"/>
<path id="Vector_109" d="M122.152 96.9439C122.152 96.9439 114 136.8 113.72 152.104L119.152 154.532C119.152 154.532 123.576 137.24 125.012 127.524C125.012 127.524 128.82 119.808 129.844 113.524C129.844 113.524 129.632 141.124 132.492 155.688L137.588 155.288C137.588 155.288 142.728 103.512 141.8 95.2239L122.152 96.9439Z" fill="#e8623a"/>
<path id="Vector_110" opacity="0.6" d="M122.152 96.9439C122.152 96.9439 114 136.8 113.72 152.104L119.152 154.532C119.152 154.532 123.576 137.24 125.012 127.524C125.012 127.524 128.82 119.808 129.844 113.524C129.844 113.524 129.632 141.124 132.492 155.688L137.588 155.288C137.588 155.288 142.728 103.512 141.8 95.2239L122.152 96.9439Z" fill="var(--illo-paper, #f2ebe1)"/>
<path id="Vector_111" opacity="0.2" d="M128.96 103.464C128.96 103.464 128.356 112.94 129.216 116.42C129.476 115.44 129.692 114.464 129.844 113.52L128.96 103.464Z" fill="black"/>
<path id="Vector_112" d="M131.844 156.844L138.84 155.804L138.624 153.868L131.352 154.82L131.844 156.844Z" fill="#e8623a"/>
<path id="Vector_113" d="M112.8 153.596L119.556 155.676L120.2 153.84L113.228 151.556L112.8 153.596Z" fill="#e8623a"/>
<path id="Vector_114" d="M122.16 65.632C122.16 65.632 123.024 63.924 130.616 63.484C138.208 63.044 141.6 64.168 141.6 64.168C141.6 64.168 140.912 80.24 141.792 95.228C141.792 95.228 129.096 99.752 122.144 96.944C122.152 96.944 116.944 77.532 122.16 65.632Z" fill="#e8623a"/>
<path id="Vector_115" opacity="0.2" d="M133.336 63.3879C132.496 63.3879 131.592 63.4279 130.616 63.4839C130.028 63.5199 129.488 63.5599 128.98 63.6079C128.98 63.6079 129.628 64.8359 130.616 64.8359C131.154 64.8376 131.683 64.7062 132.158 64.4536C132.632 64.201 133.037 63.8349 133.336 63.3879Z" fill="black"/>
<path id="Vector_116" opacity="0.3" d="M141.404 84.272L129.844 90.116C129.844 90.116 137.132 90.34 141.488 87.976C141.453 86.7253 141.425 85.4906 141.404 84.272Z" fill="black"/>
<path id="Vector_117" opacity="0.1" d="M130.468 67.9839L134.576 86.2599L133.664 88.6239L130.468 67.9839Z" fill="black"/>
<path id="Vector_118" d="M130.5 68.4951L108.866 71.7729L111.999 92.4481L133.632 89.1703L130.5 68.4951Z" fill="#e8623a"/>
<path id="Vector_119" opacity="0.1" d="M130.5 68.4951L108.866 71.7729L111.999 92.4481L133.632 89.1703L130.5 68.4951Z" fill="var(--illo-paper, #f2ebe1)"/>
<path id="Vector_120" d="M114.197 70.4984L97.4604 73.0894L100.655 93.7275L117.392 91.1365L114.197 70.4984Z" fill="#e8623a"/>
<path id="Vector_121" opacity="0.3" d="M114.197 70.4984L97.4604 73.0894L100.655 93.7275L117.392 91.1365L114.197 70.4984Z" fill="var(--illo-paper, #f2ebe1)"/>
<path id="Vector_122" opacity="0.3" d="M108.2 71.4244L103.464 72.1575L104.325 77.7153L109.06 76.9822L108.2 71.4244Z" fill="var(--illo-paper, #f2ebe1)"/>
<path id="Vector_123" opacity="0.1" d="M125.87 68.6934L121.134 69.4265L121.995 74.9843L126.73 74.2512L125.87 68.6934Z" fill="black"/>
<path id="Vector_124" opacity="0.2" d="M115.682 87.012L110.508 87.813L110.995 90.9635L116.17 90.1624L115.682 87.012Z" fill="var(--illo-paper, #f2ebe1)"/>
<path id="Vector_125" opacity="0.2" d="M123.764 89.9518L123.232 89.2478L121.516 89.6158C121.425 89.9079 121.389 90.2146 121.412 90.5198L123.812 90.1518L123.764 89.9518Z" fill="var(--illo-ink, #12262b)"/>
<path id="Vector_126" d="M120.8 81.288C120.4 81.424 119.84 81.416 119.784 80.888C119.74 80.448 120.26 80.088 120.656 80.16C120.687 80.1653 120.718 80.1582 120.744 80.1402C120.769 80.1222 120.787 80.0948 120.792 80.064C120.797 80.0332 120.79 80.0016 120.772 79.9761C120.754 79.9506 120.727 79.9333 120.696 79.928C120.554 79.9081 120.41 79.9186 120.273 79.9588C120.135 79.9989 120.008 80.0678 119.9 80.1609C119.791 80.254 119.704 80.3691 119.643 80.4986C119.582 80.6281 119.55 80.769 119.548 80.912C119.616 81.608 120.348 81.712 120.888 81.512C121.044 81.46 120.96 81.236 120.8 81.288Z" fill="var(--illo-paper, #f2ebe1)"/>
<path id="Vector_127" d="M121.2 79.088C121.164 78.94 120.928 78.964 120.96 79.112C121.133 79.8747 121.303 80.636 121.468 81.396C121.5 81.544 121.736 81.524 121.704 81.372L121.2 79.088Z" fill="var(--illo-paper, #f2ebe1)"/>
<path id="Vector_128" d="M122.62 79.5358C122.604 79.5402 122.59 79.5501 122.58 79.5638C121.512 79.7678 122.14 81.4358 123.132 81.1278C123.336 81.0392 123.5 80.8782 123.592 80.6758C123.685 80.4734 123.699 80.244 123.632 80.0318C123.608 79.9264 123.561 79.8277 123.494 79.7429C123.427 79.6582 123.341 79.5895 123.244 79.5419C123.147 79.4943 123.041 79.4691 122.933 79.4681C122.825 79.467 122.718 79.4902 122.62 79.5358ZM123.148 80.8598C122.448 81.2598 121.828 79.9318 122.624 79.7958C122.648 79.7928 122.671 79.7815 122.688 79.7638C123.4 79.4678 123.692 80.5478 123.148 80.8598Z" fill="var(--illo-paper, #f2ebe1)"/>
<path id="Vector_129" d="M124.616 78.904L124.18 78.98L124.108 78.508C124.084 78.356 123.848 78.38 123.872 78.532C123.896 78.684 123.92 78.856 123.948 79.02L123.516 79.092C123.368 79.12 123.388 79.356 123.54 79.332L123.984 79.256L124.248 80.972C124.272 81.12 124.508 81.096 124.484 80.944C124.396 80.368 124.304 79.792 124.216 79.216L124.644 79.14C124.8 79.116 124.768 78.876 124.616 78.904Z" fill="var(--illo-paper, #f2ebe1)"/>
<path id="Vector_130" d="M126.288 79.2198C126.143 79.1338 125.975 79.0915 125.807 79.0978C125.638 79.1042 125.474 79.1591 125.336 79.2558C125.28 78.9438 125.22 78.6318 125.156 78.3198C125.124 78.1718 124.888 78.1958 124.92 78.3478C125.083 79.1478 125.216 79.9478 125.32 80.7478C125.344 80.8998 125.58 80.8758 125.556 80.7238C125.5 80.3238 125.436 79.9238 125.368 79.5238C125.43 79.4623 125.504 79.4143 125.585 79.3827C125.667 79.3512 125.754 79.3369 125.841 79.3406C125.928 79.3444 126.013 79.3662 126.092 79.4046C126.17 79.443 126.24 79.4972 126.296 79.5638C126.441 79.8688 126.516 80.2022 126.516 80.5398C126.523 80.5676 126.54 80.5918 126.564 80.6082C126.587 80.6246 126.616 80.632 126.644 80.6291C126.673 80.6262 126.699 80.6131 126.719 80.5924C126.739 80.5716 126.751 80.5444 126.752 80.5158C126.728 80.0838 126.712 79.4478 126.288 79.2198Z" fill="var(--illo-paper, #f2ebe1)"/>
<path id="Vector_131" d="M127.296 78.7639C127.2 78.8149 127.116 78.8859 127.049 78.972C126.982 79.0582 126.935 79.1575 126.909 79.2634C126.884 79.3693 126.881 79.4794 126.902 79.5864C126.922 79.6934 126.965 79.7948 127.028 79.8839C127.08 79.9921 127.153 80.0884 127.244 80.1668C127.335 80.2452 127.441 80.3039 127.556 80.3392C127.67 80.3746 127.791 80.3858 127.91 80.3721C128.029 80.3584 128.144 80.3202 128.248 80.2599C128.384 80.1919 128.3 79.9679 128.164 80.0359C128.053 80.1152 127.918 80.1541 127.782 80.1461C127.646 80.1381 127.517 80.0836 127.416 79.9919C127.338 79.9206 127.273 79.8368 127.224 79.7439C127.576 79.7719 128.22 79.6999 128.236 79.3159C128.256 78.8239 127.692 78.6079 127.296 78.7639ZM127.968 79.3519C127.932 79.4079 127.768 79.4439 127.704 79.4639C127.523 79.5224 127.33 79.5334 127.144 79.4959C127.132 79.4316 127.133 79.3657 127.147 79.3018C127.16 79.2379 127.187 79.1774 127.224 79.1239C127.281 79.0524 127.359 79.0003 127.447 78.9745C127.535 78.9488 127.629 78.9506 127.716 78.9799C127.832 79.0079 128.08 79.1999 127.968 79.3519Z" fill="var(--illo-paper, #f2ebe1)"/>
<path id="Vector_132" d="M130 79.2278C129.934 79.1138 129.831 79.0254 129.708 78.9768C129.586 78.9282 129.45 78.9222 129.324 78.9598C129.132 78.9998 128.668 79.1918 128.772 78.8118C128.836 78.5598 129.172 78.4638 129.408 78.4838C129.56 78.4838 129.6 78.2638 129.444 78.2478C129.044 78.2118 128.272 78.5718 128.52 79.0958C128.636 79.3398 128.92 79.3118 129.152 79.2558C129.279 79.2038 129.415 79.1779 129.552 79.1798C129.602 79.1833 129.651 79.2007 129.692 79.23C129.733 79.2594 129.765 79.2995 129.784 79.3459C129.804 79.3924 129.81 79.4433 129.802 79.4931C129.794 79.5429 129.773 79.5895 129.74 79.6278C129.572 79.8478 129.244 79.8078 129.004 79.7678C128.974 79.765 128.944 79.7736 128.92 79.792C128.896 79.8105 128.879 79.8374 128.874 79.8672C128.869 79.8971 128.876 79.9278 128.892 79.9532C128.909 79.9785 128.935 79.9966 128.964 80.0038C129.114 80.0464 129.271 80.0552 129.425 80.0296C129.578 80.004 129.724 79.9447 129.852 79.8558C129.939 79.7796 130 79.6781 130.026 79.5655C130.053 79.4529 130.044 79.3349 130 79.2278Z" fill="var(--illo-paper, #f2ebe1)"/>
<path id="Vector_133" d="M133.692 85.8318L126.704 87.5358C126.169 87.1928 125.53 87.051 124.9 87.1358C123.916 87.3118 121.424 89.3078 121.516 89.6038C121.608 89.8998 123.916 91.7078 124.344 91.5758C124.772 91.4438 127.464 89.5398 127.464 89.5398L134.12 88.9838L133.692 85.8318Z" fill="#c94a24"/>
<path id="Vector_134" d="M141.156 64.1439C141.156 64.1439 138.22 64.9239 138.636 70.3719C138.82 72.7399 138.912 75.2679 138.96 77.3719C138.989 78.7794 138.617 80.1662 137.888 81.3703C137.158 82.5744 136.101 83.5461 134.84 84.1719L129.104 86.5159L129.844 90.1159C129.844 90.1159 138.18 89.3519 141.112 87.0079C144.044 84.6639 145.064 79.6599 144.588 75.5119C143.924 69.7519 144.144 63.9119 141.156 64.1439Z" fill="#e8623a"/>
<path id="Vector_135" opacity="0.1" d="M141.156 64.1439C141.156 64.1439 138.22 64.9239 138.636 70.3719C138.82 72.7399 138.912 75.2679 138.96 77.3719C138.989 78.7794 138.617 80.1662 137.888 81.3703C137.158 82.5744 136.101 83.5461 134.84 84.1719L129.104 86.5159L129.844 90.1159C129.844 90.1159 138.18 89.3519 141.112 87.0079C144.044 84.6639 145.064 79.6599 144.588 75.5119C143.924 69.7519 144.144 63.9119 141.156 64.1439Z" fill="black"/>
<path id="Vector_136" d="M129.648 85.604L130.136 90.612L128.788 90.74L128.072 86.052L129.648 85.604Z" fill="#e8623a"/>
<path id="Vector_137" opacity="0.6" d="M129.648 85.604L130.136 90.612L128.788 90.74L128.072 86.052L129.648 85.604Z" fill="var(--illo-paper, #f2ebe1)"/>
<path id="Vector_138" opacity="0.4" d="M136.698 71.8501L132.049 72.2659L132.115 73.0069L136.764 72.5911L136.698 71.8501Z" fill="var(--illo-paper, #f2ebe1)"/>
<path id="Vector_139" d="M130.616 63.4839L132.12 65.4839L135.292 63.3919V63.1999C135.3 63.032 135.267 62.8648 135.198 62.7118C135.128 62.5589 135.023 62.4245 134.892 62.3199C134.74 62.2265 134.568 62.1715 134.39 62.1597C134.213 62.1478 134.035 62.1795 133.872 62.2519L130.616 63.4839Z" fill="#e8623a"/>
<path id="Vector_140" d="M128.5 63.6438L128.872 63.0278C129.34 62.4758 129.712 62.7598 129.712 62.7598L130.616 63.4838L129.296 65.4838L128.5 63.6438Z" fill="#e8623a"/>
<path id="Vector_141" opacity="0.6" d="M130.616 63.4839L132.12 65.4839L135.292 63.3919V63.1999C135.3 63.032 135.267 62.8648 135.198 62.7118C135.128 62.5589 135.023 62.4245 134.892 62.3199C134.74 62.2265 134.568 62.1715 134.39 62.1597C134.213 62.1478 134.035 62.1795 133.872 62.2519L130.616 63.4839Z" fill="var(--illo-paper, #f2ebe1)"/>
<path id="Vector_142" opacity="0.6" d="M128.5 63.6438L128.872 63.0278C129.34 62.4758 129.712 62.7598 129.712 62.7598L130.616 63.4838L129.296 65.4838L128.5 63.6438Z" fill="var(--illo-paper, #f2ebe1)"/>
<path id="Vector_143" d="M135.856 53.4799C136.068 52.1119 135.12 51.9239 134.496 52.0879C133.872 52.2519 133.196 53.2439 133.196 53.2439C132.588 52.2599 132.244 49.7679 132.244 49.7679C131.471 50.195 130.61 50.4368 129.727 50.4743C128.845 50.5117 127.966 50.3439 127.16 49.9839C126.849 50.8242 126.268 51.5376 125.508 52.0119C125.508 52.0119 124.38 51.4959 125.008 48.9039C125.72 45.9559 130.148 43.1039 134.608 46.0439C139.068 48.9839 136.368 54.4439 136.368 54.4439C136.368 54.4439 135.356 56.2319 134.46 56.9039C134.536 56.3733 134.536 55.8345 134.46 55.3039C134.823 55.1364 135.141 54.8827 135.384 54.5648C135.627 54.247 135.789 53.8746 135.856 53.4799Z" fill="var(--illo-ink, #12262b)"/>
<path id="Vector_144" d="M126.632 49.252C126.89 49.5671 127.189 49.8468 127.52 50.084C127.857 50.3246 128.223 50.5234 128.608 50.676C128.993 50.8275 129.397 50.9258 129.808 50.968C130.229 51.0079 130.654 50.9959 131.072 50.932C130.656 51.0291 130.231 51.0748 129.804 51.068C129.371 51.0601 128.942 50.9914 128.528 50.864C128.106 50.7399 127.703 50.561 127.328 50.332C126.947 50.1038 126.599 49.8253 126.292 49.504L126.632 49.252Z" fill="var(--illo-ink, #12262b)"/>
</g>
<g id="freepik--Love--inject-61">
<path id="Vector_145" d="M178.068 71.856C174.828 68.96 171.044 72.888 171.044 72.888C171.044 72.888 167.256 68.96 164.02 71.856C159.404 75.988 166.116 83.388 171.044 84.868C175.972 83.388 182.684 76 178.068 71.856Z" fill="#e8623a"/>
<path id="Vector_146" opacity="0.6" d="M178.068 71.856C174.828 68.96 171.044 72.888 171.044 72.888C171.044 72.888 167.256 68.96 164.02 71.856C159.404 75.988 166.116 83.388 171.044 84.868C175.972 83.388 182.684 76 178.068 71.856Z" fill="var(--illo-paper, #f2ebe1)"/>
<path id="Vector_147" d="M112.668 33.336C109.428 30.44 105.644 34.368 105.644 34.368C105.644 34.368 101.856 30.44 98.62 33.336C94.004 37.464 100.716 44.864 105.644 46.348C110.572 44.864 117.284 37.464 112.668 33.336Z" fill="#e8623a"/>
<path id="Vector_148" opacity="0.6" d="M112.668 33.336C109.428 30.44 105.644 34.368 105.644 34.368C105.644 34.368 101.856 30.44 98.62 33.336C94.004 37.464 100.716 44.864 105.644 46.348C110.572 44.864 117.284 37.464 112.668 33.336Z" fill="var(--illo-paper, #f2ebe1)"/>
<path id="Vector_149" d="M150.736 45.3599C149.412 44.1599 147.864 45.7839 147.864 45.7839C147.864 45.7839 146.32 44.1839 144.996 45.3599C143.108 47.0479 145.852 50.0719 147.864 50.6799C149.88 50.0719 152.62 47.0479 150.736 45.3599Z" fill="#e8623a"/>
<path id="Vector_150" opacity="0.6" d="M150.736 45.3599C149.412 44.1599 147.864 45.7839 147.864 45.7839C147.864 45.7839 146.32 44.1839 144.996 45.3599C143.108 47.0479 145.852 50.0719 147.864 50.6799C149.88 50.0719 152.62 47.0479 150.736 45.3599Z" fill="var(--illo-paper, #f2ebe1)"/>
<path id="Vector_151" d="M29.7881 77.1441C28.4641 75.9441 26.9201 77.5681 26.9201 77.5681C26.9201 77.5681 25.3721 75.9681 24.0481 77.1441C22.1641 78.8321 24.9041 81.8561 26.9201 82.4601C28.9321 81.8561 31.6761 78.8321 29.7881 77.1441Z" fill="#e8623a"/>
<path id="Vector_152" opacity="0.6" d="M29.7881 77.1441C28.4641 75.9441 26.9201 77.5681 26.9201 77.5681C26.9201 77.5681 25.3721 75.9681 24.0481 77.1441C22.1641 78.8321 24.9041 81.8561 26.9201 82.4601C28.9321 81.8561 31.6761 78.8321 29.7881 77.1441Z" fill="var(--illo-paper, #f2ebe1)"/>
</g>
</g>
</g>
</g>
</g>
</g>
</g>
</g>
</svg>
