<svg width="200" height="200" viewBox="0 0 200 200" fill="none" xmlns="http://www.w3.org/2000/svg">
<rect width="200" height="200" fill="none"/>
<g id="Homepage / Donators hero">
<g id="Homepage">

<g id="Frame 19">
<g id="Frame 17">
<g id="Frame 1686557085">


<g id="Secure data-pana 1">
<g id="freepik--background-complete--inject-102">
<path id="Vector" d="M39.6961 160.024C45.2321 155.492 45.9481 147.876 45.1641 141.148C45.0321 140.024 45.0601 138.828 44.4361 137.884C43.8121 136.94 42.4921 136.368 41.5081 136.928C40.7081 137.392 40.4041 138.396 39.9961 139.24C39.4475 140.374 38.5908 141.33 37.5241 142C36.8281 142.432 35.9481 142.732 35.1961 142.4C34.1681 141.944 33.9441 140.612 33.8601 139.492C33.7001 137.404 33.5427 135.315 33.3881 133.224C33.3617 132.098 33.1537 130.984 32.7721 129.924C32.3321 128.892 31.4721 127.968 30.3721 127.76C29.2721 127.552 27.9721 128.272 27.8441 129.388C27.8389 129.856 27.8656 130.324 27.9241 130.788C27.9468 131.02 27.9014 131.254 27.7934 131.461C27.6854 131.667 27.5196 131.838 27.3161 131.952C26.8761 132.12 26.3961 131.84 26.0281 131.552C24.7641 130.52 23.8481 129.128 22.9881 127.74C22.1281 126.352 21.2841 124.94 20.1201 123.78C18.9561 122.62 17.4041 121.78 15.7721 121.82C14.1401 121.86 12.4881 123 12.2081 124.62C11.9281 126.24 12.9881 127.76 14.1081 128.952C15.7762 130.713 17.6891 132.224 19.7881 133.44C20.1903 133.619 20.5251 133.922 20.7441 134.304C21.0521 135.032 20.3961 135.832 19.6721 136.14C18.8481 136.488 17.9201 136.476 17.0441 136.652C16.1681 136.828 15.2401 137.292 14.9721 138.144C14.6041 139.344 15.6721 140.448 16.6881 141.156C18.7356 142.574 21.0093 143.633 23.4121 144.288C24.2721 144.52 25.1721 144.712 25.8921 145.236C26.6121 145.76 27.0921 146.732 26.7601 147.556C26.4281 148.38 25.3961 148.716 24.5081 148.628C23.6201 148.54 22.8001 148.136 21.9401 147.896C20.3401 147.444 18.3401 147.716 17.4361 149.128C17.1687 149.609 17.0183 150.147 16.9967 150.697C16.9752 151.247 17.0832 151.795 17.3121 152.296C17.7777 153.292 18.4388 154.184 19.2561 154.92C21.9787 157.654 25.3764 159.619 29.1041 160.616C32.8241 161.556 36.2041 161.616 39.6961 160.024Z" fill="var(--illo-light, #ebe3d8)"/>
<path id="Vector_2" d="M40.18 165.02C39.605 161.917 38.7303 158.878 37.568 155.944C36.1319 152.361 34.4877 148.864 32.644 145.472L31.2 142.8C30.728 141.92 30.26 141.048 29.748 140.224C28.7668 138.645 27.6985 137.121 26.548 135.66C25.456 134.256 24.364 132.96 23.348 131.76C22.332 130.56 21.348 129.46 20.4 128.492C18.9249 126.962 17.332 125.549 15.636 124.268C15.036 123.812 14.556 123.468 14.232 123.252L13.86 122.996C13.8175 122.967 13.7735 122.94 13.728 122.916C13.728 122.916 13.768 122.952 13.848 123.012L14.212 123.28C14.532 123.512 15.012 123.856 15.596 124.32C17.2726 125.618 18.8491 127.041 20.312 128.576C21.244 129.544 22.22 130.648 23.244 131.852C24.268 133.056 25.348 134.352 26.444 135.756C27.5941 137.214 28.6624 138.735 29.644 140.312C30.152 141.132 30.616 142 31.088 142.88L32.52 145.556C34.3484 148.943 35.9856 152.43 37.424 156C38.5876 158.923 39.4716 161.95 40.064 165.04" fill="var(--illo-mid, #ddd3c6)"/>
<path id="Vector_3" d="M29.7161 140.204C29.7536 140.044 29.7751 139.88 29.7801 139.716C29.8121 139.404 29.8441 138.944 29.8761 138.38C29.9441 137.252 29.9841 135.692 30.0241 133.98C30.0641 132.268 30.1281 130.7 30.2201 129.58C30.2601 129.016 30.3041 128.564 30.3361 128.248C30.3594 128.086 30.3701 127.923 30.3681 127.76C30.3186 127.916 30.2851 128.077 30.2681 128.24C30.2161 128.552 30.1561 129.008 30.1001 129.568C29.9761 130.696 29.8921 132.256 29.8521 133.968C29.8121 135.68 29.7841 137.22 29.7601 138.368C29.7401 138.908 29.7281 139.36 29.7161 139.704C29.6999 139.87 29.6999 140.038 29.7161 140.204Z" fill="var(--illo-mid, #ddd3c6)"/>
<path id="Vector_4" d="M14.9041 138.716H15.0561H15.4921C15.8681 138.716 16.4121 138.716 17.0921 138.736C18.4401 138.764 20.2921 138.868 22.3521 139.08C24.4121 139.292 26.2441 139.564 27.5721 139.8C28.2361 139.916 28.7721 140.02 29.1441 140.092L29.5681 140.176C29.6681 140.176 29.7201 140.2 29.7201 140.176C29.675 140.152 29.6264 140.136 29.5761 140.128L29.1561 140.012C28.7921 139.92 28.2561 139.796 27.5921 139.668C26.2681 139.4 24.4201 139.108 22.3681 138.892C20.3161 138.676 18.4481 138.596 17.0921 138.6C16.4161 138.6 15.8921 138.6 15.4921 138.636L15.0601 138.664C15.0056 138.673 14.953 138.691 14.9041 138.716Z" fill="var(--illo-mid, #ddd3c6)"/>
<path id="Vector_5" d="M37.384 155.688C37.4155 155.627 37.4422 155.565 37.464 155.5C37.52 155.36 37.584 155.18 37.668 154.96C37.844 154.488 38.068 153.796 38.364 152.96C38.928 151.252 39.636 148.868 40.388 146.224C41.14 143.58 41.824 141.196 42.36 139.48C42.628 138.64 42.844 137.952 43.004 137.448C43.076 137.224 43.132 137.048 43.176 136.896C43.2006 136.833 43.218 136.767 43.228 136.7C43.1924 136.757 43.1641 136.819 43.144 136.884C43.092 137.028 43.024 137.208 42.94 137.428C42.764 137.9 42.54 138.588 42.248 139.428C41.68 141.136 40.972 143.52 40.224 146.164C39.476 148.808 38.8 151.2 38.248 152.908C37.984 153.748 37.764 154.436 37.608 154.936C37.536 155.164 37.48 155.336 37.432 155.492C37.4097 155.556 37.3936 155.621 37.384 155.688Z" fill="var(--illo-mid, #ddd3c6)"/>
<path id="Vector_6" d="M17.488 151.116C17.55 151.146 17.6161 151.166 17.684 151.176L18.264 151.312L20.4 151.8C22.2 152.2 24.68 152.812 27.42 153.484C30.16 154.156 32.644 154.74 34.452 155.124C35.356 155.316 36.088 155.464 36.596 155.556L37.18 155.66C37.2484 155.676 37.318 155.685 37.388 155.688C37.3245 155.659 37.2572 155.639 37.188 155.628L36.608 155.492L34.476 155.004C32.676 154.604 30.196 153.992 27.46 153.32C24.724 152.648 22.236 152.064 20.428 151.68C19.524 151.488 18.792 151.34 18.284 151.248L17.696 151.14C17.6275 151.126 17.5579 151.118 17.488 151.116Z" fill="var(--illo-mid, #ddd3c6)"/>
<path id="Vector_7" d="M92.244 45.7256L63.3239 54.4241L69.187 73.9174L98.1071 65.2189L92.244 45.7256Z" fill="var(--illo-paper, #f2ebe1)"/>
<path id="Vector_8" d="M98.1121 65.2001C98.1121 65.2001 98.0681 65.0761 97.9961 64.8441C97.9241 64.6121 97.8161 64.2601 97.6761 63.8121C97.4001 62.9081 96.9921 61.5841 96.4761 59.8961C95.4441 56.5081 93.9681 51.6481 92.1681 45.7321L92.2721 45.7881L63.3601 54.5201L63.4321 54.3881L69.2881 73.8841L69.1681 73.8201L90.0001 67.6001L95.9641 65.8361L97.5641 65.3681L97.9641 65.2481L98.1081 65.2121L97.9801 65.2561L97.5801 65.3841L96.0121 65.8641L90.0841 67.6761L69.2201 74.0001L69.1281 74.0281L69.1001 73.9361C67.3121 67.9961 65.3201 61.3921 63.2281 54.4441L63.2001 54.3441L63.2961 54.3161L92.2201 45.6361L92.3001 45.6121L92.3241 45.6921C94.0961 51.6401 95.5481 56.5241 96.5641 59.9281C97.0601 61.6161 97.4521 62.9361 97.7161 63.8441C97.8481 64.2841 97.9441 64.6241 98.0161 64.8641C98.0881 65.1041 98.1121 65.2001 98.1121 65.2001Z" fill="var(--illo-mid, #ddd3c6)"/>
<path id="Vector_9" d="M92.2481 45.7201C92.2375 45.7506 92.2241 45.7801 92.2081 45.8081L92.0721 46.0561C91.9401 46.2841 91.7601 46.6001 91.5361 47.0001L89.5161 50.4681L82.7401 61.9601L82.6921 62.0361L82.6121 62.0041L81.7281 61.6641L68.7001 56.5801L64.7601 55.0201L63.6961 54.5841L63.4201 54.4681C63.3871 54.4571 63.3561 54.4409 63.3281 54.4201C63.3629 54.4231 63.3968 54.4326 63.4281 54.4481L63.7081 54.5441L64.7921 54.9441L68.7521 56.4441L81.8001 61.4681L82.6881 61.8121L82.5601 61.8561C85.2401 57.3561 87.6481 53.3241 89.3921 50.3921L91.4681 46.9601C91.7081 46.5601 91.9001 46.2601 92.0361 46.0321L92.1921 45.7961C92.2241 45.7441 92.2441 45.7161 92.2481 45.7201Z" fill="var(--illo-mid, #ddd3c6)"/>
<path id="Vector_10" d="M176.4 123.6C176.4 123.6 174.524 121.744 170.868 126.38C168.951 128.727 167.191 131.198 165.6 133.776C165.6 133.776 164.688 134.72 164.088 133.864C163.488 133.008 162.868 130.8 161.532 130.912C160.196 131.024 159.428 132.4 159.248 134.596C159.068 136.792 158.504 141.596 158.448 142.028C158.392 142.46 158.048 143.024 157.532 142.508C157.016 141.992 154.42 137.6 152.4 138.952C150.38 140.304 150.892 146.52 150.936 147.196C150.98 147.872 150.796 148.128 150.46 148.224C150.124 148.32 149.384 146.76 148.588 145.54C147.792 144.32 146.66 143.036 145.564 143.92C144.468 144.804 143.304 149.152 146.072 157.14L147.596 160.74L151.496 161.296C159.924 161.972 163.844 159.76 164.424 158.476C165.004 157.192 163.484 156.416 162.1 155.952C160.716 155.488 159.02 155.152 159.032 154.812C159.044 154.472 159.24 154.224 159.908 154.096C160.576 153.968 166.708 152.896 167.508 150.612C168.308 148.328 163.408 146.896 162.78 146.536C162.152 146.176 162.616 145.684 163.016 145.528C163.416 145.372 167.928 143.616 170.012 142.896C172.096 142.176 173.244 141.128 173.008 139.76C172.772 138.392 170.488 138.396 169.508 138.024C168.528 137.652 169.216 136.54 169.216 136.54C171.323 134.359 173.284 132.041 175.084 129.6C178.656 124.896 176.328 123.524 176.328 123.524" fill="var(--illo-light, #ebe3d8)"/>
<path id="Vector_11" d="M173.104 127.728C173.086 127.764 173.065 127.797 173.04 127.828L172.836 128.116C172.644 128.372 172.376 128.736 172.036 129.2C171.336 130.14 170.316 131.492 169.044 133.156C166.504 136.484 162.952 141.052 159.008 146.076L148.92 158.96L145.876 162.876L145.044 163.936L144.824 164.208C144.772 164.268 144.748 164.3 144.744 164.296C144.762 164.261 144.783 164.227 144.808 164.196L145.012 163.912L145.812 162.824C146.508 161.884 147.532 160.532 148.8 158.868C151.34 155.54 154.896 150.972 158.844 145.948C162.792 140.924 166.34 136.372 168.928 133.064C170.204 131.42 171.244 130.088 171.972 129.152C172.324 128.7 172.604 128.352 172.8 128.088L173.024 127.816C173.072 127.756 173.1 127.724 173.104 127.728Z" fill="var(--illo-mid, #ddd3c6)"/>
<path id="Vector_12" d="M162.276 134.036C162.363 134.379 162.413 134.73 162.424 135.084C162.484 135.732 162.536 136.632 162.572 137.628C162.608 138.624 162.624 139.448 162.644 140.172C162.674 140.524 162.674 140.877 162.644 141.228C162.557 140.885 162.509 140.534 162.5 140.18C162.448 139.528 162.404 138.628 162.368 137.636C162.332 136.644 162.308 135.816 162.28 135.092C162.248 134.741 162.247 134.388 162.276 134.036Z" fill="var(--illo-mid, #ddd3c6)"/>
<path id="Vector_13" d="M162.98 141.368C164.349 141.147 165.728 140.996 167.112 140.916C169.396 140.728 171.256 140.62 171.26 140.676C169.891 140.895 168.512 141.044 167.128 141.124C164.844 141.316 162.988 141.424 162.98 141.368Z" fill="var(--illo-mid, #ddd3c6)"/>
<path id="Vector_14" d="M156.344 149.08C156.703 149.108 157.059 149.165 157.408 149.252C158.064 149.376 158.964 149.548 159.964 149.708C160.964 149.868 161.872 149.988 162.532 150.072C162.892 150.101 163.249 150.158 163.6 150.244C163.24 150.275 162.878 150.267 162.52 150.22C161.852 150.172 160.92 150.076 159.932 149.912C158.944 149.748 158.024 149.556 157.376 149.396C157.022 149.328 156.676 149.222 156.344 149.08Z" fill="var(--illo-mid, #ddd3c6)"/>
<path id="Vector_15" d="M154.248 142.592C154.414 142.882 154.548 143.189 154.648 143.508C154.86 144.088 155.144 144.888 155.448 145.776C155.752 146.664 156.008 147.472 156.188 148.064C156.301 148.377 156.384 148.7 156.436 149.028C156.268 148.738 156.133 148.429 156.036 148.108C155.82 147.532 155.54 146.732 155.236 145.844C154.932 144.956 154.676 144.144 154.496 143.556C154.379 143.245 154.295 142.921 154.248 142.592Z" fill="var(--illo-mid, #ddd3c6)"/>
<path id="Vector_16" d="M147.524 148.656C147.717 149.036 147.88 149.431 148.012 149.836C148.288 150.576 148.656 151.6 149.052 152.736C149.448 153.872 149.792 154.904 150.036 155.652C150.186 156.052 150.303 156.464 150.384 156.884C150.188 156.498 150.025 156.097 149.896 155.684C149.62 154.948 149.252 153.924 148.856 152.788C148.46 151.652 148.112 150.62 147.872 149.868C147.722 149.474 147.606 149.069 147.524 148.656Z" fill="var(--illo-mid, #ddd3c6)"/>
<path id="Vector_17" d="M150.372 156.668C150.828 156.694 151.281 156.753 151.728 156.844C152.56 156.976 153.728 157.156 154.988 157.324C156.248 157.492 157.42 157.62 158.256 157.724C158.712 157.754 159.165 157.814 159.612 157.904C159.156 157.932 158.698 157.921 158.244 157.872C157.4 157.816 156.244 157.712 154.96 157.54C153.676 157.368 152.528 157.168 151.7 157.004C151.249 156.928 150.805 156.816 150.372 156.668Z" fill="var(--illo-mid, #ddd3c6)"/>
<path id="Vector_18" d="M158.744 84.2451L157.796 115.267L180.466 115.959L181.413 84.9377L158.744 84.2451Z" fill="none"/>
<path id="Vector_19" d="M154.57 88.3689L153.623 119.39L176.292 120.083L177.24 89.0615L154.57 88.3689Z" fill="var(--illo-paper, #f2ebe1)"/>
<path id="Vector_20" d="M176.288 120.076C176.285 120.025 176.285 119.975 176.288 119.924C176.288 119.82 176.288 119.676 176.288 119.488C176.288 119.088 176.308 118.528 176.328 117.792C176.368 116.308 176.424 114.152 176.496 111.42C176.652 105.96 176.872 98.22 177.132 89.056L177.224 89.152L154.556 88.468L154.664 88.368C154.3 99.968 153.968 110.684 153.696 119.388L153.612 119.3L170.076 119.848L174.656 120.008L175.856 120.056L176.276 120.076H175.876L174.676 120.048L170.116 119.932L153.6 119.472H153.516V119.388C153.776 110.68 154.096 99.952 154.444 88.364V88.26H154.552L177.216 88.964H177.312V89.06C177.012 98.26 176.76 106.012 176.58 111.484C176.488 114.204 176.412 116.356 176.364 117.832C176.336 118.56 176.316 119.12 176.3 119.508C176.3 119.692 176.3 119.836 176.28 119.936C176.26 120.036 176.288 120.076 176.288 120.076Z" fill="var(--illo-mid, #ddd3c6)"/>
<path id="Vector_21" d="M168.4 95.544C168.4 95.604 165.932 95.572 162.892 95.48C159.852 95.388 157.384 95.264 157.384 95.208C157.384 95.152 159.856 95.18 162.896 95.272C165.936 95.364 168.4 95.488 168.4 95.544Z" fill="var(--illo-mid, #ddd3c6)"/>
<path id="Vector_22" d="M174.256 98.424C174.256 98.48 170.456 98.424 165.768 98.268C161.08 98.112 157.28 97.96 157.284 97.904C157.288 97.848 161.084 97.904 165.776 98.06C170.468 98.216 174.26 98.364 174.256 98.424Z" fill="var(--illo-mid, #ddd3c6)"/>
<path id="Vector_23" d="M174.172 101.236C174.172 101.292 170.368 101.236 165.68 101.08C160.992 100.924 157.196 100.772 157.196 100.716C157.196 100.66 161 100.716 165.688 100.872C170.376 101.028 174.172 101.176 174.172 101.236Z" fill="var(--illo-mid, #ddd3c6)"/>
<path id="Vector_24" d="M174.084 104.048C174.084 104.104 170.284 104.048 165.596 103.892C160.908 103.736 157.112 103.584 157.112 103.528C157.112 103.472 160.916 103.528 165.604 103.684C170.292 103.84 174.088 104 174.084 104.048Z" fill="var(--illo-mid, #ddd3c6)"/>
<path id="Vector_25" d="M174 106.86C174 106.916 170.196 106.86 165.512 106.704C160.828 106.548 157.024 106.396 157.024 106.34C157.024 106.284 160.828 106.34 165.516 106.496C170.204 106.652 174 106.8 174 106.86Z" fill="var(--illo-mid, #ddd3c6)"/>
<path id="Vector_26" d="M173.916 109.672C173.916 109.728 170.112 109.672 165.424 109.516C160.736 109.36 156.94 109.208 156.94 109.152C156.94 109.096 160.744 109.152 165.432 109.308C170.12 109.464 173.916 109.6 173.916 109.672Z" fill="var(--illo-mid, #ddd3c6)"/>
<path id="Vector_27" d="M173.828 112.484C173.828 112.54 170.024 112.484 165.34 112.328C160.656 112.172 156.852 112.02 156.856 111.964C156.86 111.908 160.656 111.964 165.344 112.12C170.032 112.276 173.832 112.424 173.828 112.484Z" fill="var(--illo-mid, #ddd3c6)"/>
<path id="Vector_28" d="M165.892 115.056C165.892 115.112 163.848 115.096 161.328 115.02C158.808 114.944 156.768 114.832 156.768 114.776C156.768 114.72 158.812 114.736 161.332 114.812C163.852 114.888 165.892 114.996 165.892 115.056Z" fill="var(--illo-mid, #ddd3c6)"/>
<path id="Vector_29" d="M109.141 59.9867L102.048 77.8025L124.331 86.6744L131.424 68.8586L109.141 59.9867Z" fill="var(--illo-paper, #f2ebe1)"/>
<path id="Vector_30" d="M131.42 68.8601L131.312 68.8201L131 68.7001L129.8 68.2201L125.228 66.4001L109.124 60.0001L109.172 59.9801L102.084 77.7921L102.06 77.7361L124.34 86.6161H124.296C126.44 81.2481 128.22 76.8001 129.46 73.6921C130.084 72.1401 130.572 70.9201 130.904 70.0921L131.304 69.1441L131.436 68.8161L131.312 69.1401C131.228 69.3561 131.104 69.6721 130.94 70.0841C130.612 70.9161 130.14 72.1361 129.516 73.6841C128.28 76.7962 126.508 81.2561 124.376 86.6361V86.6681H124.344L102.032 77.8401H101.992V77.8001C104.556 71.3681 106.976 65.2881 109.088 59.9881V59.9521H109.12L125.264 66.4001L129.812 68.2241L131.012 68.7041L131.32 68.8281L131.42 68.8601Z" fill="var(--illo-mid, #ddd3c6)"/>
<path id="Vector_31" d="M109.446 61.4339L103.247 77.0051L123.965 85.2541L130.165 69.6829L109.446 61.4339Z" fill="var(--illo-light, #ebe3d8)"/>
<path id="Vector_32" d="M103.328 77.052L114.42 70.252L116.492 78.0919L120.82 76.068L124.048 85.3L103.328 77.052Z" fill="var(--illo-mid, #ddd3c6)"/>
<path id="Vector_33" d="M121.276 71.6002C121.148 71.9229 120.926 72.2004 120.64 72.3973C120.354 72.5943 120.016 72.7019 119.668 72.7067C119.321 72.7114 118.98 72.613 118.689 72.4238C118.397 72.2347 118.168 71.9634 118.031 71.6443C117.894 71.3251 117.855 70.9724 117.918 70.6308C117.981 70.2892 118.144 69.9741 118.387 69.7253C118.629 69.4765 118.94 69.3052 119.28 69.2331C119.62 69.161 119.973 69.1913 120.296 69.3202C120.51 69.4052 120.706 69.5317 120.871 69.6924C121.036 69.8532 121.168 70.0449 121.259 70.2567C121.35 70.4686 121.399 70.6963 121.402 70.9268C121.404 71.1573 121.362 71.3862 121.276 71.6002Z" fill="var(--illo-mid, #ddd3c6)"/>
<path id="Vector_34" d="M51.7801 96.3442C51.9307 96.4063 52.0937 96.4323 52.2561 96.4202C52.4508 96.3978 52.6317 96.3088 52.7681 96.1682C52.9264 95.9491 53.0668 95.7177 53.1881 95.4762L55.7841 90.9482L56.6481 89.4522L57.1081 88.6522C57.1882 88.5247 57.2577 88.3909 57.3161 88.2522C57.3582 88.114 57.3582 87.9664 57.3161 87.8282C57.2801 87.6859 57.2004 87.5586 57.0881 87.4642C56.9599 87.3734 56.8264 87.2906 56.6881 87.2162L55.7961 86.7202L53.9401 85.6802L45.6761 81.0442C45.5131 80.957 45.3235 80.9332 45.144 80.9776C44.9645 81.0219 44.8078 81.1311 44.7041 81.2842L44.0841 82.3482C43.6841 83.0522 43.2841 83.7522 42.8841 84.4362L40.5641 88.4002C40.4721 88.5562 40.3801 88.7122 40.2921 88.8682C40.203 89.0033 40.157 89.1623 40.1601 89.3242C40.1664 89.4821 40.224 89.6338 40.3241 89.7562C40.4377 89.8739 40.5737 89.9677 40.7241 90.0322L42.4721 91.0242L45.6001 92.8002L50.1281 95.3882L51.3561 96.1002L51.6721 96.2882C51.7441 96.3322 51.7801 96.3562 51.7761 96.3602L51.6641 96.3082L51.3361 96.1362L50.0921 95.4562L45.5281 92.9282L42.4001 91.1562L40.6481 90.1762C40.4783 90.1012 40.3248 89.9939 40.1961 89.8602C40.0711 89.7056 39.9996 89.5148 39.9921 89.3162C39.9835 89.1183 40.0366 88.9226 40.1441 88.7562C40.2321 88.6002 40.3241 88.4442 40.4161 88.2882L42.7081 84.3322L43.9081 82.2442L44.5361 81.1682C44.6685 80.9719 44.869 80.8317 45.0989 80.7748C45.3287 80.7179 45.5714 80.7483 45.7801 80.8602L54.0361 85.5122L55.8921 86.5602L56.7761 87.0642C56.9288 87.1418 57.0758 87.23 57.2161 87.3282C57.3556 87.4472 57.4548 87.6065 57.5001 87.7842C57.5482 87.9542 57.5482 88.1342 57.5001 88.3042C57.4364 88.4556 57.3601 88.6014 57.2721 88.7402L56.8041 89.5402L55.9321 91.0322C54.8161 92.9202 53.9121 94.4522 53.2801 95.5282C53.1489 95.7701 52.9991 96.0014 52.8321 96.2202C52.6832 96.3661 52.4879 96.4552 52.2801 96.4722C52.1544 96.4814 52.0283 96.4609 51.9121 96.4122C51.8652 96.3957 51.8208 96.3728 51.7801 96.3442Z" fill="var(--illo-mid, #ddd3c6)"/>
<path id="Vector_35" d="M49.6681 88.144L50.6761 89.932L48.5961 89.972L46.5161 90.0081L47.5881 88.18L48.6601 86.3521L49.6681 88.144Z" fill="var(--illo-mid, #ddd3c6)"/>
</g>
<g id="freepik--Table--inject-102">
<path id="Vector_36" d="M185.32 164.4C185.32 164.46 147.06 164.508 99.88 164.508C52.7 164.508 14.428 164.468 14.428 164.4C14.428 164.332 52.68 164.288 99.88 164.288C147.08 164.288 185.32 164.348 185.32 164.4Z" fill="var(--illo-ink, #12262b)"/>
</g>
<g id="freepik--Character--inject-102">
<path id="Vector_37" d="M56.7239 138.996L44.6479 126.864L50.7199 115.712C56.7919 107.936 69.6479 108.436 69.6479 108.436C75.9904 108.005 82.3619 108.396 88.6039 109.6C98.8159 111.6 97.9919 118.344 97.9919 118.344L99.36 143.372L100.828 163.752L63.1679 164.512L56.7239 139.012" fill="#e8623a"/>
<path id="Vector_38" d="M77.012 163.32L43.28 163.72C41.4217 163.742 39.5885 163.291 37.9524 162.409C36.3164 161.528 34.9312 160.245 33.927 158.681C32.9228 157.118 32.3326 155.324 32.2117 153.47C32.0908 151.616 32.4433 149.761 33.236 148.08L47.66 121.332L60.8 130.212L51.836 148.8L79.14 149.288L77.012 163.32Z" fill="#e8623a"/>
<path id="Vector_39" d="M96.7999 114.264L123.868 156.056L108.076 157.088C108.076 157.088 98.6439 142.228 98.8559 142.532C99.2319 143.092 96.7999 114.264 96.7999 114.264Z" fill="#e8623a"/>
<path id="Vector_40" d="M60.1199 132.616C60.1209 132.543 60.133 132.47 60.1559 132.4C60.1959 132.24 60.2399 132.04 60.2999 131.792C60.4239 131.268 60.6079 130.508 60.7959 129.564C60.9839 128.62 61.1959 127.484 61.3279 126.22C61.4904 124.85 61.4904 123.466 61.3279 122.096C61.1109 120.738 60.6371 119.433 59.9319 118.252C59.3652 117.28 58.6946 116.372 57.9319 115.544C57.4179 114.978 56.8702 114.444 56.2919 113.944C56.0715 113.772 55.8605 113.587 55.6599 113.392C55.725 113.424 55.7867 113.463 55.8439 113.508C55.9559 113.592 56.1359 113.708 56.3439 113.88C56.9454 114.355 57.5122 114.872 58.0399 115.428C58.8283 116.25 59.5208 117.158 60.1039 118.136C60.8339 119.335 61.323 120.666 61.5439 122.052C61.7023 123.439 61.6916 124.84 61.5119 126.224C61.3768 127.35 61.1846 128.469 60.9359 129.576C60.7279 130.524 60.5359 131.28 60.3719 131.8C60.2999 132.06 60.2359 132.26 60.1919 132.396C60.1751 132.472 60.1509 132.545 60.1199 132.616Z" fill="var(--illo-ink, #12262b)"/>
<path id="Vector_41" d="M59.032 134.056C58.9742 134.264 58.8965 134.467 58.8 134.66C58.64 135.06 58.4 135.596 58.092 136.26C57.48 137.616 56.612 139.48 55.612 141.52C54.612 143.56 53.668 145.388 52.968 146.72C52.616 147.376 52.328 147.92 52.124 148.268C52.0266 148.462 51.9142 148.648 51.788 148.824C51.8598 148.62 51.9481 148.422 52.052 148.232C52.256 147.832 52.52 147.296 52.852 146.652L55.44 141.452C56.42 139.424 57.312 137.592 57.976 136.22C58.288 135.576 58.544 135.04 58.744 134.62C58.824 134.424 58.9204 134.236 59.032 134.056Z" fill="var(--illo-ink, #12262b)"/>
<path id="Vector_42" d="M77.012 163.32C77.012 163.32 77.012 163.296 77.012 163.252C77.012 163.208 77.012 163.128 77.012 163.044C77.032 162.852 77.06 162.584 77.092 162.244C77.172 161.532 77.284 160.52 77.424 159.244C77.72 156.656 78.144 153.016 78.624 148.724L78.72 148.828H68.756L51.352 148.8L46.072 148.768L44.636 148.748H44.26H44.132C44.1745 148.743 44.2174 148.743 44.26 148.748H44.636L46.072 148.728L51.352 148.696L68.784 148.668H78.748H78.856V148.772C78.328 153.06 77.884 156.7 77.564 159.284C77.404 160.556 77.272 161.568 77.164 162.28C77.1213 162.616 77.0853 162.883 77.056 163.08L77.024 163.284C77.02 163.296 77.016 163.32 77.012 163.32Z" fill="var(--illo-ink, #12262b)"/>
<path id="Vector_43" d="M52.072 149.096C51.8303 148.829 51.6059 148.547 51.4 148.252C50.3219 146.899 48.987 145.772 47.472 144.936C47.1484 144.779 46.8333 144.606 46.528 144.416C46.883 144.499 47.224 144.634 47.54 144.816C49.1179 145.596 50.4825 146.747 51.516 148.172C51.7431 148.453 51.9302 148.764 52.072 149.096Z" fill="var(--illo-ink, #12262b)"/>
<path id="Vector_44" d="M99.9199 151.744C99.8907 151.63 99.8719 151.514 99.8639 151.396C99.8359 151.152 99.7999 150.82 99.7519 150.4C99.6599 149.536 99.5359 148.284 99.4039 146.736C99.1279 143.636 98.8119 139.348 98.5319 134.612C98.2519 129.876 98.0559 125.58 97.9439 122.472C97.8879 120.916 97.8479 119.672 97.8319 118.788C97.8319 118.368 97.8319 118.036 97.8119 117.788C97.8059 117.672 97.8059 117.556 97.8119 117.44C97.8341 117.555 97.8461 117.671 97.8479 117.788C97.8479 118.032 97.8799 118.368 97.9039 118.788C97.9479 119.676 98.0079 120.928 98.0839 122.464C98.2319 125.572 98.4519 129.86 98.7319 134.6C99.0119 139.34 99.3079 143.62 99.5319 146.724C99.6519 148.256 99.7479 149.524 99.8159 150.396C99.8479 150.796 99.8719 151.148 99.8919 151.392C99.9119 151.508 99.9213 151.626 99.9199 151.744Z" fill="var(--illo-ink, #12262b)"/>
<path id="Vector_45" d="M69.808 129.004C69.8097 128.821 69.8244 128.638 69.852 128.456C69.9 128.076 69.9599 127.568 70.0359 126.944C70.2119 125.624 70.436 123.816 70.732 121.72L70.884 121.816L68.296 123.628L65.664 125.46L65.476 125.592L65.508 125.364C65.828 123.288 66.1 121.496 66.308 120.164C66.412 119.552 66.492 119.048 66.556 118.672C66.5774 118.492 66.6149 118.314 66.668 118.14C66.6682 118.323 66.6522 118.505 66.62 118.684C66.572 119.06 66.512 119.564 66.432 120.184C66.252 121.496 66 123.292 65.712 125.384L65.5599 125.288L68.188 123.448L70.78 121.644L70.968 121.512L70.9359 121.74C70.6279 123.828 70.36 125.636 70.168 126.94C70.068 127.56 69.988 128.068 69.928 128.444C69.9048 128.634 69.8646 128.821 69.808 129.004Z" fill="var(--illo-mid, #ddd3c6)"/>
<path id="Vector_46" d="M84.8639 130.624C84.7198 130.509 84.5859 130.382 84.4639 130.244C84.2039 129.964 83.8519 129.592 83.4199 129.136L79.8479 125.264L80.0199 125.204C79.9359 126.184 79.8479 127.248 79.7559 128.352C79.6639 129.456 79.5679 130.552 79.4839 131.552L79.4639 131.784L79.3119 131.612L75.8359 127.692L74.8439 126.548C74.7177 126.417 74.6051 126.274 74.5079 126.12C74.6518 126.242 74.7856 126.376 74.9079 126.52L75.9399 127.624L79.4679 131.492L79.2959 131.552C79.3799 130.556 79.4679 129.476 79.5639 128.352C79.6599 127.228 79.7479 126.184 79.8319 125.204L79.8519 124.976L80.0039 125.144L83.5239 129.068L84.5279 130.216C84.6504 130.343 84.7628 130.48 84.8639 130.624Z" fill="var(--illo-mid, #ddd3c6)"/>
<path id="Vector_47" d="M92.44 130.088C92.3655 130.257 92.2743 130.418 92.168 130.568L91.368 131.856L88.512 136.288L88.4159 136.136L91.52 135.6L94.68 135.068L94.908 135.028L94.8 135.2L91.88 139.544L91 140.8C90.9023 140.954 90.7926 141.1 90.6719 141.236C90.7509 141.072 90.8418 140.915 90.944 140.764L91.744 139.484L94.6039 135.084L94.7039 135.236L91.544 135.784L88.428 136.312L88.2 136.348L88.328 136.16L91.244 131.76L92.1 130.5C92.2049 130.356 92.3185 130.219 92.44 130.088Z" fill="var(--illo-mid, #ddd3c6)"/>
<path id="Vector_48" d="M82.364 137.84C82.2887 138.007 82.1977 138.166 82.092 138.316L81.292 139.608L78.44 144.036L78.34 143.884L81.452 143.348L84.616 142.812L84.844 142.776L84.712 142.964L81.792 147.312L80.932 148.56C80.8365 148.714 80.7266 148.859 80.604 148.992C80.684 148.829 80.7749 148.671 80.876 148.52C81.084 148.2 81.356 147.772 81.676 147.244L84.536 142.844L84.636 142.996L81.476 143.544L78.36 144.068L78.132 144.108L78.26 143.916L81.176 139.516C81.528 138.996 81.816 138.572 82.036 138.256C82.1351 138.11 82.2447 137.971 82.364 137.84Z" fill="var(--illo-mid, #ddd3c6)"/>
<path id="Vector_49" d="M104.136 130C104.057 130.165 103.966 130.324 103.864 130.476L103.064 131.768L100.212 136.196L100.112 136.044L103.224 135.508L106.388 134.972L106.616 134.936L106.488 135.124L103.564 139.472C103.212 139.984 102.924 140.404 102.704 140.716C102.609 140.872 102.499 141.018 102.376 141.152C102.457 140.988 102.549 140.831 102.652 140.68L103.452 139.404L106.312 135.004L106.412 135.156L103.252 135.7L100.136 136.228L99.912 136.268L100.036 136.076L102.952 131.676L103.812 130.416C103.906 130.267 104.015 130.128 104.136 130Z" fill="var(--illo-mid, #ddd3c6)"/>
<path id="Vector_50" d="M116.696 150.136C116.553 150.027 116.419 149.907 116.296 149.776L115.2 148.72L111.436 145.032L111.604 144.964C111.572 145.948 111.54 147.012 111.504 148.12C111.468 149.228 111.424 150.328 111.388 151.32V151.552L111.224 151.388L107.56 147.648L106.512 146.556C106.382 146.432 106.261 146.299 106.152 146.156C106.294 146.266 106.428 146.386 106.552 146.516L107.64 147.568L111.36 151.256L111.188 151.324C111.22 150.324 111.256 149.244 111.292 148.124C111.328 147.004 111.372 145.952 111.408 144.968V144.74L111.568 144.9L115.276 148.644L116.336 149.74C116.467 149.862 116.587 149.994 116.696 150.136Z" fill="var(--illo-mid, #ddd3c6)"/>
<path id="Vector_51" d="M53.156 123.576C53.0777 123.742 52.9868 123.901 52.884 124.052L52.084 125.344L49.232 129.776L49.132 129.624L52.244 129.084L55.408 128.552L55.636 128.512L55.508 128.704L52.584 133.048L51.728 134.296C51.6309 134.449 51.5211 134.594 51.4 134.728C51.4767 134.564 51.5677 134.408 51.672 134.26L52.472 132.98C53.196 131.872 54.188 130.352 55.332 128.58L55.432 128.732L52.272 129.28L49.156 129.808L48.932 129.844L49.056 129.656C50.228 127.896 51.236 126.376 51.972 125.256L52.832 123.996C52.9288 123.848 53.0371 123.707 53.156 123.576Z" fill="var(--illo-mid, #ddd3c6)"/>
<path id="Vector_52" d="M37.34 153.488C37.4747 153.61 37.5979 153.744 37.708 153.888L38.684 155.06L42 159.152L41.824 159.2C41.968 158.228 42.12 157.172 42.284 156.072C42.448 154.972 42.608 153.888 42.756 152.9L42.788 152.672L42.932 152.856L46.156 156.984L47.072 158.184C47.1884 158.323 47.2927 158.472 47.384 158.628C47.2526 158.504 47.1309 158.371 47.02 158.228L46.06 157.06L42.8 152.976L42.976 152.932C42.832 153.92 42.676 154.992 42.512 156.104C42.348 157.216 42.192 158.256 42.044 159.228L42.012 159.456L41.868 159.276L38.604 155.14L37.672 153.94C37.5513 153.797 37.4403 153.646 37.34 153.488Z" fill="var(--illo-mid, #ddd3c6)"/>
<path id="Vector_53" d="M73.4599 134.12C73.2808 134.159 73.0989 134.183 72.9159 134.192L71.3959 134.324L66.1399 134.724L66.2039 134.556L68.5079 136.716L70.8399 138.916L71.0079 139.076H70.7759L65.5479 139.364L64.0359 139.428C63.8549 139.444 63.6729 139.444 63.4919 139.428C63.6701 139.392 63.8505 139.37 64.0319 139.36L65.5399 139.24L70.7639 138.88L70.7039 139.048L68.3639 136.856L66.0679 134.688L65.8999 134.528H66.1279L71.3879 134.212L72.9079 134.136C73.0913 134.117 73.2758 134.112 73.4599 134.12Z" fill="var(--illo-mid, #ddd3c6)"/>
<path id="Vector_54" d="M64.5959 154.28C64.7294 154.406 64.855 154.539 64.9719 154.68L65.9679 155.832L69.3719 159.856L69.1959 159.904C69.3199 158.928 69.4559 157.872 69.5959 156.772C69.7359 155.672 69.8799 154.58 69.9959 153.592L70.0279 153.36L70.1719 153.54L73.4839 157.6L74.4239 158.8C74.5405 158.939 74.6474 159.086 74.7439 159.24C74.609 159.117 74.4846 158.984 74.3719 158.84L73.3879 157.692L70.0279 153.692L70.1999 153.64C70.0759 154.632 69.9399 155.704 69.7999 156.82C69.6599 157.936 69.5199 158.98 69.3999 159.956L69.3679 160.184L69.2239 160.008L65.8759 155.936L64.9239 154.736C64.7999 154.595 64.69 154.443 64.5959 154.28Z" fill="var(--illo-mid, #ddd3c6)"/>
<path id="Vector_55" d="M48.7519 139.496C48.5729 139.535 48.391 139.56 48.2079 139.568L46.6919 139.696L41.4359 140.096L41.4959 139.924L43.8039 142.088L46.1359 144.288L46.3039 144.448H46.0719L40.8439 144.736L39.3319 144.8C39.1549 144.815 38.9769 144.815 38.7999 144.8C38.9776 144.762 39.1583 144.739 39.3399 144.732L40.8479 144.612L46.0719 144.248L46.0119 144.42L43.6719 142.228L41.3719 140.06L41.2079 139.9H41.4359L46.6959 139.58L48.2159 139.508C48.394 139.491 48.5732 139.487 48.7519 139.496Z" fill="var(--illo-mid, #ddd3c6)"/>
<path id="Vector_56" d="M62.364 153.828C62.1849 153.866 62.0029 153.889 61.82 153.896L60.3 154.028L55.044 154.428L55.108 154.256L57.412 156.42L59.744 158.62L59.912 158.78H59.684L54.452 159.064L52.94 159.132C52.759 159.148 52.577 159.148 52.396 159.132C52.5737 159.094 52.7544 159.071 52.936 159.064L54.444 158.944L59.668 158.58L59.608 158.752L57.268 156.56L54.972 154.4L54.804 154.244H55.032L60.292 153.924L61.816 153.852C61.9976 153.827 62.181 153.819 62.364 153.828Z" fill="var(--illo-mid, #ddd3c6)"/>
<path id="Vector_57" d="M93.088 117.364C92.9089 117.402 92.727 117.427 92.544 117.436L91.024 117.564L85.772 117.964L85.832 117.796L88.136 119.956L90.468 122.156L90.636 122.316H90.408L85.176 122.604L83.664 122.668C83.483 122.684 83.301 122.684 83.12 122.668C83.2977 122.63 83.4784 122.607 83.66 122.6L85.168 122.48L90.396 122.12L90.332 122.288L88 120.1L85.704 117.932L85.536 117.772H85.764L91.024 117.452L92.548 117.38C92.7273 117.361 92.9078 117.356 93.088 117.364Z" fill="var(--illo-mid, #ddd3c6)"/>
<path id="Vector_58" d="M78.144 153.828C78.144 153.828 84.872 151.888 87.1 151.32C87.968 151.1 91.684 153.06 94.252 154.692C94.252 154.692 97.7879 156.788 97.5039 157.432C97.1879 158.144 95.9039 158 93.8039 157.032C93.8039 157.032 94.5319 159.14 93.1039 159.092C93.1039 159.092 93.812 161.372 92.476 161.608C91.14 161.844 90.828 158.936 89.652 158.78C88.476 158.624 86.052 158.464 86.052 158.464C86.052 158.464 84.024 161.824 82.452 162.064C80.88 162.304 77.252 161.876 77.252 161.876L78.144 153.828Z" fill="#FFBE9D"/>
<path id="Vector_59" d="M89.6279 154.292C90.2866 154.586 90.9161 154.94 91.5079 155.352C92.1359 155.707 92.728 156.123 93.2759 156.592C91.9875 155.947 90.7657 155.177 89.6279 154.292Z" fill="#e8623a"/>
<path id="Vector_60" d="M89.2319 155.6C90.0004 155.842 90.7471 156.148 91.4639 156.516C92.2049 156.817 92.9194 157.18 93.5999 157.6C92.8311 157.361 92.0843 157.056 91.3679 156.688C90.6255 156.389 89.9108 156.024 89.2319 155.6Z" fill="#e8623a"/>
<path id="Vector_61" d="M89.9519 158.724C90.9681 158.72 91.98 158.855 92.9599 159.124C91.9438 159.127 90.932 158.992 89.9519 158.724Z" fill="#e8623a"/>
<path id="Vector_62" d="M69.3879 84.4001C69.4671 84.6593 69.4682 84.9361 69.3911 85.196C69.314 85.4558 69.1621 85.6872 68.9544 85.8612C68.7466 86.0353 68.4922 86.1443 68.2229 86.1747C67.9535 86.2051 67.6812 86.1555 67.4399 86.0321C66.5279 85.5721 66.4119 84.3121 66.5919 83.3081C66.7719 82.3041 67.1119 81.2281 66.6919 80.2961C66.3679 79.5841 65.6679 79.1321 65.1239 78.5721C64.6438 78.0854 64.2831 77.494 64.0701 76.8444C63.857 76.1948 63.7974 75.5046 63.8959 74.8281C64.0112 74.1536 64.3105 73.524 64.7608 73.0088C65.2111 72.4936 65.7949 72.1127 66.4479 71.9081C67.7879 71.5361 69.4399 71.9481 70.4479 70.9761C71.1719 70.2721 71.2159 69.1241 71.7759 68.2841C72.6439 66.9801 74.4799 66.7721 76.0319 66.9841C77.5839 67.1961 79.1599 67.6961 80.6799 67.3161C81.9479 67.0001 82.9879 66.1161 84.1799 65.5721C85.479 64.9783 86.9313 64.8053 88.3336 65.0773C89.7359 65.3494 91.0181 66.0529 92.0009 67.0895C92.9837 68.1261 93.618 69.4439 93.815 70.8587C94.0121 72.2734 93.762 73.7144 93.0999 74.9801C92.6584 75.9064 91.9071 76.6492 90.9759 77.0801" fill="var(--illo-ink, #12262b)"/>
<path id="Vector_63" d="M77.108 117.444C78.128 117.442 79.1375 117.238 80.0779 116.842C81.0184 116.447 81.871 115.87 82.5865 115.143C83.302 114.416 83.8661 113.554 84.246 112.607C84.626 111.661 84.8143 110.648 84.8 109.628L84.7 102.276C84.7 102.276 90.876 101.656 91.284 95.536C91.692 89.416 91.4 75.292 91.4 75.292C88.0017 73.6061 84.2153 72.8571 80.4312 73.1222C76.647 73.3873 73.002 74.6568 69.872 76.8L68.928 77.452L69.388 109.828C69.4122 111.858 70.2366 113.797 71.6821 115.223C73.1276 116.649 75.0775 117.447 77.108 117.444Z" fill="#FFBE9D"/>
<path id="Vector_64" d="M89.784 86.4001C89.5606 86.3744 89.3546 86.2675 89.2049 86.0996C89.0553 85.9318 88.9727 85.7149 88.9727 85.4901C88.9727 85.2653 89.0553 85.0483 89.2049 84.8805C89.3546 84.7127 89.5606 84.6058 89.784 84.5801C89.8326 84.568 89.8834 84.568 89.932 84.5801C90.1553 84.6058 90.3614 84.7127 90.511 84.8805C90.6606 85.0483 90.7433 85.2653 90.7433 85.4901C90.7433 85.7149 90.6606 85.9318 90.511 86.0996C90.3614 86.2675 90.1553 86.3744 89.932 86.4001C89.883 86.4081 89.833 86.4081 89.784 86.4001Z" fill="var(--illo-ink, #12262b)"/>
<path id="Vector_65" d="M90.9839 84.4241C90.8839 84.5281 90.3079 84.0241 89.4639 83.9801C88.6199 83.9361 87.9839 84.3321 87.8999 84.2201C87.8159 84.1081 87.9599 83.9841 88.2399 83.7961C88.6141 83.556 89.0554 83.4423 89.499 83.4719C89.9425 83.5014 90.3649 83.6725 90.7039 83.9601C90.9559 84.1841 91.0359 84.4001 90.9839 84.4241Z" fill="var(--illo-ink, #12262b)"/>
<path id="Vector_66" d="M81.228 84.632C81.3731 84.7325 81.4852 84.8737 81.55 85.0379C81.6148 85.2021 81.6294 85.3818 81.592 85.5543C81.5546 85.7268 81.4669 85.8844 81.3399 86.007C81.213 86.1296 81.0525 86.2118 80.8788 86.2432C80.7051 86.2746 80.526 86.2537 80.3642 86.1832C80.2024 86.1128 80.0651 85.9959 79.9697 85.8474C79.8743 85.6989 79.8251 85.5254 79.8284 85.3489C79.8317 85.1724 79.8872 85.0009 79.988 84.856C80.1229 84.6621 80.3292 84.5296 80.5617 84.4876C80.7941 84.4456 81.0338 84.4975 81.228 84.632Z" fill="var(--illo-ink, #12262b)"/>
<path id="Vector_67" d="M81.7839 84.6682C81.6799 84.7722 81.1039 84.2682 80.2639 84.2242C79.4239 84.1802 78.7839 84.5762 78.6959 84.4642C78.6519 84.4122 78.7599 84.2282 79.0359 84.0402C79.41 83.8001 79.8514 83.6865 80.2949 83.716C80.7385 83.7455 81.1609 83.9167 81.4999 84.2042C81.7519 84.4282 81.8319 84.6242 81.7839 84.6682Z" fill="var(--illo-ink, #12262b)"/>
<path id="Vector_68" d="M84.8 91.812C84.8 91.748 85.324 91.668 86.18 91.596C86.4 91.596 86.58 91.544 86.6 91.428C86.6161 91.2075 86.5733 90.9866 86.476 90.788C86.288 90.216 86.1 89.64 85.9 89.036C85.1 86.544 84.576 84.492 84.7 84.452C84.824 84.412 85.568 86.4 86.356 88.892C86.54 89.5 86.72 90.092 86.892 90.652C87.019 90.9432 87.0444 91.2687 86.964 91.576C86.9283 91.659 86.8734 91.7324 86.8039 91.7901C86.7344 91.8478 86.6522 91.8882 86.564 91.908C86.4394 91.9358 86.3114 91.9453 86.184 91.936C85.32 91.92 84.8 91.88 84.8 91.812Z" fill="var(--illo-ink, #12262b)"/>
<path id="Vector_69" d="M82 92.5962C83.2856 93.2562 84.6557 93.7367 86.072 94.0242C85.7615 94.4507 85.3157 94.7596 84.8073 94.9005C84.2989 95.0414 83.7577 95.006 83.272 94.8002C81.468 94.0282 82 92.5962 82 92.5962Z" fill="var(--illo-paper, #f2ebe1)"/>
<path id="Vector_70" d="M84.724 102.188C81.8924 102.087 79.1549 101.146 76.86 99.4841C76.86 99.4841 78.508 103.992 84.648 103.776L84.724 102.188Z" fill="#e8623a"/>
<path id="Vector_71" d="M91.452 76.8401C91.452 76.8401 87.752 78.7201 82.852 76.3921C79.652 74.8641 75.904 74.1561 75.096 74.8161C74.288 75.4761 74.18 78.7561 71.044 79.7761C71.044 79.7761 71.384 86.0401 68.88 85.8641C66.376 85.6881 67.752 75.9561 67.752 75.9561L73.804 72.8521L80.448 71.4641L86.748 72.2281L91.636 73.4641L91.452 76.8401Z" fill="var(--illo-ink, #12262b)"/>
<path id="Vector_72" d="M69.336 83.8521C69.236 83.8001 65.196 82.3761 65.104 86.5721C65.012 90.7681 69.24 89.9961 69.248 89.8761C69.256 89.7561 69.336 83.8521 69.336 83.8521Z" fill="#FFBE9D"/>
<path id="Vector_73" d="M67.9999 88.256C67.9999 88.256 67.9239 88.308 67.7999 88.36C67.6242 88.4314 67.4276 88.4314 67.2519 88.36C66.8119 88.188 66.4519 87.476 66.4519 86.72C66.4514 86.3596 66.5292 86.0034 66.6799 85.676C66.723 85.5461 66.7967 85.4284 66.8949 85.3331C66.9931 85.2377 67.1128 85.1673 67.2439 85.128C67.3286 85.1126 67.4159 85.1249 67.493 85.1631C67.5701 85.2013 67.6329 85.2633 67.6719 85.34C67.7239 85.456 67.6959 85.54 67.7159 85.548C67.7359 85.556 67.8079 85.48 67.7799 85.308C67.7579 85.2034 67.7016 85.109 67.6199 85.04C67.5067 84.951 67.3632 84.9094 67.2199 84.924C67.0467 84.9539 66.8841 85.0277 66.7475 85.1383C66.611 85.249 66.5051 85.3928 66.4399 85.556C66.2552 85.9162 66.1592 86.3152 66.1599 86.72C66.1599 87.564 66.5839 88.368 67.1839 88.556C67.2961 88.5903 67.4145 88.5994 67.5306 88.5828C67.6467 88.5662 67.7578 88.5243 67.8559 88.46C67.9999 88.36 67.9999 88.264 67.9999 88.256Z" fill="#e8623a"/>
<path id="Vector_74" d="M67.2 70.72C67.6786 70.5796 68.1898 70.5981 68.6571 70.7726C69.1244 70.9471 69.5225 71.2683 69.7919 71.688C69.419 71.4056 69.0167 71.1642 68.5919 70.968C68.1378 70.8372 67.6713 70.7541 67.2 70.72Z" fill="var(--illo-ink, #12262b)"/>
<path id="Vector_75" d="M69.724 68.208C69.8 68.208 69.684 69.092 69.828 70.14C69.9525 70.7701 70.1498 71.3835 70.416 71.968C70.416 71.968 70.24 71.82 70.064 71.508C69.8381 71.0928 69.6891 70.6402 69.624 70.172C69.5075 69.5183 69.5417 68.8465 69.724 68.208Z" fill="var(--illo-ink, #12262b)"/>
<path id="Vector_76" d="M86.96 82.4002C86.936 82.3522 87.116 82.2042 87.456 82.0682C88.3586 81.7191 89.3606 81.7292 90.256 82.0962C90.592 82.2402 90.772 82.3882 90.748 82.4362C90.696 82.5482 89.888 82.2322 88.852 82.2322C87.816 82.2322 87.008 82.5242 86.96 82.4002Z" fill="var(--illo-ink, #12262b)"/>
<path id="Vector_77" d="M77.5999 81.5282C77.5759 81.4802 77.7559 81.3362 78.0959 81.1962C78.5435 81.0232 79.0201 80.9376 79.4999 80.9442C79.9818 80.9441 80.4589 81.0392 80.9039 81.2242C81.2399 81.3682 81.4159 81.5162 81.3959 81.5682C81.3759 81.6202 80.5359 81.3642 79.4959 81.3602C78.4559 81.3562 77.6559 81.6402 77.5999 81.5282Z" fill="var(--illo-ink, #12262b)"/>
<path id="Vector_78" d="M86.236 83.0722C86.2449 83.1546 86.2449 83.2378 86.236 83.3202C86.236 83.4962 86.236 83.7202 86.256 83.9962C86.276 84.2722 86.256 84.6442 86.28 85.0442C86.2649 85.5058 86.3326 85.9664 86.48 86.4042C86.6729 86.972 87.0067 87.4817 87.4502 87.8853C87.8938 88.289 88.4325 88.5735 89.016 88.7122C89.3507 88.794 89.6961 88.8237 90.04 88.8002C90.3976 88.7841 90.7502 88.7098 91.084 88.5802C91.7955 88.3136 92.4017 87.8238 92.812 87.1842C93.2003 86.5733 93.3954 85.8596 93.372 85.1362C93.372 84.4202 93.372 83.7322 93.372 83.0722L93.468 83.1682L88.268 83.1202L86.76 83.0922H86.36H86.212C86.3833 83.0732 86.5556 83.0651 86.728 83.0682L88.212 83.0402L93.468 82.9922H93.6V83.0922C93.6 83.7522 93.6 84.4402 93.6 85.1562C93.6268 85.9191 93.4218 86.6722 93.012 87.3162C92.577 87.9934 91.9342 88.5113 91.18 88.7922C90.8256 88.9283 90.4513 89.0053 90.072 89.0202C89.7103 89.0417 89.3475 89.008 88.996 88.9202C88.3841 88.7723 87.8205 88.4694 87.3595 88.0407C86.8986 87.612 86.5557 87.0718 86.364 86.4722C86.2203 86.0147 86.1607 85.5349 86.188 85.0562C86.188 84.6562 86.188 84.2842 86.208 83.9802C86.228 83.6762 86.208 83.4882 86.228 83.3122C86.2242 83.2321 86.2269 83.1518 86.236 83.0722Z" fill="var(--illo-ink, #12262b)"/>
<path id="Vector_79" d="M76.4319 82.864C76.4319 82.864 76.4319 82.956 76.4319 83.112V83.788C76.4319 84.084 76.4319 84.436 76.4519 84.84C76.4414 85.3014 76.5091 85.7612 76.6519 86.2C76.8362 86.7267 77.1386 87.2042 77.5359 87.596C77.9948 88.0419 78.5655 88.3556 79.1879 88.504C79.8761 88.6698 80.5984 88.6238 81.2599 88.372C81.9695 88.1057 82.5741 87.6175 82.9839 86.98C83.3737 86.3696 83.5702 85.6559 83.5479 84.932C83.5479 84.216 83.5479 83.524 83.5479 82.864L83.6439 82.96L78.4439 82.912L76.9399 82.888H76.5399H76.3919C76.5619 82.8691 76.7329 82.861 76.9039 82.864L78.3879 82.84L83.6439 82.792H83.7399V82.888C83.7399 83.548 83.7399 84.24 83.7399 84.956C83.7641 85.7191 83.5578 86.4718 83.1479 87.116C82.7132 87.7909 82.072 88.3072 81.3199 88.588C80.9655 88.7238 80.5912 88.8008 80.2119 88.816C79.849 88.8374 79.4848 88.8037 79.1319 88.716C78.4783 88.555 77.8809 88.219 77.4039 87.744C76.9913 87.3294 76.6817 86.8239 76.4999 86.268C76.3563 85.8105 76.2967 85.3308 76.3239 84.852C76.3239 84.452 76.3239 84.08 76.3479 83.776C76.3719 83.472 76.3479 83.284 76.3479 83.108C76.3626 83.0227 76.3909 82.9402 76.4319 82.864Z" fill="var(--illo-ink, #12262b)"/>
<path id="Vector_80" d="M86.324 83.3641C85.4092 83.5029 84.4787 83.5029 83.564 83.3641C84.4783 83.2201 85.4096 83.2201 86.324 83.3641Z" fill="var(--illo-ink, #12262b)"/>
<path id="Vector_81" d="M68.7999 83.4161C70.0717 83.3101 71.3481 83.2713 72.6239 83.3001C73.9007 83.2639 75.1784 83.2946 76.4519 83.3921C75.1805 83.5031 73.9038 83.5418 72.6279 83.5081C71.3512 83.5489 70.0732 83.5182 68.7999 83.4161Z" fill="var(--illo-ink, #12262b)"/>
<path id="Vector_82" d="M109.948 158.9C110.847 160.568 112.208 161.942 113.869 162.855C115.529 163.768 117.418 164.182 119.308 164.048C121.541 163.892 123.654 162.979 125.299 161.46C126.943 159.94 128.02 157.906 128.352 155.692L130.672 129.136L121.38 126.84L117.584 147.64C117.584 147.64 115.6 156.356 109.948 158.9Z" fill="#FFBE9D"/>
<path id="Vector_83" d="M121.296 128.764L121.604 124.104C121.604 124.104 122.92 113.648 122.92 112.624C122.92 111.448 123.484 111.16 123.92 111.192C124.596 111.236 125.076 112.072 125.12 113.084C125.12 113.432 125.088 118.96 125.088 118.96C125.408 118.438 125.764 117.939 126.156 117.468C126.956 116.432 128.892 115.84 130.864 115.904C132.836 115.968 133.376 116.16 133.388 116.924C133.381 117.07 133.341 117.213 133.272 117.341C133.203 117.47 133.106 117.582 132.988 117.668C132.624 117.971 132.161 118.131 131.688 118.116C128.532 118.06 127.688 119.744 127.688 119.744L127.648 120.356C127.648 120.356 129.564 118.984 131.092 119.556C131.318 119.64 131.524 119.767 131.7 119.932C132.13 119.934 132.552 120.048 132.925 120.263C133.297 120.478 133.607 120.787 133.823 121.159C134.04 121.531 134.155 121.953 134.158 122.383C134.161 122.814 134.051 123.237 133.84 123.612C133.758 123.804 133.618 123.967 133.441 124.078C133.264 124.188 133.057 124.242 132.848 124.232C132.636 124.169 132.445 124.051 132.292 123.892C132.202 123.816 132.107 123.746 132.008 123.684L131.656 125.376C131.656 125.376 130.66 129.136 130.412 130.824" fill="#FFBE9D"/>
<path id="Vector_84" d="M122.204 128.4C122.78 128.56 123.376 128.136 123.688 127.624C124 127.112 124.132 126.508 124.404 125.972C125.228 124.372 127.204 123.612 127.96 121.972C128.064 121.744 128.12 121.432 127.92 121.28C127.72 121.128 127.472 121.252 127.268 121.364L122.068 124.244" fill="#FFBE9D"/>
<path id="Vector_85" d="M122.064 124.236C122.226 124.093 122.404 123.969 122.596 123.868C122.948 123.648 123.464 123.344 124.104 122.972L126.364 121.68L127.016 121.312C127.259 121.12 127.568 121.032 127.876 121.068C127.971 121.099 128.054 121.158 128.115 121.237C128.176 121.316 128.211 121.412 128.216 121.512C128.226 121.677 128.198 121.841 128.132 121.992C128.012 122.259 127.861 122.511 127.684 122.744C126.964 123.68 126.032 124.268 125.36 124.952C125.033 125.262 124.755 125.619 124.536 126.012C124.34 126.38 124.216 126.764 124.064 127.112C123.971 127.403 123.815 127.669 123.607 127.893C123.4 128.117 123.146 128.293 122.864 128.408C122.436 128.536 122.196 128.408 122.212 128.384C122.419 128.391 122.626 128.357 122.82 128.284C123.07 128.156 123.291 127.978 123.469 127.761C123.646 127.543 123.777 127.291 123.852 127.02C123.98 126.633 124.128 126.252 124.296 125.88C124.517 125.454 124.804 125.067 125.148 124.732C125.836 124.012 126.748 123.408 127.42 122.54C127.578 122.331 127.712 122.104 127.82 121.864C127.92 121.636 127.904 121.408 127.776 121.384C127.648 121.36 127.396 121.468 127.176 121.592L126.512 121.952L124.22 123.2C123.564 123.548 123.02 123.82 122.66 124C122.473 124.107 122.273 124.186 122.064 124.236Z" fill="#e8623a"/>
<path id="Vector_86" d="M127.576 120.4C127.611 120.022 127.736 119.657 127.94 119.336C128.177 119.007 128.513 118.763 128.9 118.64C129.384 118.481 129.89 118.4 130.4 118.4C130.923 118.405 131.446 118.36 131.96 118.264C132.391 118.176 132.791 117.976 133.12 117.684C133.229 117.583 133.314 117.459 133.368 117.32C133.422 117.181 133.444 117.032 133.432 116.884C133.426 116.775 133.39 116.67 133.328 116.58C133.308 116.58 133.328 116.696 133.348 116.888C133.346 117.022 133.315 117.154 133.257 117.275C133.199 117.396 133.115 117.503 133.012 117.588C132.692 117.84 132.316 118.01 131.916 118.084C131.412 118.167 130.902 118.204 130.392 118.196C129.863 118.19 129.337 118.273 128.836 118.44C128.417 118.586 128.058 118.868 127.816 119.24C127.659 119.491 127.569 119.777 127.552 120.072C127.529 120.182 127.538 120.295 127.576 120.4Z" fill="#e8623a"/>
<path id="Vector_87" d="M125.092 112.692C125.058 113.058 125.058 113.426 125.092 113.792C125.092 114.544 125.092 115.444 125.12 116.436C125.148 117.428 125.12 118.328 125.12 119.08C125.096 119.447 125.104 119.815 125.144 120.18C125.231 119.821 125.276 119.453 125.276 119.084C125.324 118.408 125.356 117.484 125.352 116.436C125.348 115.388 125.308 114.46 125.26 113.784C125.243 113.415 125.187 113.049 125.092 112.692Z" fill="#e8623a"/>
<path id="Vector_88" d="M128.824 121.628C128.936 121.601 129.043 121.56 129.144 121.504C129.274 121.438 129.417 121.399 129.564 121.393C129.71 121.386 129.856 121.41 129.992 121.464C130.075 121.51 130.146 121.576 130.196 121.656C130.247 121.737 130.276 121.829 130.28 121.924C130.293 122.163 130.275 122.402 130.228 122.636C130.162 122.931 130.209 123.239 130.36 123.5C130.455 123.634 130.581 123.744 130.727 123.821C130.873 123.897 131.035 123.938 131.2 123.94C131.362 123.939 131.522 123.905 131.67 123.841C131.819 123.776 131.953 123.682 132.064 123.564C132.272 123.355 132.412 123.087 132.464 122.796C132.527 122.326 132.52 121.849 132.444 121.38C132.402 121.063 132.306 120.756 132.16 120.472C132.048 120.272 131.944 120.196 131.936 120.204C131.928 120.212 132 120.312 132.084 120.508C132.194 120.796 132.262 121.097 132.288 121.404C132.34 121.855 132.334 122.311 132.268 122.76C132.217 123.015 132.085 123.246 131.892 123.419C131.699 123.592 131.454 123.698 131.196 123.72C131.066 123.719 130.938 123.688 130.822 123.629C130.706 123.57 130.605 123.485 130.528 123.38C130.407 123.161 130.369 122.905 130.42 122.66C130.464 122.408 130.475 122.151 130.452 121.896C130.44 121.774 130.397 121.658 130.327 121.557C130.257 121.457 130.162 121.377 130.052 121.324C129.896 121.265 129.729 121.243 129.563 121.262C129.398 121.28 129.239 121.337 129.1 121.428C128.912 121.54 128.8 121.6 128.824 121.628Z" fill="#e8623a"/>
<path id="Vector_89" d="M131.972 123.396C131.944 123.5 131.955 123.612 132.004 123.708C132.06 123.845 132.147 123.968 132.258 124.066C132.369 124.165 132.501 124.237 132.644 124.276C132.859 124.322 133.083 124.312 133.294 124.246C133.504 124.18 133.693 124.061 133.844 123.9C134.205 123.504 134.398 122.984 134.384 122.448C134.384 121.919 134.219 121.403 133.912 120.972C133.661 120.621 133.32 120.344 132.924 120.172C132.664 120.055 132.385 119.988 132.1 119.976C131.9 119.976 131.792 119.976 131.792 120.008C132.161 120.056 132.521 120.158 132.86 120.312C133.215 120.488 133.521 120.751 133.748 121.076C134.014 121.479 134.153 121.953 134.148 122.436C134.161 122.916 133.996 123.383 133.684 123.748C133.557 123.892 133.396 124 133.215 124.064C133.035 124.128 132.841 124.144 132.652 124.112C132.526 124.084 132.408 124.029 132.305 123.951C132.202 123.873 132.117 123.774 132.056 123.66C132 123.508 132 123.396 131.972 123.396Z" fill="#e8623a"/>
<path id="Vector_90" d="M128.172 127.092C128 127.038 127.816 127.038 127.644 127.092C127.194 127.191 126.789 127.435 126.492 127.788L126.676 127.844C126.652 127.596 126.612 127.351 126.556 127.108C126.397 126.248 126.002 125.449 125.416 124.8C125.808 125.55 126.119 126.34 126.344 127.156C126.4 127.404 126.44 127.644 126.468 127.868L126.5 128.116L126.656 127.92C126.921 127.593 127.276 127.35 127.676 127.22C127.976 127.128 128.172 127.12 128.172 127.092Z" fill="#e8623a"/>
<path id="Vector_91" d="M128.272 117.688C128.22 117.712 128.432 118.088 128.92 118.316C129.408 118.544 129.84 118.412 129.82 118.356C129.8 118.3 129.42 118.304 129.02 118.116C128.62 117.928 128.324 117.648 128.272 117.688Z" fill="#e8623a"/>
<path id="Vector_92" d="M119.696 131.78L131.372 132.616C131.372 132.616 129.576 153.276 129.228 156.48C128.88 159.684 126.828 164.516 119.696 164.516C112.564 164.516 111.236 162.088 108.064 157.088C111.804 154.496 117.744 146.756 117.744 146.756L119.696 131.78Z" fill="#e8623a"/>
<path id="Vector_93" d="M125.2 134.56C125.14 134.734 125.068 134.904 124.984 135.068L124.332 136.444L122.028 141.2L121.912 141.06L124.94 140.16L128.016 139.256L128.24 139.192L128.132 139.396L125.732 144.056L125.024 145.396C124.946 145.56 124.853 145.716 124.748 145.864C124.809 145.693 124.881 145.526 124.964 145.364C125.132 145.02 125.364 144.564 125.62 144L127.944 139.308L128.06 139.448L124.988 140.36L121.956 141.248L121.736 141.312L121.84 141.108L124.228 136.4C124.52 135.844 124.756 135.388 124.932 135.048C125.007 134.878 125.097 134.715 125.2 134.56Z" fill="var(--illo-mid, #ddd3c6)"/>
<path id="Vector_94" d="M124.096 154.432C123.917 154.471 123.735 154.495 123.552 154.504L122.032 154.636L116.776 155.036L116.84 154.864L119.144 157.024L121.476 159.224L121.644 159.384H121.412L116.184 159.672L114.672 159.736C114.491 159.752 114.309 159.752 114.128 159.736C114.306 159.701 114.487 159.68 114.668 159.672L116.176 159.548L121.4 159.188L121.34 159.36L119 157.164L116.704 154.996L116.536 154.84H116.764L122.024 154.524L123.548 154.448C123.73 154.429 123.913 154.424 124.096 154.432Z" fill="var(--illo-mid, #ddd3c6)"/>
</g>
<g id="freepik--Shield--inject-102">
<path id="Vector_95" d="M144.884 80.6281L132.976 76.3521L121.2 80.572C119.696 81.28 118.376 81.7081 118.376 83.1081V90.092C118.348 94.9974 119.688 99.8134 122.244 104C124.798 108.225 128.584 111.568 133.092 113.58C137.892 112.016 141.492 107.84 143.712 104.272C146.275 100.088 147.622 95.2713 147.6 90.3641V84.0841C147.6 82.0841 146.536 81.1081 144.884 80.6281Z" fill="#e8623a"/>
<g id="Group" opacity="0.3">
<path id="Vector_96" d="M133.092 109.516C129.519 107.905 126.525 105.239 124.512 101.876C122.485 98.5674 121.42 94.7598 121.436 90.8799V85.9999C121.436 84.8879 122.108 83.8479 123.436 83.2279L132.98 79.6599V76.3679L121.2 80.5719C119.964 81.1119 118.376 81.7079 118.376 83.1079V90.0919C118.348 94.9972 119.688 99.8133 122.244 104C124.798 108.225 128.584 111.568 133.092 113.58V109.516Z" fill="black"/>
</g>
<g id="Group_2" opacity="0.4">
<path id="Vector_97" d="M133.092 113.568C133.9 113.304 134.683 112.969 135.432 112.568C137.274 111.526 138.949 110.213 140.4 108.672C141.712 107.259 142.867 105.707 143.844 104.044C146.438 99.8285 147.743 94.9472 147.6 89.9999V84.2359C147.6 81.3639 146.12 81.1519 144.88 80.6119L132.972 76.3359V79.6279L142.628 83.2559C143.956 83.8759 144.628 84.9159 144.628 86.0239V90.9239C144.644 94.8026 143.579 98.6089 141.552 101.916C139.582 105.263 136.624 107.918 133.084 109.516L133.092 113.568Z" fill="black"/>
</g>
<path id="Vector_98" opacity="0.5" d="M136.136 90.568V89.624C136.136 88.8039 135.81 88.0175 135.23 87.4376C134.651 86.8577 133.864 86.532 133.044 86.532C132.224 86.532 131.438 86.8577 130.858 87.4376C130.278 88.0175 129.952 88.8039 129.952 89.624V90.584C129.543 90.6453 129.169 90.8514 128.899 91.1648C128.629 91.4782 128.48 91.8782 128.48 92.292V97.852C128.48 98.3103 128.662 98.7498 128.986 99.0739C129.31 99.3979 129.75 99.58 130.208 99.58H136C136.458 99.58 136.898 99.3979 137.222 99.0739C137.546 98.7498 137.728 98.3103 137.728 97.852V92.292C137.728 91.857 137.565 91.4379 137.27 91.1183C136.975 90.7987 136.57 90.6022 136.136 90.568ZM133.884 96.464H132.372L132.608 95.372C132.443 95.2642 132.317 95.1059 132.248 94.9206C132.18 94.7353 132.174 94.5329 132.23 94.3437C132.286 94.1544 132.402 93.9884 132.56 93.8703C132.719 93.7523 132.911 93.6885 133.108 93.6885C133.306 93.6885 133.498 93.7523 133.656 93.8703C133.814 93.9884 133.93 94.1544 133.986 94.3437C134.042 94.5329 134.036 94.7353 133.968 94.9206C133.9 95.1059 133.774 95.2642 133.608 95.372C133.712 95.78 133.884 96.464 133.884 96.464ZM135.484 90.56H130.62V89.624C130.646 88.9976 130.912 88.4054 131.364 87.9712C131.817 87.537 132.419 87.2945 133.046 87.2945C133.673 87.2945 134.276 87.537 134.728 87.9712C135.18 88.4054 135.447 88.9976 135.472 89.624L135.484 90.56Z" fill="var(--illo-paper, #f2ebe1)"/>
<path id="Vector_99" d="M123.368 90.4998C123.264 90.1869 123.203 89.8612 123.188 89.5318C123.099 88.7445 123.067 87.9518 123.092 87.1598C123.092 86.6958 123.136 86.2558 123.176 85.8558C123.196 85.4911 123.287 85.1337 123.444 84.8038C123.557 84.5779 123.739 84.3942 123.964 84.2798C124.128 84.2038 124.228 84.2078 124.228 84.2198C123.941 84.3516 123.71 84.5813 123.576 84.8678C123.448 85.1877 123.378 85.5275 123.368 85.8718C123.336 86.2718 123.312 86.7078 123.3 87.1678C123.272 88.0838 123.3 88.9158 123.336 89.5198C123.372 89.8452 123.383 90.1728 123.368 90.4998Z" fill="var(--illo-paper, #f2ebe1)"/>
<path id="Vector_100" d="M123.54 93.5359C123.484 93.5359 123.432 93.252 123.424 92.896C123.416 92.54 123.46 92.252 123.516 92.252C123.572 92.252 123.624 92.5359 123.632 92.8919C123.64 93.2479 123.6 93.5359 123.54 93.5359Z" fill="var(--illo-paper, #f2ebe1)"/>
</g>
<g id="freepik--Device--inject-102">
<path id="Vector_101" d="M111.728 130.092L98.452 162.924H74.512V164.408H145.82L160.408 130.092H111.728Z" fill="var(--illo-ink, #12262b)"/>
<path id="Vector_102" d="M132.024 149.476C131.544 151.128 130.144 152.172 128.896 151.812C127.648 151.452 127.028 149.812 127.508 148.16C127.988 146.508 129.392 145.464 130.64 145.824C131.888 146.184 132.508 147.824 132.024 149.476Z" fill="var(--illo-paper, #f2ebe1)"/>
</g>
</g>
</g>
</g>
</g>
</g>
</g>
</svg>
