<svg width="200" height="200" viewBox="0 0 200 200" fill="none" xmlns="http://www.w3.org/2000/svg">
<rect width="200" height="200" fill="none"/>
<g id="Homepage / Donators hero">
<g id="Homepage">

<g id="Frame 19">
<g id="Frame 17">
<g id="Frame 1686557073">


<g id="Charity market-rafiki 1">
<g id="freepik--background-complete--inject-62">
<path id="Vector" d="M200 152.96H0V153.06H200V152.96Z" fill="var(--illo-light, #ebe3d8)"/>
<path id="Vector_2" d="M179.96 159.396H166.712V159.496H179.96V159.396Z" fill="var(--illo-light, #ebe3d8)"/>
<path id="Vector_3" d="M132.488 160.484H129.012V160.584H132.488V160.484Z" fill="var(--illo-light, #ebe3d8)"/>
<path id="Vector_4" d="M166.312 155.684H158.636V155.784H166.312V155.684Z" fill="var(--illo-light, #ebe3d8)"/>
<path id="Vector_5" d="M38.26 156.356H20.984V156.456H38.26V156.356Z" fill="var(--illo-light, #ebe3d8)"/>
<path id="Vector_6" d="M44.356 156.356H41.824V156.456H44.356V156.356Z" fill="var(--illo-light, #ebe3d8)"/>
<path id="Vector_7" d="M90.06 158.044H52.588V158.144H90.06V158.044Z" fill="var(--illo-light, #ebe3d8)"/>
<path id="Vector_8" d="M94.8001 135.12H17.5641C16.959 135.119 16.3791 134.878 15.9516 134.45C15.5241 134.021 15.2841 133.441 15.2841 132.836V24.264C15.2893 23.6624 15.5317 23.0872 15.9586 22.6633C16.3855 22.2394 16.9624 22.001 17.5641 22H94.8001C95.4058 22 95.9868 22.2406 96.4151 22.669C96.8434 23.0973 97.0841 23.6782 97.0841 24.284V132.836C97.0841 133.442 96.8434 134.023 96.4151 134.451C95.9868 134.879 95.4058 135.12 94.8001 135.12ZM17.5641 22.08C16.9855 22.0811 16.431 22.3116 16.0223 22.7211C15.6136 23.1306 15.3841 23.6855 15.3841 24.264V132.836C15.3841 133.415 15.6136 133.969 16.0223 134.379C16.431 134.788 16.9855 135.019 17.5641 135.02H94.8001C95.379 135.019 95.9339 134.789 96.3432 134.379C96.7526 133.97 96.983 133.415 96.9841 132.836V24.264C96.983 23.6851 96.7526 23.1302 96.3432 22.7208C95.9339 22.3115 95.379 22.0811 94.8001 22.08H17.5641Z" fill="var(--illo-light, #ebe3d8)"/>
<path id="Vector_9" d="M181.324 135.12H104.084C103.479 135.119 102.898 134.878 102.47 134.45C102.042 134.022 101.801 133.441 101.8 132.836V24.264C101.806 23.662 102.05 23.0868 102.477 22.663C102.905 22.2392 103.482 22.001 104.084 22H181.324C181.925 22.0021 182.501 22.2409 182.927 22.6647C183.353 23.0885 183.595 23.6631 183.6 24.264V132.836C183.6 133.44 183.361 134.02 182.934 134.448C182.507 134.876 181.928 135.118 181.324 135.12ZM104.084 22.08C103.505 22.0811 102.95 22.3115 102.541 22.7208C102.132 23.1302 101.901 23.6851 101.9 24.264V132.836C101.901 133.415 102.132 133.97 102.541 134.379C102.95 134.789 103.505 135.019 104.084 135.02H181.324C181.903 135.019 182.458 134.789 182.867 134.379C183.277 133.97 183.507 133.415 183.508 132.836V24.264C183.507 23.6851 183.277 23.1302 182.867 22.7208C182.458 22.3115 181.903 22.0811 181.324 22.08H104.084Z" fill="var(--illo-light, #ebe3d8)"/>
<path id="Vector_10" d="M148.508 151.964H147.104V60.208C147.104 60.051 147.042 59.9004 146.931 59.7894C146.82 59.6783 146.669 59.616 146.512 59.616H23.784C23.6284 59.6181 23.4799 59.6814 23.3706 59.7922C23.2613 59.903 23.2 60.0523 23.2 60.208V151.964H21.88C21.7984 151.957 21.7164 151.968 21.639 151.994C21.5616 152.021 21.4905 152.063 21.4303 152.119C21.3701 152.174 21.3221 152.241 21.2892 152.316C21.2564 152.391 21.2394 152.472 21.2394 152.554C21.2394 152.636 21.2564 152.717 21.2892 152.792C21.3221 152.867 21.3701 152.934 21.4303 152.989C21.4905 153.045 21.5616 153.087 21.639 153.114C21.7164 153.14 21.7984 153.151 21.88 153.144H26.24C26.3216 153.151 26.4036 153.14 26.481 153.114C26.5584 153.087 26.6295 153.045 26.6897 152.989C26.7499 152.934 26.7979 152.867 26.8308 152.792C26.8637 152.717 26.8806 152.636 26.8806 152.554C26.8806 152.472 26.8637 152.391 26.8308 152.316C26.7979 152.241 26.7499 152.174 26.6897 152.119C26.6295 152.063 26.5584 152.021 26.481 151.994C26.4036 151.968 26.3216 151.957 26.24 151.964H24.376V60.8H145.92V151.964H144.144C143.996 151.976 143.858 152.044 143.757 152.153C143.657 152.262 143.601 152.405 143.601 152.554C143.601 152.703 143.657 152.846 143.757 152.955C143.858 153.064 143.996 153.132 144.144 153.144H148.508C148.656 153.132 148.794 153.064 148.895 152.955C148.995 152.846 149.051 152.703 149.051 152.554C149.051 152.405 148.995 152.262 148.895 152.153C148.794 152.044 148.656 151.976 148.508 151.964Z" fill="var(--illo-light, #ebe3d8)"/>
<path id="Vector_11" d="M33.3799 72.14L35.1439 83.444L26.1479 137.776H55.9639L47.2399 84.752L49.2199 72.784L33.3799 72.14Z" fill="var(--illo-light, #ebe3d8)"/>
<path id="Vector_12" d="M48.992 70.748H33.472C33.3226 70.7485 33.1769 70.7011 33.0563 70.6129C32.9357 70.5246 32.8465 70.4 32.8018 70.2574C32.7571 70.1148 32.7592 69.9617 32.8078 69.8203C32.8565 69.679 32.949 69.557 33.072 69.472L41.372 63.756C41.4061 63.7325 41.4466 63.7198 41.488 63.7198C41.5295 63.7198 41.5699 63.7325 41.604 63.756L49.4 69.484C49.5203 69.5687 49.6099 69.6901 49.6553 69.83C49.7008 69.97 49.6996 70.1208 49.652 70.26C49.6085 70.4012 49.5209 70.5247 49.4022 70.6125C49.2834 70.7003 49.1397 70.7478 48.992 70.748ZM41.484 64.168L33.3 69.804C33.2474 69.8394 33.208 69.891 33.1877 69.951C33.1675 70.0111 33.1676 70.0761 33.188 70.136C33.2043 70.1983 33.2413 70.2533 33.2929 70.2918C33.3445 70.3303 33.4076 70.3501 33.472 70.348H48.992C49.0546 70.3472 49.1154 70.3268 49.1659 70.2897C49.2163 70.2526 49.2539 70.2006 49.2733 70.141C49.2927 70.0815 49.293 70.0174 49.2741 69.9576C49.2552 69.8979 49.2181 69.8456 49.168 69.808L41.484 64.168Z" fill="var(--illo-mid, #ddd3c6)"/>
<path id="Vector_13" d="M41.488 64.1241C41.435 64.1241 41.3841 64.103 41.3466 64.0655C41.3091 64.028 41.288 63.9771 41.288 63.9241V61.8841C41.088 61.5601 40.248 60.1161 40.648 59.3881C40.7356 59.2485 40.8611 59.1368 41.0099 59.066C41.1586 58.9952 41.3245 58.9681 41.488 58.9881C42.168 58.9881 42.604 59.1481 42.788 59.4721C42.8498 59.604 42.8788 59.7489 42.8725 59.8945C42.8663 60.04 42.8249 60.1819 42.752 60.3081C42.7245 60.3537 42.6803 60.3869 42.6287 60.4003C42.5771 60.4138 42.5223 60.4065 42.476 60.3801C42.431 60.3519 42.3987 60.3074 42.386 60.2558C42.3733 60.2043 42.3812 60.1499 42.408 60.1041C42.4457 60.0384 42.4682 59.9652 42.4737 59.8897C42.4793 59.8142 42.4677 59.7385 42.44 59.6681C42.336 59.4881 41.996 59.3881 41.488 59.3881C41.088 59.3881 41.024 59.5401 41 59.5881C40.76 60.0201 41.276 61.1281 41.656 61.7281C41.6768 61.7603 41.6879 61.7977 41.688 61.8361V63.9321C41.6859 63.9837 41.6639 64.0325 41.6267 64.0683C41.5894 64.1041 41.5397 64.1241 41.488 64.1241Z" fill="var(--illo-mid, #ddd3c6)"/>
<path id="Vector_14" d="M36.8279 73.08L36.5319 66.736L35.0439 67.844L35.5879 73.28L36.8279 73.08Z" fill="var(--illo-light, #ebe3d8)"/>
<path id="Vector_15" d="M45.9 73.28L46.496 66.736L47.832 67.844L47.488 73.28H45.9Z" fill="var(--illo-light, #ebe3d8)"/>
<path id="Vector_16" d="M71.86 70.748H56.3401C56.1906 70.7485 56.0449 70.7011 55.9243 70.6129C55.8037 70.5246 55.7146 70.4 55.6699 70.2574C55.6252 70.1148 55.6273 69.9617 55.6759 69.8203C55.7245 69.679 55.8171 69.557 55.9401 69.472L64.2401 63.756C64.2741 63.7325 64.3146 63.7198 64.356 63.7198C64.3975 63.7198 64.438 63.7325 64.472 63.756L72.272 69.484C72.3916 69.5693 72.4804 69.6909 72.5251 69.8308C72.5698 69.9707 72.568 70.1213 72.5201 70.26C72.4765 70.4012 72.389 70.5247 72.2702 70.6125C72.1515 70.7003 72.0077 70.7478 71.86 70.748ZM64.356 64.168L56.172 69.804C56.1208 69.8407 56.0824 69.8925 56.0622 69.9522C56.0421 70.0119 56.0413 70.0764 56.0599 70.1366C56.0784 70.1968 56.1155 70.2496 56.1658 70.2876C56.2161 70.3255 56.2771 70.3467 56.3401 70.348H71.86C71.923 70.348 71.9844 70.3282 72.0355 70.2914C72.0865 70.2546 72.1247 70.2026 72.1447 70.1429C72.1646 70.0832 72.1652 70.0187 72.1464 69.9586C72.1276 69.8985 72.0904 69.8458 72.0401 69.808L64.356 64.168Z" fill="var(--illo-mid, #ddd3c6)"/>
<path id="Vector_17" d="M64.36 64.124C64.307 64.124 64.2561 64.1029 64.2186 64.0654C64.1811 64.0279 64.16 63.977 64.16 63.924V61.884C63.956 61.56 63.116 60.116 63.516 59.388C63.6043 59.2481 63.7305 59.1363 63.8799 59.0655C64.0294 58.9946 64.1959 58.9678 64.36 58.988C65.036 58.988 65.476 59.148 65.66 59.472C65.7216 59.6042 65.7501 59.7493 65.7431 59.8949C65.7361 60.0405 65.6939 60.1823 65.62 60.308C65.6072 60.3309 65.5899 60.3509 65.5691 60.367C65.5484 60.3831 65.5246 60.3948 65.4992 60.4015C65.4739 60.4083 65.4474 60.4098 65.4214 60.4061C65.3955 60.4024 65.3705 60.3935 65.348 60.38C65.3023 60.3525 65.2692 60.3082 65.2558 60.2567C65.2423 60.2051 65.2496 60.1503 65.276 60.104C65.3136 60.0384 65.3363 59.9653 65.3425 59.89C65.3487 59.8146 65.3383 59.7389 65.312 59.668C65.204 59.488 64.868 59.388 64.36 59.388C63.96 59.388 63.896 59.54 63.868 59.588C63.632 60.02 64.148 61.128 64.528 61.728C64.5488 61.7602 64.5599 61.7977 64.56 61.836V63.932C64.557 63.9833 64.5347 64.0316 64.4976 64.0672C64.4606 64.1028 64.4114 64.1231 64.36 64.124Z" fill="var(--illo-mid, #ddd3c6)"/>
<path id="Vector_18" d="M60.34 66.132C60.34 66.132 63.14 68.132 64.58 68.132C66.02 68.132 68 65.912 68 65.912L73.812 69.876L70.552 77.432L74.216 121.432H53.652L58.192 77.432L54.064 70.4L60.34 66.132Z" fill="none"/>
<path id="Vector_19" d="M118.4 70.748H102.88C102.731 70.7485 102.585 70.7011 102.464 70.6129C102.344 70.5246 102.254 70.4 102.21 70.2574C102.165 70.1148 102.167 69.9617 102.216 69.8203C102.264 69.679 102.357 69.557 102.48 69.472L110.8 63.756C110.834 63.7325 110.875 63.7198 110.916 63.7198C110.957 63.7198 110.998 63.7325 111.032 63.756L118.8 69.488C118.92 69.5727 119.01 69.6941 119.055 69.834C119.101 69.974 119.1 70.1248 119.052 70.264C119.008 70.4031 118.922 70.5248 118.804 70.6117C118.687 70.6986 118.546 70.7463 118.4 70.748ZM110.892 64.168L102.708 69.804C102.656 69.8409 102.618 69.8931 102.598 69.9531C102.578 70.0132 102.577 70.0781 102.596 70.1385C102.616 70.1989 102.653 70.2517 102.704 70.2893C102.755 70.3269 102.817 70.3475 102.88 70.348H118.4C118.463 70.3472 118.523 70.3268 118.574 70.2897C118.624 70.2526 118.662 70.2006 118.681 70.141C118.701 70.0815 118.701 70.0174 118.682 69.9576C118.663 69.8979 118.626 69.8456 118.576 69.808L110.892 64.168Z" fill="var(--illo-mid, #ddd3c6)"/>
<path id="Vector_20" d="M110.892 64.1241C110.839 64.1241 110.788 64.103 110.751 64.0655C110.713 64.028 110.692 63.9771 110.692 63.9241V61.8841C110.492 61.5601 109.652 60.1161 110.052 59.3881C110.14 59.2485 110.265 59.1368 110.414 59.066C110.563 58.9952 110.729 58.9681 110.892 58.9881C111.572 58.9881 112.008 59.1481 112.192 59.4721C112.254 59.604 112.283 59.7489 112.277 59.8945C112.27 60.04 112.229 60.1819 112.156 60.3081C112.129 60.3535 112.086 60.3865 112.035 60.4C111.984 60.4135 111.93 60.4063 111.884 60.3801C111.838 60.3526 111.805 60.3083 111.792 60.2567C111.778 60.2052 111.786 60.1503 111.812 60.1041C111.85 60.0384 111.872 59.9652 111.878 59.8897C111.883 59.8142 111.872 59.7385 111.844 59.6681C111.74 59.4881 111.4 59.3881 110.892 59.3881C110.492 59.3881 110.428 59.5401 110.404 59.5881C110.164 60.0201 110.68 61.1281 111.06 61.7281C111.081 61.7603 111.092 61.7977 111.092 61.8361V63.9321C111.09 63.9837 111.068 64.0325 111.031 64.0683C110.993 64.1041 110.944 64.1241 110.892 64.1241Z" fill="var(--illo-mid, #ddd3c6)"/>
<path id="Vector_21" d="M103.848 68.04L106.108 77L98.932 139.812H120.452L115.62 77.92L117.672 68.04L115.28 66.736L110.748 72.128L105.72 66.736L103.848 68.04Z" fill="none"/>
<path id="Vector_22" d="M54.9359 50.256C54.9359 49.5293 54.6473 48.8324 54.1334 48.3185C53.6196 47.8047 52.9226 47.516 52.196 47.516C51.925 47.5143 51.6553 47.5534 51.396 47.632C51.5306 46.7185 51.4453 45.7861 51.147 44.9123C50.8488 44.0385 50.3462 43.2485 49.6811 42.608C49.016 41.9676 48.2076 41.4952 47.3231 41.2301C46.4386 40.965 45.5037 40.9149 44.5959 41.084C44.0206 40.1507 43.1586 39.4288 42.1388 39.0262C41.1191 38.6236 39.9964 38.5621 38.9387 38.8507C37.881 39.1393 36.9452 39.7626 36.2712 40.6274C35.5973 41.4921 35.2215 42.5519 35.1999 43.648H35.1159C33.8989 43.6836 32.7437 44.1921 31.8955 45.0655C31.0472 45.9389 30.5728 47.1085 30.5728 48.326C30.5728 49.5435 31.0472 50.7131 31.8955 51.5865C32.7437 52.46 33.8989 52.9684 35.1159 53.004H52.2879C52.9996 52.9791 53.6737 52.6785 54.1679 52.1657C54.662 51.6529 54.9374 50.9681 54.9359 50.256Z" fill="var(--illo-light, #ebe3d8)"/>
<path id="Vector_23" d="M158.156 39.436C158.156 39.0229 158.06 38.6155 157.874 38.2464C157.689 37.8772 157.419 37.5566 157.088 37.3102C156.756 37.0637 156.371 36.8983 155.965 36.8271C155.558 36.7558 155.14 36.7808 154.744 36.9C154.782 36.635 154.802 36.3677 154.804 36.1C154.804 34.6148 154.214 33.1904 153.164 32.1402C152.114 31.09 150.689 30.5 149.204 30.5C148.858 30.5015 148.513 30.5336 148.172 30.596C147.62 29.6857 146.786 28.9799 145.797 28.5853C144.808 28.1907 143.717 28.1288 142.69 28.4089C141.662 28.689 140.754 29.2959 140.102 30.1379C139.45 30.9799 139.09 32.0112 139.076 33.076H138.992C137.816 33.111 136.7 33.6028 135.88 34.447C135.061 35.2912 134.603 36.4215 134.603 37.598C134.603 38.7746 135.061 39.9048 135.88 40.7491C136.7 41.5933 137.816 42.0851 138.992 42.12H155.6C156.293 42.096 156.948 41.8015 157.426 41.2998C157.904 40.798 158.166 40.1289 158.156 39.436Z" fill="var(--illo-light, #ebe3d8)"/>
<path id="Vector_24" d="M118.64 52.896C118.64 52.6546 118.592 52.4155 118.5 52.1925C118.407 51.9695 118.272 51.7669 118.101 51.5963C117.93 51.4258 117.727 51.2906 117.504 51.1986C117.281 51.1066 117.041 51.0595 116.8 51.06C116.621 51.0606 116.444 51.0862 116.272 51.136C116.301 50.9494 116.316 50.7608 116.316 50.572C116.316 49.5398 115.906 48.5498 115.176 47.8199C114.446 47.0901 113.456 46.68 112.424 46.68C112.184 46.6802 111.944 46.703 111.708 46.748C111.324 46.1179 110.746 45.6296 110.061 45.3568C109.376 45.084 108.62 45.0415 107.909 45.2356C107.197 45.4298 106.568 45.8501 106.116 46.4332C105.664 47.0162 105.414 47.7304 105.404 48.468H105.348C104.927 48.453 104.507 48.5229 104.114 48.6736C103.721 48.8243 103.362 49.0528 103.058 49.3453C102.755 49.6378 102.514 49.9884 102.35 50.3761C102.185 50.7638 102.1 51.1808 102.1 51.602C102.1 52.0233 102.185 52.4402 102.35 52.8279C102.514 53.2157 102.755 53.5662 103.058 53.8587C103.362 54.1512 103.721 54.3797 104.114 54.5304C104.507 54.6811 104.927 54.751 105.348 54.736H116.852C117.332 54.7245 117.788 54.5253 118.122 54.1813C118.456 53.8372 118.642 53.3757 118.64 52.896Z" fill="var(--illo-light, #ebe3d8)"/>
<path id="Vector_25" d="M84.54 33.788C84.54 33.4273 84.3967 33.0814 84.1416 32.8263C83.8866 32.5713 83.5407 32.428 83.18 32.428C83.0447 32.4273 82.9099 32.4462 82.78 32.484C82.8485 32.0296 82.8069 31.5654 82.6588 31.1303C82.5107 30.6953 82.2604 30.3022 81.9288 29.984C81.5973 29.6658 81.1942 29.4317 80.7535 29.3016C80.3127 29.1714 79.8472 29.1489 79.396 29.236C79.1118 28.7693 78.6836 28.4077 78.176 28.2056C77.6684 28.0034 77.1089 27.9717 76.5817 28.1152C76.0545 28.2588 75.5882 28.5698 75.2532 29.0013C74.9181 29.4329 74.7324 29.9617 74.724 30.508H74.684C74.0676 30.508 73.4765 30.7529 73.0407 31.1887C72.6048 31.6245 72.36 32.2156 72.36 32.832C72.36 33.4484 72.6048 34.0395 73.0407 34.4753C73.4765 34.9112 74.0676 35.156 74.684 35.156H83.2C83.5586 35.1507 83.9006 35.004 84.1516 34.7478C84.4025 34.4916 84.5421 34.1466 84.54 33.788Z" fill="var(--illo-light, #ebe3d8)"/>
<path id="Vector_26" d="M140.432 70.748H124.912C124.762 70.7485 124.617 70.7011 124.496 70.6129C124.376 70.5246 124.286 70.4 124.242 70.2574C124.197 70.1148 124.199 69.9617 124.248 69.8203C124.296 69.679 124.389 69.557 124.512 69.472L132.8 63.756C132.834 63.7325 132.875 63.7198 132.916 63.7198C132.957 63.7198 132.998 63.7325 133.032 63.756L140.832 69.484C140.952 69.5693 141.04 69.6909 141.085 69.8308C141.13 69.9707 141.128 70.1213 141.08 70.26C141.037 70.3992 140.951 70.5213 140.835 70.6089C140.719 70.6966 140.578 70.7452 140.432 70.748ZM132.928 64.168L124.744 69.804C124.693 69.8407 124.654 69.8925 124.634 69.9522C124.614 70.0119 124.613 70.0764 124.632 70.1366C124.65 70.1968 124.687 70.2496 124.738 70.2876C124.788 70.3255 124.849 70.3467 124.912 70.348H140.432C140.495 70.349 140.558 70.3292 140.609 70.2916C140.66 70.2541 140.698 70.2009 140.716 70.14C140.737 70.0806 140.739 70.0156 140.719 69.9555C140.699 69.8953 140.66 69.8435 140.608 69.808L132.928 64.168Z" fill="var(--illo-mid, #ddd3c6)"/>
<path id="Vector_27" d="M132.932 64.124C132.879 64.124 132.828 64.1029 132.791 64.0654C132.753 64.0279 132.732 63.977 132.732 63.924V61.884C132.528 61.56 131.688 60.116 132.088 59.388C132.176 59.2481 132.303 59.1363 132.452 59.0655C132.601 58.9946 132.768 58.9678 132.932 58.988C133.608 58.988 134.048 59.148 134.232 59.472C134.294 59.6042 134.322 59.7493 134.315 59.8949C134.308 60.0405 134.266 60.1823 134.192 60.308C134.179 60.3309 134.162 60.3509 134.141 60.367C134.12 60.3831 134.097 60.3948 134.071 60.4015C134.046 60.4083 134.019 60.4098 133.993 60.4061C133.967 60.4024 133.943 60.3935 133.92 60.38C133.874 60.3525 133.841 60.3082 133.828 60.2567C133.814 60.2051 133.822 60.1503 133.848 60.104C133.886 60.0384 133.908 59.9653 133.915 59.89C133.921 59.8146 133.91 59.7389 133.884 59.668C133.776 59.488 133.44 59.388 132.932 59.388C132.552 59.388 132.468 59.54 132.44 59.588C132.204 60.02 132.72 61.128 133.1 61.728C133.121 61.7602 133.132 61.7977 133.132 61.836V63.932C133.129 63.9833 133.107 64.0316 133.07 64.0672C133.033 64.1028 132.983 64.1231 132.932 64.124Z" fill="var(--illo-mid, #ddd3c6)"/>
<path id="Vector_28" d="M125.56 70.2121L139.712 70.0081V138.16L135.76 138.472L132.5 84.6881L127.476 137.892L124.212 137.776L125.56 70.2121Z" fill="var(--illo-light, #ebe3d8)"/>
<path id="Vector_29" d="M94.676 70.748H79.156C79.0065 70.7485 78.8608 70.7011 78.7402 70.6129C78.6197 70.5246 78.5305 70.4 78.4858 70.2574C78.4411 70.1148 78.4432 69.9617 78.4918 69.8203C78.5404 69.679 78.633 69.557 78.756 69.472L87.056 63.756C87.0901 63.7325 87.1305 63.7198 87.172 63.7198C87.2134 63.7198 87.2539 63.7325 87.288 63.756L95.084 69.484C95.2043 69.5687 95.2938 69.6901 95.3393 69.83C95.3847 69.97 95.3836 70.1208 95.336 70.26C95.2924 70.4012 95.2049 70.5247 95.0861 70.6125C94.9674 70.7003 94.8237 70.7478 94.676 70.748ZM87.168 64.168L78.984 69.804C78.9314 69.8394 78.8919 69.891 78.8717 69.951C78.8514 70.0111 78.8515 70.0761 78.872 70.136C78.8883 70.1983 78.9252 70.2533 78.9768 70.2918C79.0284 70.3303 79.0916 70.3501 79.156 70.348H94.676C94.7386 70.3472 94.7994 70.3268 94.8498 70.2897C94.9003 70.2526 94.9378 70.2006 94.9572 70.141C94.9766 70.0815 94.9769 70.0174 94.958 69.9576C94.9392 69.8979 94.9021 69.8456 94.852 69.808L87.168 64.168Z" fill="var(--illo-mid, #ddd3c6)"/>
<path id="Vector_30" d="M87.172 64.124C87.1189 64.124 87.068 64.1029 87.0305 64.0654C86.993 64.0279 86.972 63.977 86.972 63.924V61.884C86.772 61.56 85.932 60.116 86.332 59.388C86.4192 59.2481 86.5447 59.1361 86.6935 59.0653C86.8424 58.9944 87.0084 58.9676 87.172 58.988C87.852 58.988 88.288 59.148 88.472 59.472C88.5338 59.6039 88.5628 59.7488 88.5565 59.8944C88.5502 60.0399 88.5089 60.1818 88.436 60.308C88.4085 60.3537 88.3642 60.3868 88.3126 60.4002C88.261 60.4137 88.2062 60.4064 88.16 60.38C88.1149 60.3518 88.0827 60.3073 88.07 60.2558C88.0573 60.2042 88.0652 60.1498 88.092 60.104C88.1297 60.0384 88.1521 59.9651 88.1577 59.8896C88.1632 59.8141 88.1517 59.7384 88.124 59.668C88.02 59.488 87.68 59.388 87.172 59.388C86.772 59.388 86.708 59.54 86.684 59.588C86.444 60.02 86.96 61.128 87.34 61.728C87.3607 61.7602 87.3719 61.7976 87.372 61.836V63.932C87.3699 63.9836 87.3479 64.0325 87.3106 64.0683C87.2733 64.104 87.2236 64.124 87.172 64.124Z" fill="var(--illo-mid, #ddd3c6)"/>
<path id="Vector_31" d="M79.8 70.2121L93.952 70.0081V138.16L90 138.472L86.74 84.6881L81.72 137.892L78.452 137.776L79.8 70.2121Z" fill="var(--illo-light, #ebe3d8)"/>
<path id="Vector_32" d="M170.372 44.552H167.316V153.144H170.372V44.552Z" fill="var(--illo-light, #ebe3d8)"/>
<path id="Vector_33" d="M169.74 151.676H167.944C166.332 151.676 164.763 152.19 163.464 153.144H174.224C172.923 152.191 171.353 151.677 169.74 151.676Z" fill="var(--illo-light, #ebe3d8)"/>
<path id="Vector_34" d="M171.604 47.636H166.08L164.08 37.608H173.604L171.604 47.636Z" fill="var(--illo-light, #ebe3d8)"/>
<path id="Vector_35" d="M171.184 46.724H166.5L164.804 38.52H172.88L171.184 46.724Z" fill="var(--illo-paper, #f2ebe1)"/>
<path id="Vector_36" d="M173.744 38.1359H163.94L168.6 33.7679H169.084L173.744 38.1359Z" fill="var(--illo-light, #ebe3d8)"/>
<path id="Vector_37" d="M173.996 38.1359H163.688L162.984 37.2679H174.7L173.996 38.1359Z" fill="var(--illo-light, #ebe3d8)"/>
</g>
<g id="freepik--Shadow--inject-62">

</g>
<g id="freepik--character-1--inject-62">
<path id="Vector_38" d="M40.836 58.304C35.752 59.2 34.964 64.336 36.364 67.6C37.764 70.864 39.964 70.52 40.148 72.428C40.332 74.336 41.476 73.708 41.476 73.708V72.996C41.476 72.996 42.08 74.156 43.732 73.796C44.5501 73.6676 45.3394 73.3968 46.064 72.996L46.656 73.396C46.656 73.396 47.964 73.124 47.584 71.872C47.204 70.62 49.304 66.644 49.156 63.704C49.008 60.764 46.628 60.26 43.196 60.656L40.836 58.304Z" fill="var(--illo-ink, #12262b)"/>
<path id="Vector_39" d="M63.404 160.896L60.88 161.344L59.844 157.904L58.9 154.744L61.808 153.728L62.656 157.524L63.404 160.896Z" fill="#c94a24"/>
<path id="Vector_40" opacity="0.2" d="M62.668 157.604L59.856 157.972L58.908 154.78L61.812 153.748L62.668 157.604Z" fill="black"/>
<path id="Vector_41" d="M46.56 162.06H43.996L43.576 158.452L43.196 155.16L46.236 154.652L46.408 158.572L46.56 162.06Z" fill="#c94a24"/>
<path id="Vector_42" opacity="0.2" d="M46.408 158.604L43.576 158.48L43.196 155.172L46.236 154.66L46.408 158.604Z" fill="black"/>
<path id="Vector_43" d="M50.032 167.136C49.6239 166.809 49.1606 166.557 48.664 166.392C48.664 166.392 47.176 164.916 46.46 160.472L44.512 159.964C44.1813 159.883 43.8338 159.906 43.5167 160.03C43.1996 160.154 42.9284 160.373 42.74 160.656C42.6852 160.734 42.6434 160.821 42.616 160.912C42.5148 161.388 42.4453 161.871 42.408 162.356C42.212 163.86 42.38 167.236 42.38 167.236H42.732L42.872 164.172C42.924 163.132 43.72 164.352 43.948 165.472C44.176 166.592 44.66 167.784 46.94 167.84C49.6 167.892 50.704 167.788 50.032 167.136Z" fill="var(--illo-ink, #12262b)"/>
<path id="Vector_44" d="M67.032 166.836C66.6239 166.509 66.1606 166.257 65.664 166.092C65.664 166.092 64.176 164.616 63.46 160.172L61.512 159.664C61.1813 159.583 60.8338 159.606 60.5167 159.73C60.1997 159.854 59.9284 160.073 59.74 160.356C59.6852 160.434 59.6434 160.521 59.616 160.612C59.5148 161.088 59.4453 161.571 59.408 162.056C59.212 163.56 59.38 166.936 59.38 166.936H59.732L59.872 163.872C59.924 162.832 60.72 164.052 60.948 165.172C61.176 166.292 61.66 167.484 63.94 167.54C66.6 167.6 67.704 167.488 67.032 166.836Z" fill="var(--illo-ink, #12262b)"/>
<path id="Vector_45" d="M62.904 155.6L58.76 156.332C54.572 145.904 51.6 137.2 49.492 129.976C48.36 126.076 47.416 122.612 46.736 119.536L46.864 130.888V156.46H42.776C32.532 107.66 39.792 96.54 39.792 96.54L52.048 94.5C52.5348 96.7708 52.8782 99.07 53.076 101.384L53.628 105.452L58.4281 130.2L62.904 155.6Z" fill="#e8623a"/>
<g id="Group" opacity="0.4">
<path id="Vector_46" d="M62.904 155.6L58.76 156.332C54.572 145.904 51.6 137.2 49.492 129.976C48.36 126.076 47.416 122.612 46.736 119.536L46.864 130.888V156.46H42.776C32.532 107.66 39.792 96.54 39.792 96.54L52.048 94.5C52.5348 96.7708 52.8782 99.07 53.076 101.384L53.628 105.452L58.4281 130.2L62.904 155.6Z" fill="var(--illo-paper, #f2ebe1)"/>
</g>
<path id="Vector_47" d="M64.832 86.908L69.232 88.56C69.232 88.56 70.084 88.292 70.432 88.484C70.78 88.676 72.5079 90.408 72.4599 90.74C72.4119 91.072 70.8879 92.204 70.4159 91.992C69.9439 91.78 68.6759 90.064 68.6159 89.856L63.2 88.368L64.832 86.908Z" fill="#EEC1BB"/>
<path id="Vector_48" d="M51.656 75C53.096 75.764 58.284 82.804 58.972 83.276C60.172 84.112 67.192 87.636 67.192 87.636L66.392 89.476C66.392 89.476 61.3 87.616 58.28 86.628C55.72 85.792 51.276 80.992 51.276 80.992L51.656 75Z" fill="var(--illo-ink, #12262b)"/>
<path id="Vector_49" opacity="0.1" d="M51.656 75C53.096 75.764 58.284 82.804 58.972 83.276C60.172 84.112 67.192 87.636 67.192 87.636L66.392 89.476C66.392 89.476 61.3 87.616 58.28 86.628C55.72 85.792 51.276 80.992 51.276 80.992L51.656 75Z" fill="var(--illo-paper, #f2ebe1)"/>
<path id="Vector_50" opacity="0.2" d="M53.32 83.08C52.12 81.94 51.264 80.992 51.264 80.992L51.356 79.568L51.804 78.188C52.423 78.8272 52.8827 79.6031 53.1461 80.453C53.4095 81.3029 53.469 82.2028 53.32 83.08Z" fill="black"/>
<path id="Vector_51" opacity="0.2" d="M49.4921 129.976C48.3601 126.076 47.492 122.612 46.8 119.536C46.8602 115.896 47.1273 112.262 47.6 108.652C47.6 108.652 49.3881 122.692 49.4921 129.976Z" fill="black"/>
<path id="Vector_52" d="M37.356 81.56C37.84 83.104 38.212 84.444 38.512 85.64C39.2757 88.6517 39.7209 91.7353 39.84 94.84L52.344 93.76C52.844 84.96 52.62 80.112 52.396 77.692C52.144 75.112 51.748 75.02 51.748 75.02C51.748 75.02 48.948 74.748 46.52 74.764C44.6417 74.8294 42.7704 75.0272 40.92 75.356C39.1584 75.6478 37.4205 76.0676 35.72 76.612C36.0026 77.412 36.2626 78.1786 36.5 78.912C36.8 79.848 37.1 80.736 37.356 81.56Z" fill="#e8623a"/>
<path id="Vector_53" opacity="0.1" d="M37.356 81.56C37.84 83.104 38.212 84.444 38.512 85.64C39.2757 88.6517 39.7209 91.7353 39.84 94.84L52.344 93.76C52.844 84.96 52.62 80.112 52.396 77.692C52.144 75.112 51.748 75.02 51.748 75.02C51.748 75.02 48.948 74.748 46.52 74.764C44.6417 74.8294 42.7704 75.0272 40.92 75.356C39.1584 75.6478 37.4205 76.0676 35.72 76.612C36.0026 77.412 36.2626 78.1786 36.5 78.912C36.8 79.848 37.1 80.736 37.356 81.56Z" fill="var(--illo-paper, #f2ebe1)"/>
<path id="Vector_54" d="M46.3761 75.28C46.2478 75.2148 46.1139 75.1612 45.9761 75.12C45.6881 74.892 45.3401 74.344 45.3561 73.008C45.3663 72.4852 45.4144 71.9638 45.5001 71.448L41.7921 70.756C41.7921 70.756 43.0561 73.252 42.0001 75.104C41.6361 75.264 41.4201 75.504 41.4601 75.796C41.7401 77.94 46.3441 80.012 46.3441 80.012C46.3441 80.012 48.6161 76.512 46.3761 75.28Z" fill="#EEC1BB"/>
<path id="Vector_55" opacity="0.2" d="M45.52 71.448C45.4344 71.9638 45.3863 72.4852 45.376 73.008C42.872 73.008 41.812 70.756 41.812 70.756L45.52 71.448Z" fill="black"/>
<path id="Vector_56" d="M43.864 59.2C43.864 59.2 48.216 58.648 49.016 62.148C49.2482 63.1434 49.1929 64.1842 48.8565 65.1494C48.5202 66.1146 47.9166 66.9644 47.116 67.6L43.864 59.2Z" fill="var(--illo-ink, #12262b)"/>
<path id="Vector_57" d="M43.468 61.076C46.692 60.9 47.828 62.568 48.2441 65.876C48.7681 70.012 48.008 73.012 43.928 72.344C38.4 71.444 38.116 61.372 43.468 61.076Z" fill="#EEC1BB"/>
<path id="Vector_58" d="M46.152 65.8119C46.4353 66.28 46.7737 66.7124 47.16 67.0999C47.0719 67.2361 46.9481 67.3455 46.8021 67.416C46.656 67.4866 46.4934 67.5156 46.332 67.4999L46.152 65.8119Z" fill="#D4827D"/>
<path id="Vector_59" d="M44.164 65.6559C44.164 65.9239 44.056 66.1479 43.88 66.1599C43.704 66.1719 43.544 65.9719 43.524 65.7079C43.504 65.4439 43.628 65.2159 43.804 65.2039C43.98 65.1919 44.14 65.3919 44.164 65.6559Z" fill="var(--illo-ink, #12262b)"/>
<path id="Vector_60" d="M43.7321 65.2239L44.2921 64.9519C44.2921 64.9519 44.0441 65.4559 43.7321 65.2239Z" fill="var(--illo-ink, #12262b)"/>
<path id="Vector_61" d="M47.448 65.344C47.448 65.608 47.34 65.836 47.164 65.848C46.988 65.86 46.828 65.66 46.808 65.396C46.788 65.132 46.912 64.904 47.088 64.892C47.264 64.88 47.424 65.08 47.448 65.344Z" fill="var(--illo-ink, #12262b)"/>
<path id="Vector_62" d="M47.016 64.9079L47.576 64.6399C47.576 64.6399 47.328 65.1439 47.016 64.9079Z" fill="var(--illo-ink, #12262b)"/>
<path id="Vector_63" d="M42.636 64.136C42.6072 64.1346 42.5794 64.1249 42.556 64.108C42.5268 64.0864 42.5071 64.0543 42.5012 64.0185C42.4952 63.9826 42.5034 63.9459 42.524 63.916C42.7082 63.7037 42.9392 63.5372 43.1989 63.4296C43.4585 63.322 43.7396 63.2762 44.02 63.296C44.0379 63.2975 44.0553 63.3025 44.0712 63.3108C44.0872 63.3191 44.1013 63.3304 44.1128 63.3442C44.1243 63.3579 44.133 63.3738 44.1384 63.391C44.1437 63.4081 44.1456 63.4261 44.144 63.444C44.1436 63.4619 44.1394 63.4795 44.1318 63.4957C44.1241 63.5119 44.1131 63.5263 44.0996 63.538C44.086 63.5497 44.0701 63.5584 44.053 63.5636C44.0358 63.5687 44.0178 63.5702 44 63.568C43.7666 63.5534 43.5329 63.5915 43.3161 63.6794C43.0994 63.7673 42.9053 63.9029 42.748 64.076C42.7359 64.0946 42.7193 64.1099 42.6997 64.1203C42.6801 64.1308 42.6582 64.1362 42.636 64.136Z" fill="var(--illo-ink, #12262b)"/>
<path id="Vector_64" d="M47.644 63.4999C47.6185 63.5008 47.5934 63.4938 47.572 63.4799C47.4037 63.3616 47.2106 63.2835 47.0074 63.2516C46.8042 63.2197 46.5964 63.2348 46.4 63.2959C46.3665 63.3094 46.3291 63.3095 46.2955 63.2961C46.262 63.2827 46.2349 63.2568 46.22 63.2239C46.2121 63.2077 46.2075 63.1901 46.2067 63.1721C46.2058 63.154 46.2087 63.1361 46.2151 63.1192C46.2214 63.1023 46.2312 63.0869 46.2437 63.074C46.2563 63.061 46.2713 63.0508 46.288 63.0439C46.5248 62.9657 46.7764 62.943 47.0233 62.9777C47.2703 63.0124 47.5059 63.1035 47.712 63.2439C47.7276 63.253 47.7413 63.2651 47.7522 63.2795C47.763 63.2939 47.771 63.3103 47.7754 63.3278C47.7799 63.3453 47.7808 63.3635 47.7782 63.3814C47.7755 63.3993 47.7694 63.4164 47.76 63.4319C47.7489 63.4529 47.7321 63.4703 47.7116 63.4824C47.6912 63.4944 47.6677 63.5004 47.644 63.4999Z" fill="var(--illo-ink, #12262b)"/>
<path id="Vector_65" d="M40.2439 66.7039C40.2439 66.7039 41.6079 63.9719 41.2679 61.9399C41.2679 61.9399 47.5119 58.9799 48.1839 65.4479C48.1839 65.4479 48.4919 59.6559 42.9439 59.8479C37.3959 60.0399 37.8599 68.1279 40.8559 70.3879C40.8559 70.3719 39.4039 68.3999 40.2439 66.7039Z" fill="var(--illo-ink, #12262b)"/>
<path id="Vector_66" d="M44.4 58.9599C44.4 58.9599 47.048 58.3119 47.8 59.0119C48.552 59.7119 43.2 64.6599 40.4 65.1599C40.4 65.1599 39.448 68.2599 40.2 69.7119C40.2 69.7119 37.048 68.6119 36.9 63.8119C36.752 59.0119 41.816 57.1999 44.4 58.9599Z" fill="var(--illo-ink, #12262b)"/>
<path id="Vector_67" d="M40.8 67.356C40.774 67.172 40.712 66.995 40.6174 66.835C40.5229 66.6751 40.3977 66.5354 40.2491 66.4239C40.1004 66.3124 39.9313 66.2314 39.7512 66.1854C39.5712 66.1394 39.3839 66.1294 39.2 66.156C38.204 66.32 37.84 68.396 40.352 68.752C40.732 68.8 40.912 68.436 40.8 67.356Z" fill="#EEC1BB"/>
<path id="Vector_68" d="M42.4 65.248C42.3713 65.2475 42.3434 65.2385 42.3199 65.2221C42.2964 65.2058 42.2783 65.1827 42.268 65.156C42.2563 65.1215 42.2586 65.0838 42.2743 65.051C42.29 65.0181 42.3178 64.9926 42.352 64.98C45.992 63.672 47.404 59.264 47.416 59.22C47.427 59.1853 47.4512 59.1563 47.4833 59.1391C47.5154 59.1219 47.553 59.1179 47.588 59.128C47.6227 59.1391 47.6517 59.1632 47.6688 59.1953C47.686 59.2274 47.69 59.265 47.68 59.3C47.68 59.348 46.216 63.884 42.444 65.24L42.4 65.248Z" fill="var(--illo-ink, #12262b)"/>
<path id="Vector_69" d="M45.964 69.152C45.2685 69.1307 44.6074 68.8446 44.116 68.352C44.1036 68.3388 44.094 68.3234 44.0876 68.3065C44.0812 68.2897 44.0782 68.2717 44.0788 68.2537C44.0794 68.2357 44.0835 68.218 44.0909 68.2016C44.0983 68.1851 44.1088 68.1703 44.122 68.158C44.1351 68.1456 44.1505 68.136 44.1674 68.1296C44.1843 68.1232 44.2022 68.1202 44.2202 68.1208C44.2382 68.1214 44.256 68.1255 44.2724 68.1329C44.2888 68.1403 44.3036 68.1508 44.316 68.164C44.7814 68.62 45.4084 68.8731 46.06 68.868C46.0926 68.8735 46.1221 68.8904 46.1434 68.9157C46.1647 68.941 46.1764 68.9729 46.1764 69.006C46.1764 69.039 46.1647 69.071 46.1434 69.0963C46.1221 69.1215 46.0926 69.1384 46.06 69.144L45.964 69.152Z" fill="var(--illo-ink, #12262b)"/>
<path id="Vector_70" d="M48.4 74.7439C48.4 74.7439 47.144 82.9759 48.884 86.5639C49.914 88.7001 51.3251 90.6303 53.048 92.2599C53.048 92.2599 53.308 76.6599 51.756 74.9999C50.643 74.8525 49.5226 74.7671 48.4 74.7439Z" fill="var(--illo-ink, #12262b)"/>
<path id="Vector_71" opacity="0.1" d="M48.4 74.7439C48.4 74.7439 47.144 82.9759 48.884 86.5639C49.914 88.7001 51.3251 90.6303 53.048 92.2599C53.048 92.2599 53.308 76.6599 51.756 74.9999C50.643 74.8525 49.5226 74.7671 48.4 74.7439Z" fill="var(--illo-paper, #f2ebe1)"/>
<path id="Vector_72" d="M39.916 75.3839C39.916 75.3839 44.232 80.0639 44.4 84.3999C44.568 88.7359 39.12 92.8439 39.12 92.8439L37.82 84.7999L35.752 76.6079C35.752 76.6079 38.196 75.4039 39.916 75.3839Z" fill="var(--illo-ink, #12262b)"/>
<path id="Vector_73" opacity="0.1" d="M44.4 84.3999C44.56 88.7279 39.12 92.8439 39.12 92.8439L38.14 86.7119L37.82 84.7999L36.84 80.9199L35.752 76.6079C35.752 76.6079 38.196 75.4079 39.916 75.4079C39.916 75.3839 44.232 80.0639 44.4 84.3999Z" fill="var(--illo-paper, #f2ebe1)"/>
<path id="Vector_74" opacity="0.2" d="M38.128 86.708L37.82 84.8L36.84 80.92L37.552 80C37.552 80 39.312 84.612 38.128 86.708Z" fill="black"/>
<path id="Vector_75" d="M39.8399 94.82L52.3439 93.74V95.884L39.5439 97.012L39.8399 94.82Z" fill="var(--illo-ink, #12262b)"/>
<path id="Vector_76" d="M48.608 94.1159C48.5289 94.043 48.4353 93.9875 48.3333 93.953C48.2313 93.9185 48.1232 93.9059 48.016 93.9159L46.456 94.0479C46.2615 94.064 46.0802 94.1528 45.9482 94.2967C45.8163 94.4405 45.7434 94.6287 45.744 94.8239V95.8199C45.744 96.0257 45.8258 96.2231 45.9713 96.3686C46.1168 96.5142 46.3142 96.5959 46.52 96.5959H46.588L48.152 96.4599C48.3462 96.4438 48.527 96.3548 48.6584 96.2109C48.7897 96.067 48.8617 95.8787 48.86 95.6839V94.6919C48.8591 94.5839 48.8363 94.4771 48.793 94.3781C48.7497 94.2791 48.6867 94.1899 48.608 94.1159ZM48.116 96.0559L46.556 96.1919C46.5039 96.1979 46.4512 96.1924 46.4014 96.1758C46.3517 96.1592 46.3061 96.1319 46.268 96.0959C46.2288 96.0615 46.1974 96.019 46.176 95.9714C46.1546 95.9238 46.1437 95.8721 46.144 95.8199V94.8239C46.1427 94.7292 46.1776 94.6376 46.2415 94.5678C46.3054 94.4979 46.3936 94.455 46.488 94.4479L48.052 94.3119H48.084C48.1776 94.3124 48.2676 94.3481 48.336 94.4119C48.3753 94.4464 48.4067 94.4888 48.4281 94.5364C48.4495 94.5841 48.4604 94.6357 48.46 94.6879V94.8399C48.4389 94.8357 48.4171 94.8357 48.396 94.8399L47.96 94.8719C47.8903 94.8781 47.8258 94.9112 47.7802 94.9643C47.7346 95.0173 47.7116 95.0861 47.716 95.1559C47.7186 95.1906 47.7279 95.2245 47.7436 95.2556C47.7592 95.2866 47.7809 95.3143 47.8073 95.337C47.8337 95.3597 47.8643 95.3769 47.8974 95.3877C47.9304 95.3985 47.9653 95.4027 48 95.3999L48.436 95.3679H48.46V95.6919C48.4574 95.7843 48.4209 95.8724 48.3574 95.9395C48.294 96.0067 48.2081 96.0481 48.116 96.0559Z" fill="var(--illo-paper, #f2ebe1)"/>
<path id="Vector_77" d="M40.1479 92.536L41.3839 82.552H47.5839L46.4359 92.072L40.1479 92.536Z" fill="#e8623a"/>
<path id="Vector_78" opacity="0.6" d="M40.1479 92.536L41.3839 82.552H47.5839L46.4359 92.072L40.1479 92.536Z" fill="var(--illo-paper, #f2ebe1)"/>
<path id="Vector_79" d="M34.7 91.0879L39.02 88.3639C39.02 88.3639 39.352 87.4519 39.752 87.2679C40.152 87.0839 42.78 86.7359 43.0359 86.9959C43.292 87.2559 43.272 89.3159 42.776 89.5839C42.28 89.8519 39.976 89.8239 39.744 89.7359L34.904 93.4479L34.7 91.0879Z" fill="#EEC1BB"/>
<path id="Vector_80" d="M35.752 76.5919C35.752 76.5919 38.576 80.6959 38.152 84.1919L34.42 90.3999L36.936 89.1119L38.08 91.2639C38.08 91.2639 35.2 95.7399 31.492 94.6879C27.784 93.6359 35.752 76.5919 35.752 76.5919Z" fill="var(--illo-ink, #12262b)"/>
<path id="Vector_81" opacity="0.1" d="M35.752 76.5919C35.752 76.5919 38.576 80.6959 38.152 84.1919L34.42 90.3999L36.936 89.1119L38.08 91.2639C38.08 91.2639 35.2 95.7399 31.492 94.6879C27.784 93.6359 35.752 76.5919 35.752 76.5919Z" fill="var(--illo-paper, #f2ebe1)"/>
<path id="Vector_82" d="M36.676 89.0079L38.108 91.6719L38.432 90.9119L37.288 88.7439L36.676 89.0079Z" fill="#e8623a"/>
<path id="Vector_83" d="M41.384 82.552C41.384 82.552 41.612 82.552 41.784 83.184C41.956 83.816 41.468 89.552 42.376 91.096L48.232 90.884C48.232 90.884 47.432 89.632 47.6 87.02C47.768 84.408 47.876 83.104 47.6 82.552H41.384Z" fill="#e8623a"/>
<path id="Vector_84" opacity="0.7" d="M41.384 82.552C41.384 82.552 41.612 82.552 41.784 83.184C41.956 83.816 41.468 89.552 42.376 91.096L48.232 90.884C48.232 90.884 47.432 89.632 47.6 87.02C47.768 84.408 47.876 83.104 47.6 82.552H41.384Z" fill="var(--illo-paper, #f2ebe1)"/>
<path id="Vector_85" d="M65.896 89.7279L67.196 87.2479L67.644 87.7759L66.772 89.7279H65.896Z" fill="#e8623a"/>
</g>
<g id="freepik--Table--inject-62">
<path id="Vector_86" d="M57.972 110.776H54.824V167.552H57.972V110.776Z" fill="var(--illo-ink, #12262b)"/>
<path id="Vector_87" d="M81.972 110.776H78.824V167.552H81.972V110.776Z" fill="var(--illo-ink, #12262b)"/>
<path id="Vector_88" d="M109.972 110.776H106.824V167.552H109.972V110.776Z" fill="var(--illo-ink, #12262b)"/>
<path id="Vector_89" d="M133.972 110.776H130.824V167.552H133.972V110.776Z" fill="var(--illo-ink, #12262b)"/>
<path id="Vector_90" d="M135.668 109.396H53.132V114.444H135.668V109.396Z" fill="var(--illo-ink, #12262b)"/>
<path id="Vector_91" opacity="0.1" d="M57.976 131.564V167.552H54.824V130.84L57.976 131.564Z" fill="var(--illo-paper, #f2ebe1)"/>
<path id="Vector_92" opacity="0.2" d="M81.976 137.092V167.552H78.824V136.368L81.976 137.092Z" fill="var(--illo-paper, #f2ebe1)"/>
<path id="Vector_93" opacity="0.1" d="M109.976 143.54V167.552H106.824V142.816L109.976 143.54Z" fill="var(--illo-paper, #f2ebe1)"/>
<path id="Vector_94" opacity="0.2" d="M133.976 149.068V167.552H130.824V148.34L133.976 149.068Z" fill="var(--illo-paper, #f2ebe1)"/>
<path id="Vector_95" opacity="0.2" d="M135.668 109.396H53.132V114.444H135.668V109.396Z" fill="var(--illo-paper, #f2ebe1)"/>
<path id="Vector_96" opacity="0.2" d="M135.668 109.396H80.3999V114.444H135.668V109.396Z" fill="var(--illo-paper, #f2ebe1)"/>
<path id="Vector_97" d="M133.976 109.396H82.7119V135.768H133.976V109.396Z" fill="#e8623a"/>
<g id="Group_2" opacity="0.6">
<path id="Vector_98" d="M90.14 128C90.14 126.252 91.48 125 93.288 125C93.7396 124.98 94.19 125.062 94.6055 125.24C95.0211 125.418 95.3911 125.687 95.688 126.028L94.8 126.8C94.6226 126.585 94.3995 126.413 94.1469 126.295C93.8943 126.177 93.6186 126.118 93.34 126.12C92.8478 126.12 92.3757 126.316 92.0276 126.664C91.6796 127.012 91.484 127.484 91.484 127.976C91.484 128.468 91.6796 128.94 92.0276 129.288C92.3757 129.636 92.8478 129.832 93.34 129.832C93.6195 129.835 93.8959 129.774 94.1487 129.655C94.4015 129.536 94.6242 129.361 94.8 129.144L95.66 129.944C95.3652 130.288 94.9958 130.56 94.5799 130.74C94.1639 130.919 93.7125 131.001 93.26 130.98C91.48 130.98 90.14 129.728 90.14 128Z" fill="var(--illo-paper, #f2ebe1)"/>
<path id="Vector_99" d="M101.892 125.08V130.88H100.548V128.5H97.916V130.88H96.572V125.08H97.916V127.368H100.548V125.08H101.892Z" fill="var(--illo-paper, #f2ebe1)"/>
<path id="Vector_100" d="M107.08 129.636H104.4L103.888 130.88H102.512L105.096 125.08H106.4L108.996 130.88H107.6L107.08 129.636ZM106.66 128.616L105.74 126.4L104.82 128.616H106.66Z" fill="var(--illo-paper, #f2ebe1)"/>
<path id="Vector_101" d="M113.3 130.88L112.18 129.28H110.948V130.88H109.6V125.08H112.112C113.66 125.08 114.628 125.88 114.628 127.184C114.643 127.576 114.536 127.963 114.321 128.292C114.106 128.62 113.794 128.873 113.428 129.016L114.728 130.88H113.3ZM112.04 126.176H110.948V128.196H112.04C112.84 128.196 113.272 127.816 113.272 127.184C113.272 126.552 112.86 126.176 112.04 126.176Z" fill="var(--illo-paper, #f2ebe1)"/>
<path id="Vector_102" d="M115.688 125.08H117.032V130.88H115.688V125.08Z" fill="var(--illo-paper, #f2ebe1)"/>
<path id="Vector_103" d="M119.6 126.176H117.744V125.08H122.8V126.176H120.944V130.88H119.6V126.176Z" fill="var(--illo-paper, #f2ebe1)"/>
<path id="Vector_104" d="M126.196 128.824V130.88H124.856V128.8L122.612 125.072H124.036L125.584 127.648L127.132 125.072H128.452L126.196 128.824Z" fill="var(--illo-paper, #f2ebe1)"/>
</g>
<g id="Group_3" opacity="0.6">
<path id="Vector_105" d="M101.496 116.72L101.816 116.012C102.213 116.285 102.682 116.433 103.164 116.436C103.72 116.436 103.964 116.248 103.964 116C103.964 115.236 101.596 115.76 101.596 114.244C101.596 113.552 102.152 112.976 103.312 112.976C103.808 112.967 104.297 113.091 104.728 113.336L104.436 114.052C104.093 113.851 103.705 113.741 103.308 113.732C102.748 113.732 102.532 113.944 102.532 114.2C102.532 114.952 104.904 114.432 104.904 115.928C104.904 116.608 104.336 117.192 103.172 117.192C102.578 117.209 101.994 117.044 101.496 116.72Z" fill="var(--illo-paper, #f2ebe1)"/>
<path id="Vector_106" d="M108.216 116.248H106.324L105.964 117.124H104.996L106.8 113.048H107.732L109.556 117.124H108.564L108.216 116.248ZM107.92 115.532L107.272 113.972L106.628 115.532H107.92Z" fill="var(--illo-paper, #f2ebe1)"/>
<path id="Vector_107" d="M110 113.048H110.944V116.352H112.988V117.124H110V113.048Z" fill="var(--illo-paper, #f2ebe1)"/>
<path id="Vector_108" d="M116.664 116.364V117.124H113.508V113.048H116.588V113.804H114.444V114.688H116.336V115.42H114.444V116.364H116.664Z" fill="var(--illo-paper, #f2ebe1)"/>
</g>
<g id="Group_4" opacity="0.3">
<path id="Vector_109" d="M106.28 120.18H107.08V120.876H106.3V123.24H105.392V120.876H104.908V120.18H105.392V120.04C105.381 119.881 105.404 119.722 105.461 119.573C105.518 119.424 105.607 119.289 105.721 119.179C105.835 119.068 105.972 118.983 106.123 118.931C106.273 118.879 106.433 118.86 106.592 118.876C106.834 118.866 107.074 118.924 107.284 119.044L107.044 119.7C106.935 119.628 106.807 119.591 106.676 119.592C106.408 119.592 106.276 119.736 106.276 120.044L106.28 120.18Z" fill="var(--illo-paper, #f2ebe1)"/>
<path id="Vector_110" d="M107.264 121.676C107.239 121.331 107.319 120.986 107.492 120.687C107.666 120.387 107.926 120.147 108.238 119.998C108.55 119.848 108.9 119.796 109.242 119.847C109.584 119.899 109.903 120.053 110.156 120.288C110.41 120.524 110.587 120.83 110.664 121.167C110.741 121.505 110.715 121.858 110.589 122.18C110.463 122.502 110.243 122.779 109.957 122.975C109.672 123.17 109.334 123.275 108.988 123.276C108.768 123.293 108.546 123.264 108.338 123.192C108.129 123.119 107.938 123.004 107.776 122.854C107.614 122.703 107.485 122.521 107.396 122.318C107.308 122.116 107.263 121.897 107.264 121.676ZM109.784 121.676C109.771 121.521 109.713 121.374 109.617 121.252C109.522 121.129 109.393 121.037 109.246 120.987C109.099 120.937 108.941 120.93 108.79 120.969C108.64 121.007 108.504 121.088 108.399 121.202C108.293 121.316 108.224 121.458 108.198 121.611C108.172 121.764 108.192 121.922 108.254 122.064C108.316 122.206 108.418 122.327 108.547 122.412C108.677 122.498 108.829 122.543 108.984 122.544C109.095 122.544 109.205 122.522 109.307 122.477C109.408 122.433 109.5 122.368 109.575 122.286C109.65 122.205 109.708 122.108 109.744 122.003C109.78 121.898 109.793 121.787 109.784 121.676Z" fill="var(--illo-paper, #f2ebe1)"/>
<path id="Vector_111" d="M113.256 120.064V120.9H113.052C112.936 120.89 112.82 120.906 112.711 120.947C112.603 120.988 112.505 121.053 112.425 121.137C112.345 121.222 112.285 121.323 112.249 121.433C112.214 121.544 112.204 121.661 112.22 121.776V123.252H111.308V120.12H112.176V120.52C112.306 120.363 112.472 120.239 112.66 120.16C112.848 120.08 113.053 120.047 113.256 120.064Z" fill="var(--illo-paper, #f2ebe1)"/>
</g>
<path id="Vector_112" d="M87.78 101.62V101.972C87.7668 102.236 87.6573 102.485 87.4722 102.673C87.2871 102.861 87.0393 102.975 86.776 102.992C86.776 102.992 87.38 103.068 87.396 103.28C87.4138 103.433 87.3888 103.588 87.324 103.728L74.832 103.464C74.6578 103.467 74.4848 103.435 74.3229 103.371C74.161 103.306 74.0133 103.211 73.8885 103.089C73.7636 102.968 73.664 102.823 73.5953 102.662C73.5265 102.502 73.4901 102.33 73.488 102.156V101.808C73.4923 101.598 73.5604 101.395 73.6833 101.225C73.8063 101.055 73.9781 100.926 74.176 100.856C73.9535 100.86 73.7368 100.928 73.552 101.052C73.48 101.112 73.404 100.824 73.42 100.652C73.42 100.592 73.42 100.544 73.472 100.54C81.8 99.896 83.252 99.88 86.468 100.368C87.268 100.492 87.612 100.792 87.748 101.376C87.7704 101.455 87.7812 101.538 87.78 101.62Z" fill="var(--illo-ink, #12262b)"/>
<path id="Vector_113" opacity="0.1" d="M87.78 101.62V101.972C86.736 102.176 84.036 102.204 83.172 102.252C82.12 102.312 81.948 101.94 81.948 101.94C81.8538 101.635 81.694 101.354 81.4798 101.117C81.2656 100.88 81.0022 100.693 80.708 100.568C79.68 100.088 73.6 100.648 73.412 100.664C73.412 100.604 73.412 100.556 73.464 100.552C81.792 99.908 83.244 99.892 86.46 100.38C87.26 100.504 87.604 100.804 87.74 101.388C87.764 101.463 87.7775 101.541 87.78 101.62Z" fill="var(--illo-paper, #f2ebe1)"/>
<path id="Vector_114" opacity="0.1" d="M73.6759 101.932C73.6759 101.932 73.6759 100.876 74.2719 100.856C74.8679 100.836 79.5839 100.7 80.0799 100.952C80.2679 101.035 80.4364 101.156 80.5742 101.309C80.7121 101.461 80.8163 101.641 80.8799 101.836C80.9759 102.14 80.4799 102.712 79.4559 102.844C79.4559 102.844 80.0839 102.272 79.7279 102.044C79.3719 101.816 73.8359 101.484 73.6759 101.932Z" fill="var(--illo-paper, #f2ebe1)"/>
<path id="Vector_115" opacity="0.1" d="M87.78 101.62V101.972C87.7668 102.236 87.6573 102.485 87.4722 102.673C87.2871 102.861 87.0393 102.975 86.776 102.992C86.776 102.992 87.38 103.068 87.396 103.28C87.4138 103.433 87.3888 103.588 87.324 103.728L74.832 103.464C74.6578 103.467 74.4848 103.435 74.3229 103.371C74.161 103.306 74.0133 103.211 73.8885 103.089C73.7636 102.968 73.664 102.823 73.5953 102.662C73.5265 102.502 73.4901 102.33 73.488 102.156V101.808C73.4923 101.598 73.5604 101.395 73.6833 101.225C73.8063 101.055 73.9781 100.926 74.176 100.856C73.9535 100.86 73.7368 100.928 73.552 101.052C73.48 101.112 73.404 100.824 73.42 100.652C73.42 100.592 73.42 100.544 73.472 100.54C81.8 99.896 83.252 99.88 86.468 100.368C87.268 100.492 87.612 100.792 87.748 101.376C87.7704 101.455 87.7812 101.538 87.78 101.62Z" fill="var(--illo-paper, #f2ebe1)"/>
<path id="Vector_116" d="M87.644 104.572V104.972C87.6265 105.268 87.4999 105.547 87.2886 105.756C87.0773 105.964 86.7964 106.087 86.5 106.1C86.8131 106.101 87.1253 106.133 87.432 106.196C87.4891 106.212 87.5401 106.245 87.5779 106.291C87.6158 106.337 87.6389 106.393 87.644 106.452H73.096C72.6999 106.452 72.32 106.295 72.0395 106.015C71.7591 105.736 71.601 105.356 71.6 104.96V104.56C71.6091 104.322 71.6906 104.093 71.8335 103.903C71.9765 103.713 72.1741 103.571 72.4 103.496C72.1493 103.498 71.9047 103.573 71.696 103.712C71.616 103.78 71.536 103.456 71.556 103.276C71.556 103.208 71.556 103.156 71.616 103.152C80.964 102.552 82.596 102.556 86.192 103.152C87.096 103.3 87.472 103.644 87.616 104.296C87.6362 104.387 87.6456 104.479 87.644 104.572Z" fill="#e8623a"/>
<path id="Vector_117" opacity="0.2" d="M87.644 104.572V104.972C87.6265 105.268 87.4999 105.547 87.2886 105.756C87.0773 105.964 86.7964 106.087 86.5 106.1C86.8131 106.101 87.1253 106.133 87.432 106.196C87.4891 106.212 87.5401 106.245 87.5779 106.291C87.6158 106.337 87.6389 106.393 87.644 106.452H73.096C72.6999 106.452 72.32 106.295 72.0395 106.015C71.7591 105.736 71.601 105.356 71.6 104.96V104.56C71.6091 104.322 71.6906 104.093 71.8335 103.903C71.9765 103.713 72.1741 103.571 72.4 103.496C72.1493 103.498 71.9047 103.573 71.696 103.712C71.616 103.78 71.536 103.456 71.556 103.276C71.556 103.208 71.556 103.156 71.616 103.152C80.964 102.552 82.596 102.556 86.192 103.152C87.096 103.3 87.472 103.644 87.616 104.296C87.6362 104.387 87.6456 104.479 87.644 104.572Z" fill="var(--illo-paper, #f2ebe1)"/>
<path id="Vector_118" opacity="0.1" d="M87.644 104.572V104.972C86.468 105.184 83.44 105.176 82.472 105.216C81.272 105.272 81.104 104.844 81.104 104.844C81.0021 104.501 80.8266 104.184 80.5896 103.916C80.3526 103.648 80.0599 103.435 79.732 103.292C78.588 102.736 71.76 103.292 71.548 103.292C71.548 103.224 71.548 103.172 71.608 103.168C80.956 102.568 82.588 102.572 86.184 103.168C87.088 103.316 87.464 103.66 87.608 104.312C87.6297 104.397 87.6418 104.484 87.644 104.572Z" fill="var(--illo-paper, #f2ebe1)"/>
<path id="Vector_119" opacity="0.1" d="M71.8159 104.712C71.8159 104.712 71.8159 103.512 72.5039 103.512C73.1919 103.512 78.4639 103.42 79.0159 103.708C79.2248 103.803 79.4107 103.942 79.5612 104.115C79.7116 104.288 79.8231 104.492 79.8879 104.712C79.9919 105.056 79.4399 105.688 78.2879 105.82C78.2879 105.82 78.9999 105.188 78.6039 104.924C78.2079 104.66 71.9999 104.208 71.8159 104.712Z" fill="var(--illo-paper, #f2ebe1)"/>
<path id="Vector_120" d="M116.736 98.484H94.3999V109.396H116.736V98.484Z" fill="#e8623a"/>
<path id="Vector_121" opacity="0.6" d="M116.736 98.484H94.3999V109.396H116.736V98.484Z" fill="var(--illo-paper, #f2ebe1)"/>
<path id="Vector_122" opacity="0.3" d="M116.732 98.484H100.908V109.396H116.732V98.484Z" fill="var(--illo-paper, #f2ebe1)"/>
<path id="Vector_123" d="M114.568 102.408H102.964V105.968H114.568V102.408Z" fill="var(--illo-paper, #f2ebe1)"/>
<path id="Vector_124" d="M104.32 103.536H104.928C105.031 103.529 105.134 103.542 105.231 103.576C105.328 103.61 105.417 103.664 105.492 103.734C105.567 103.804 105.627 103.889 105.668 103.983C105.709 104.077 105.731 104.179 105.731 104.282C105.731 104.385 105.709 104.487 105.668 104.581C105.627 104.675 105.567 104.76 105.492 104.83C105.417 104.9 105.328 104.954 105.231 104.988C105.134 105.022 105.031 105.036 104.928 105.028H104.32V103.536ZM104.92 104.892C105.004 104.899 105.089 104.888 105.169 104.861C105.249 104.833 105.322 104.789 105.384 104.732C105.446 104.675 105.496 104.605 105.53 104.528C105.564 104.45 105.581 104.367 105.581 104.282C105.581 104.198 105.564 104.114 105.53 104.036C105.496 103.959 105.446 103.889 105.384 103.832C105.322 103.775 105.249 103.731 105.169 103.703C105.089 103.676 105.004 103.665 104.92 103.672H104.48V104.892H104.92Z" fill="var(--illo-ink, #12262b)"/>
<path id="Vector_125" d="M105.948 104.284C105.939 104.124 105.979 103.965 106.061 103.828C106.143 103.691 106.265 103.582 106.41 103.514C106.555 103.447 106.717 103.425 106.875 103.45C107.033 103.476 107.18 103.549 107.296 103.659C107.413 103.769 107.493 103.911 107.528 104.067C107.562 104.223 107.549 104.386 107.49 104.535C107.431 104.684 107.329 104.812 107.197 104.902C107.064 104.992 106.908 105.04 106.748 105.04C106.645 105.047 106.542 105.032 106.445 104.997C106.347 104.962 106.259 104.907 106.183 104.836C106.108 104.765 106.049 104.68 106.008 104.585C105.968 104.49 105.947 104.387 105.948 104.284ZM107.356 104.284C107.358 104.159 107.323 104.036 107.256 103.932C107.188 103.827 107.091 103.744 106.976 103.695C106.861 103.646 106.734 103.632 106.612 103.655C106.489 103.678 106.376 103.737 106.287 103.825C106.198 103.913 106.137 104.025 106.113 104.148C106.088 104.27 106.1 104.397 106.148 104.512C106.196 104.628 106.277 104.726 106.381 104.795C106.485 104.864 106.607 104.901 106.732 104.9C106.814 104.902 106.895 104.888 106.971 104.858C107.048 104.828 107.117 104.782 107.175 104.725C107.233 104.667 107.28 104.599 107.311 104.523C107.342 104.447 107.357 104.366 107.356 104.284Z" fill="var(--illo-ink, #12262b)"/>
<path id="Vector_126" d="M109.112 103.536V105.028H108.98L108.024 103.828V105.028H107.864V103.536H108L108.96 104.736V103.536H109.112Z" fill="var(--illo-ink, #12262b)"/>
<path id="Vector_127" d="M110.532 104.632H109.7L109.52 105.032H109.356L110.04 103.54H110.196L110.876 105.032H110.712L110.532 104.632ZM110.472 104.504L110.116 103.704L109.76 104.504H110.472Z" fill="var(--illo-ink, #12262b)"/>
<path id="Vector_128" d="M111.336 103.672H110.8V103.536H112V103.672H111.476V105.028H111.316L111.336 103.672Z" fill="var(--illo-ink, #12262b)"/>
<path id="Vector_129" d="M113.324 104.892V105.028H112.268V103.536H113.292V103.672H112.428V104.204H113.2V104.34H112.428V104.892H113.324Z" fill="var(--illo-ink, #12262b)"/>
<path id="Vector_130" d="M100.912 98.484L99.276 101.068H92.944L94.4 98.484H100.912Z" fill="#e8623a"/>
<path id="Vector_131" d="M100.912 98.484L102.336 101.068H118.136L116.732 98.484H100.912Z" fill="#e8623a"/>
<path id="Vector_132" opacity="0.4" d="M100.912 98.484L99.276 101.068H92.944L94.4 98.484H100.912Z" fill="var(--illo-paper, #f2ebe1)"/>
<path id="Vector_133" opacity="0.6" d="M100.912 98.484L102.336 101.068H118.136L116.732 98.484H100.912Z" fill="var(--illo-paper, #f2ebe1)"/>
<path id="Vector_134" d="M88.516 107.52V107.92C88.4985 108.216 88.3719 108.495 88.1606 108.704C87.9493 108.912 87.6684 109.035 87.372 109.048C87.6851 109.049 87.9973 109.081 88.304 109.144C88.3611 109.16 88.4121 109.193 88.45 109.239C88.4878 109.285 88.5109 109.341 88.516 109.4H73.968C73.7724 109.401 73.5786 109.363 73.398 109.288C73.2173 109.213 73.0534 109.103 72.916 108.964C72.7776 108.826 72.6679 108.662 72.593 108.481C72.5182 108.301 72.4798 108.107 72.48 107.912V107.512C72.4888 107.275 72.5702 107.046 72.7133 106.856C72.8563 106.667 73.0541 106.526 73.28 106.452C73.0299 106.454 72.7856 106.528 72.576 106.664C72.496 106.732 72.416 106.408 72.436 106.228C72.436 106.16 72.436 106.108 72.496 106.104C81.844 105.504 83.476 105.508 87.072 106.104C87.976 106.256 88.352 106.596 88.496 107.252C88.5135 107.34 88.5202 107.43 88.516 107.52Z" fill="var(--illo-ink, #12262b)"/>
<path id="Vector_135" opacity="0.1" d="M88.5159 107.52V107.92C87.3399 108.132 84.3119 108.124 83.3439 108.168C82.1439 108.22 81.9759 107.796 81.9759 107.796C81.8739 107.453 81.6983 107.136 81.4613 106.867C81.2244 106.598 80.9318 106.384 80.6039 106.24C79.4599 105.688 72.6319 106.24 72.4199 106.24C72.4199 106.172 72.4199 106.12 72.4799 106.116C81.8279 105.516 83.4599 105.52 87.0559 106.116C87.9599 106.268 88.3359 106.608 88.4799 107.264C88.5019 107.348 88.514 107.434 88.5159 107.52Z" fill="var(--illo-paper, #f2ebe1)"/>
<path id="Vector_136" opacity="0.1" d="M72.692 107.66C72.692 107.66 72.692 106.46 73.376 106.46C74.06 106.46 79.336 106.364 79.892 106.656C80.1004 106.751 80.2861 106.889 80.4366 107.061C80.587 107.234 80.6987 107.437 80.764 107.656C80.864 108 80.312 108.632 79.164 108.764C79.164 108.764 79.876 108.132 79.48 107.868C79.084 107.604 72.876 107.16 72.692 107.66Z" fill="var(--illo-paper, #f2ebe1)"/>
</g>
<g id="freepik--character-2--inject-62">
<path id="Vector_137" d="M156.328 89.0761C156.308 89.0764 156.288 89.0704 156.272 89.0589C156.255 89.0474 156.243 89.031 156.236 89.0121C156.211 88.9044 156.213 88.7923 156.241 88.6855C156.27 88.5788 156.325 88.4807 156.4 88.4001C157.288 87.0841 161.896 84.5121 166.452 84.4241C170.824 84.3401 174.164 85.5681 176.38 88.0841C176.66 88.4001 176.756 88.6441 176.68 88.8321C176.644 88.899 176.592 88.9558 176.529 88.9971C176.465 89.0384 176.392 89.0628 176.316 89.0681L156.328 89.0761ZM156.408 88.8761H176.292C176.292 88.8761 176.444 88.8761 176.48 88.7641C176.516 88.6521 176.512 88.5641 176.216 88.2241C174.008 85.7201 170.804 84.5401 166.44 84.6241C161.944 84.7121 157.416 87.2281 156.548 88.5121C156.463 88.6154 156.411 88.7425 156.4 88.8761H156.408Z" fill="var(--illo-ink, #12262b)"/>
<path id="Vector_138" d="M166.44 84.6321C166.414 84.6321 166.388 84.6216 166.369 84.6028C166.351 84.5841 166.34 84.5586 166.34 84.5321V82.5081C166.016 82.2801 164.16 80.9081 164.612 79.5481C164.896 78.7041 166.036 78.3721 166.972 78.5321C167.908 78.6921 168.416 79.2601 168.4 80.0241C168.4 80.0372 168.396 80.0501 168.391 80.0621C168.385 80.074 168.378 80.0847 168.368 80.0937C168.358 80.1026 168.347 80.1095 168.335 80.114C168.322 80.1186 168.309 80.1206 168.296 80.1201C168.27 80.1191 168.246 80.1081 168.228 80.0894C168.21 80.0708 168.2 80.0459 168.2 80.0201C168.2 79.3521 167.74 78.8721 166.936 78.7321C166.132 78.5921 165.048 78.8801 164.804 79.6121C164.368 80.9161 166.476 82.3561 166.496 82.3721C166.51 82.3814 166.521 82.3939 166.529 82.4086C166.536 82.4232 166.54 82.4396 166.54 82.4561V84.5321C166.54 84.5586 166.529 84.5841 166.511 84.6028C166.492 84.6216 166.467 84.6321 166.44 84.6321Z" fill="var(--illo-ink, #12262b)"/>
<path id="Vector_139" d="M158.132 88.356C158.132 88.356 157.392 101.22 158.66 120.528H162.716C162.716 120.528 164.032 100.58 166.448 94.884C166.448 94.884 170.684 115.144 172.692 120.052H175.328C175.328 120.052 174.684 103.112 174.792 88.28C174.8 88.28 165.728 88.04 158.132 88.356Z" fill="#e8623a"/>
<path id="Vector_140" opacity="0.2" d="M158.132 88.356C158.132 88.356 157.392 101.22 158.66 120.528H162.716C162.716 120.528 164.032 100.58 166.448 94.884C166.448 94.884 170.684 115.144 172.692 120.052H175.328C175.328 120.052 174.684 103.112 174.792 88.28C174.8 88.28 165.728 88.04 158.132 88.356Z" fill="black"/>
<path id="Vector_141" d="M157.916 120.028H163.512V120.96L158.344 121.636L157.916 120.028Z" fill="#e8623a"/>
<path id="Vector_142" d="M171.524 118.776H175.856V119.988L171.852 120.864L171.524 118.776Z" fill="#e8623a"/>
<path id="Vector_143" d="M168.3 90.0241L172.9 89.8721V94.0561L170.6 95.5521L167.944 94.0561L168.3 90.0241Z" fill="#e8623a"/>
<path id="Vector_144" d="M159.82 90.024H164.312V92.712L162.064 94.8201L159.82 93.5521V90.024Z" fill="#e8623a"/>
<path id="Vector_145" d="M162.716 84.7361C162.741 84.3004 162.741 83.8637 162.716 83.4281C162.672 82.8481 165.596 79.6681 166.072 79.8281C166.548 79.9881 167.576 82.0321 167.272 82.7161C166.968 83.4001 164.66 85.4561 164.108 85.6121C163.556 85.7681 162.716 84.7361 162.716 84.7361Z" fill="#3f8d99"/>
<path id="Vector_146" d="M152.4 80.524C152.4 80.524 153.692 87.0841 155.12 88.4081C156.548 89.7321 163.04 83.0081 163.04 83.0081L164.32 84.372C164.32 84.372 157.92 92.82 154.484 91.38C151.048 89.94 148.316 82.276 148.316 82.276L152.4 80.524Z" fill="#3f8d99"/>
<path id="Vector_147" d="M151.728 77.832L153.912 82.908L149.028 86.248L145.652 82.908L151.728 77.832Z" fill="#e8623a"/>
<path id="Vector_148" opacity="0.2" d="M153.912 82.908L151.02 84.888L149.028 86.248L147.392 84.628L145.652 82.908L151.728 77.832L153.912 82.908Z" fill="var(--illo-paper, #f2ebe1)"/>
<path id="Vector_149" opacity="0.2" d="M151.02 84.888L149.02 86.248L147.384 84.628C148.928 82.44 150.676 80.38 150.676 80.38C151.137 81.8361 151.254 83.3789 151.02 84.888Z" fill="black"/>
<path id="Vector_150" d="M128.088 79.4681H108.128C108.05 79.4644 107.975 79.4407 107.909 79.3994C107.843 79.3581 107.789 79.3004 107.752 79.2321C107.676 79.0441 107.776 78.8001 108.052 78.4841C110.268 75.9681 113.604 74.7321 117.98 74.8201C122.54 74.9121 127.148 77.4841 128.036 78.8001C128.107 78.8817 128.157 78.9791 128.183 79.0841C128.209 79.1892 128.209 79.2989 128.184 79.4041C128.177 79.4233 128.163 79.4398 128.146 79.4513C128.129 79.4628 128.109 79.4686 128.088 79.4681ZM108.204 78.6161C107.904 78.9561 107.92 79.1081 107.94 79.1561C107.96 79.2041 108.132 79.2681 108.136 79.2681H128C127.99 79.1381 127.941 79.0142 127.86 78.9121C126.992 77.6281 122.464 75.1081 117.968 75.0201C113.596 74.9321 110.4 76.1121 108.196 78.6201L108.204 78.6161Z" fill="var(--illo-ink, #12262b)"/>
<path id="Vector_151" d="M118 75.0201C117.974 75.0201 117.948 75.0095 117.929 74.9908C117.911 74.972 117.9 74.9466 117.9 74.9201V72.8441C117.9 72.828 117.904 72.8122 117.911 72.7982C117.919 72.7842 117.93 72.7724 117.944 72.7641C117.964 72.7641 120.072 71.3081 119.636 70.0001C119.392 69.2721 118.336 68.9761 117.5 69.1201C116.664 69.2641 116.224 69.7441 116.24 70.4081C116.24 70.435 116.23 70.4608 116.211 70.4802C116.192 70.4996 116.167 70.511 116.14 70.5121C116.114 70.5111 116.089 70.5002 116.07 70.4817C116.052 70.4631 116.041 70.4383 116.04 70.4121C116.02 69.6521 116.568 69.0801 117.468 68.9241C118.368 68.7681 119.544 69.0961 119.824 69.9401C120.276 71.2921 118.42 72.6721 118.1 72.9001V74.9201C118.1 74.9466 118.09 74.972 118.071 74.9908C118.052 75.0095 118.027 75.0201 118 75.0201Z" fill="var(--illo-ink, #12262b)"/>
<path id="Vector_152" d="M114.772 74.948C114.772 74.948 118.96 78.268 121.536 74.948C121.536 74.948 124.736 75.904 125.936 76.768L127.136 77.636C127.136 77.636 122.66 81.512 122.76 82.62C122.86 83.728 123.26 91.956 123.26 91.956H110.184C110.184 91.956 111.452 82.28 111.384 81.816C111.316 81.352 108.22 77.512 108.22 77.512C108.22 77.512 112.952 74.628 114.772 74.948Z" fill="#e8623a"/>
<path id="Vector_153" opacity="0.2" d="M117.248 77.144C118.089 77.2124 118.935 77.2124 119.776 77.144V78.124H117.248V77.144Z" fill="black"/>
<path id="Vector_154" d="M132.172 76.8001C132.172 76.8001 127.748 81.8121 125.852 82.2321C123.956 82.6521 121.736 73.6001 121.736 73.6001L119.944 74.1361C119.944 74.1361 121.208 84.6601 124.9 85.1441C128.592 85.6281 134.8 80.4001 134.8 80.4001L132.172 76.8001Z" fill="#3f8d99"/>
<path id="Vector_155" d="M139.62 159.416L137.484 159.452C135.312 149.256 133.78 136.652 132.824 127.124C132.676 125.632 132.536 124.224 132.424 122.904C132.368 122.276 132.312 121.676 132.26 121.096C132.004 118.236 131.828 115.968 131.724 114.564C131.648 113.544 131.608 112.964 131.608 112.964H139.32L139.248 114.928L139.008 121.416L138.984 122.16L138.824 126.444L138.552 133.74C141.2 144.024 139.62 159.416 139.62 159.416Z" fill="#3f8d99"/>
<path id="Vector_156" d="M156.928 158.872L154.828 159.272C150.62 148.752 146.668 135.272 144.096 125.876C143.696 124.416 143.332 123.052 143.004 121.816C143.004 121.752 142.976 121.692 142.956 121.632C142.308 119.18 141.812 117.232 141.5 115.98L141.128 114.476L148.728 113.164L149.156 116.364L149.792 121.064L149.916 121.984L150.348 125.184L151.504 133.772C155.868 143.432 156.928 158.872 156.928 158.872Z" fill="#3f8d99"/>
<path id="Vector_157" opacity="0.2" d="M149.8 121.056L143 121.812C143 121.748 142.972 121.688 142.952 121.628C142.304 119.176 141.808 117.228 141.496 115.976L149.16 116.356L149.8 121.056Z" fill="black"/>
<path id="Vector_158" opacity="0.2" d="M139.248 114.944L139.008 121.432L138.984 122.176L132.42 122.904C132.364 122.276 132.308 121.676 132.256 121.096C132 118.236 131.824 115.968 131.72 114.564L139.248 114.944Z" fill="black"/>
<path id="Vector_159" d="M133.312 166.504C133.711 166.182 134.165 165.935 134.652 165.776C134.652 165.776 136.104 164.332 136.804 159.992L138.708 159.496C139.031 159.418 139.371 159.441 139.68 159.562C139.99 159.682 140.255 159.896 140.44 160.172C140.492 160.248 140.532 160.332 140.56 160.42C140.656 160.886 140.724 161.358 140.764 161.832C140.871 163.419 140.883 165.011 140.8 166.6H140.456L140.32 163.608C140.272 162.592 139.492 163.784 139.268 164.876C139.044 165.968 138.576 167.136 136.348 167.192C133.736 167.24 132.656 167.14 133.312 166.504Z" fill="var(--illo-ink, #12262b)"/>
<path id="Vector_160" d="M140.504 160.208C140.628 159.192 140.668 157.408 140.668 157.408L136.44 157.876C136.44 157.876 136.952 159.876 136.528 161.396C138.66 160.852 140.504 160.208 140.504 160.208Z" fill="var(--illo-ink, #12262b)"/>
<path id="Vector_161" d="M150.52 166.504C150.917 166.182 151.37 165.935 151.856 165.776C151.856 165.776 153.312 164.332 154.012 159.992L155.912 159.496C156.235 159.414 156.576 159.436 156.886 159.557C157.197 159.678 157.462 159.893 157.644 160.172C157.697 160.248 157.739 160.332 157.768 160.42C157.864 160.886 157.931 161.358 157.968 161.832C158.16 163.304 157.996 166.6 157.996 166.6H157.652L157.516 163.608C157.464 162.592 156.688 163.784 156.464 164.876C156.24 165.968 155.768 167.136 153.54 167.192C150.944 167.24 149.864 167.14 150.52 166.504Z" fill="var(--illo-ink, #12262b)"/>
<path id="Vector_162" d="M157.712 160.208C157.836 159.192 157.876 157.408 157.876 157.408L153.648 157.876C153.648 157.876 154.16 159.876 153.736 161.396C155.868 160.852 157.712 160.208 157.712 160.208Z" fill="var(--illo-ink, #12262b)"/>
<path id="Vector_163" d="M150.532 118.96L142.488 120L142.176 120.04L140.524 113.976L140.088 120.472L131.468 120C127.628 97.4601 134.192 92.1361 134.192 92.1361L145.888 94.4881C151.184 103.492 149.924 113.956 149.924 113.956L150.532 118.96Z" fill="var(--illo-ink, #12262b)"/>
<path id="Vector_164" d="M138.584 65.7641C138.036 65.7641 137.604 65.0161 137.604 64.0601C137.604 63.1041 138.036 62.3561 138.584 62.3561C139.132 62.3561 139.56 63.1041 139.56 64.0601C139.56 65.0161 139.128 65.7641 138.584 65.7641ZM138.584 62.5641C138.16 62.5641 137.804 63.2521 137.804 64.0681C137.804 64.8841 138.16 65.5721 138.584 65.5721C139.008 65.5721 139.36 64.8841 139.36 64.0681C139.36 63.2521 139.004 62.5561 138.584 62.5561V62.5641Z" fill="var(--illo-ink, #12262b)"/>
<path id="Vector_165" d="M145.236 69.4281C145.204 69.4569 145.169 69.4824 145.132 69.5041C144.646 69.8757 144.091 70.1475 143.5 70.3041C141.772 70.7041 140.592 70.4641 139.82 69.6841C138.744 68.5121 138.472 66.4321 138.62 63.9281C138.647 62.9306 138.832 61.9437 139.168 61.0041C139.168 61.0041 139.168 60.9641 139.168 60.9561C139.168 60.9481 139.196 60.8841 139.212 60.8521C139.423 60.3218 139.763 59.8527 140.202 59.488C140.641 59.1232 141.164 58.8743 141.724 58.7641C142.21 58.6557 142.706 58.6007 143.204 58.6001C148.1 58.5481 148.98 66.6401 145.236 69.4281Z" fill="#3f8d99"/>
<path id="Vector_166" opacity="0.2" d="M145.132 69.5041C144.641 69.8526 144.087 70.1013 143.5 70.2361C141.772 70.6361 140.592 70.3401 139.82 69.5481C140.854 69.8041 141.943 69.7141 142.92 69.2921C143.62 68.9721 144.4 69.1361 145.132 69.5041Z" fill="black"/>
<path id="Vector_167" d="M145.628 73.916C145.928 75.308 144.128 75.876 144.128 75.876C141.18 74.616 140.636 73.048 140.636 73.048C143.092 71.768 142.38 68.14 142.38 68.14L142.88 68.384L146.392 69.072C146.392 69.072 145.416 70.94 145.288 71.368C144.624 73.6 145.628 73.916 145.628 73.916Z" fill="#3f8d99"/>
<path id="Vector_168" d="M139.168 60.9721C139.168 60.9721 138.896 64.3961 142.144 65.8681C142.144 65.8681 143.536 69.4281 145.592 69.4681C148.392 69.5361 150.856 65.5561 149.884 61.5001C148.628 56.2521 140.66 55.8241 139.168 60.9721Z" fill="var(--illo-ink, #12262b)"/>
<path id="Vector_169" d="M140.5 64.8841C140.5 64.3481 140.932 63.4521 141.76 63.5721C142.588 63.6921 143.096 65.8201 140.984 66.2921C140.68 66.3601 140.496 66.0001 140.5 64.8841Z" fill="#3f8d99"/>
<path id="Vector_170" d="M145.132 57.3281C145.132 57.3281 141.864 56.5041 140.056 57.8161C137.948 59.3521 137.148 60.9401 139.656 63.4161C139.656 63.4161 145.144 61.6361 146.968 62.0121C148.035 62.228 149.083 62.5317 150.1 62.9201C150.472 59.2841 146.956 56.5881 145.132 57.3281Z" fill="var(--illo-ink, #12262b)"/>
<path id="Vector_171" d="M140.984 63.908H137.704C137.677 63.908 137.652 63.8975 137.633 63.8787C137.615 63.86 137.604 63.8345 137.604 63.808C137.604 63.7815 137.615 63.756 137.633 63.7373C137.652 63.7185 137.677 63.708 137.704 63.708H140.984C141.011 63.708 141.036 63.7185 141.055 63.7373C141.073 63.756 141.084 63.7815 141.084 63.808C141.084 63.8345 141.073 63.86 141.055 63.8787C141.036 63.8975 141.011 63.908 140.984 63.908Z" fill="var(--illo-ink, #12262b)"/>
<path id="Vector_172" d="M147.552 59.3641C147.552 59.3641 150.932 56.5641 153.78 58.5961C157.296 61.1241 153.38 70.8521 153.148 73.2761C152.916 75.7001 154.096 76.8041 154.096 76.8041C154.096 76.8041 151.48 76.8601 150.532 72.7161C149.584 68.5721 152.532 61.6401 148.76 62.4561L147.552 59.3641Z" fill="var(--illo-ink, #12262b)"/>
<path id="Vector_173" opacity="0.2" d="M142.488 120L142.176 120.04L140.524 113.976C140.524 113.976 144.072 107.916 142.96 104.776C143.12 104.972 146.94 110.64 142.488 120Z" fill="black"/>
<path id="Vector_174" d="M135.848 73.6001C135.848 73.6001 139.748 72.2881 145.628 73.8881C151.508 75.4881 151.728 77.8521 151.728 77.8521C151.728 77.8521 148 85.8001 147.412 94.8201L132.088 94.2801C132.088 94.2801 130.26 81.5481 135.848 73.6001Z" fill="#e8623a"/>
<path id="Vector_175" opacity="0.2" d="M151.728 77.8321C151.728 77.8321 148 85.8001 147.412 94.8201L132.092 94.2801C131.91 92.8204 131.815 91.3511 131.808 89.8801C131.778 87.7161 131.921 85.5533 132.236 83.4121C132.748 80.0721 133.8 76.5081 135.836 73.5881C135.836 73.5881 139.736 72.2761 145.616 73.8761C151.496 75.4761 151.728 77.8321 151.728 77.8321Z" fill="var(--illo-paper, #f2ebe1)"/>
<path id="Vector_176" opacity="0.2" d="M135.892 80.4C135.892 80.4 134.996 87.632 131.808 89.892C131.778 87.7281 131.921 85.5652 132.236 83.424L135.892 80.4Z" fill="black"/>
<path id="Vector_177" d="M135.848 73.6001C131.296 75.4681 127.908 79.1681 127.908 79.1681L131.6 83.6761C131.6 83.6761 133.44 83.2761 134.548 82.2921C137.824 79.3401 135.848 73.6001 135.848 73.6001Z" fill="#e8623a"/>
<path id="Vector_178" opacity="0.2" d="M135.848 73.6001C131.296 75.4681 127.908 79.1681 127.908 79.1681L131.6 83.6761C131.6 83.6761 133.44 83.2761 134.548 82.2921C137.824 79.3401 135.848 73.6001 135.848 73.6001Z" fill="var(--illo-paper, #f2ebe1)"/>
<path id="Vector_179" d="M121.852 74.0281C121.825 73.5912 121.825 73.153 121.852 72.7161C121.896 72.1361 118.968 68.9561 118.492 69.1161C118.016 69.2761 116.988 71.3201 117.292 72.0041C117.596 72.6881 119.904 74.7441 120.46 74.9001C121.016 75.0561 121.852 74.0281 121.852 74.0281Z" fill="#3f8d99"/>
</g>
</g>
</g>
</g>
</g>
</g>
</g>
</svg>
