<svg xmlns="http://www.w3.org/2000/svg" viewBox="237 426 877 1014" role="img" aria-label="Clutter Sale">
  <path fill="#012830" d="M 934.349 434.329 C 978.614 430.353 1002.24 470.112 990.202 509.913 C 981.879 537.435 963.878 556.891 939.089 570.579 C 950.281 602.614 957.562 638.373 967.962 670.827 C 972.793 687.692 976.051 695.593 967.724 711.507 C 954.138 737.47 940.977 763.393 926.734 788.791 C 936.248 792.887 946.788 798.731 956.081 803.616 C 954.604 740.308 996.885 692.74 1058.02 680.578 C 1071.07 677.221 1082.9 680.378 1082.76 696.298 C 1082.23 758.517 1046.74 802.43 989.229 821.284 C 1039.89 845.686 1034.03 842.463 1009.91 890.345 C 1015.97 891.518 1021.21 893.074 1024.87 898.586 C 1036.25 915.73 1046.45 933.777 1057.14 951.391 C 1067.42 968.003 1077.53 984.712 1087.5 1001.52 C 1113.3 1044.46 1116.06 1045.99 1067.76 1064.27 L 1018.03 1083.09 L 1017.98 1218 C 1018.01 1240.45 1018.62 1263.81 1017.27 1286.26 C 1017.03 1290.4 1015.33 1293.72 1012.64 1296.83 C 1010.67 1299.11 1008.5 1301.24 1005.65 1302.45 C 981.442 1312.78 956.584 1322.09 932.165 1331.9 L 778.655 1392.98 C 761.332 1399.89 685.806 1431.96 674.477 1432.32 C 667.911 1432.53 380.85 1317.55 354.094 1306.04 C 349.114 1303.9 342.145 1300.99 338.267 1297.19 C 330.759 1289.82 333.768 1238.83 333.838 1225.75 L 333.654 1083.7 C 315.867 1075.67 257.427 1058.57 248.221 1046.89 C 246.513 1044.72 244.222 1041.13 244.676 1038.22 C 245.357 1033.84 247.476 1029.15 249.506 1025.25 C 256.773 1011.3 324.436 898.319 329.966 894.439 C 336.489 889.861 344.317 891.223 351.664 892.194 C 347.392 882.517 327.54 840.903 333.201 834.959 C 355.245 816.051 387.334 803.236 412.581 789.169 C 449.267 768.73 450.417 763.468 486.273 784.34 C 476.673 766.79 466.627 749.488 456.145 732.45 C 435.338 737.224 420.482 730.522 406.858 714.728 C 400.82 718.5 393.966 722.938 387.739 726.234 C 372.323 734.394 342.846 760.054 334.86 729.652 C 322.42 682.296 310.427 635.775 297.677 588.592 C 294.428 576.568 297.138 569.647 307.537 562.903 C 339.158 543.447 371.036 524.121 403.417 505.987 C 416.394 499.272 421.865 500.847 432.136 511.327 C 467.783 547.7 507.118 583.646 540.336 621.942 C 553.312 636.903 498.098 662.482 486.442 669.348 C 493.967 687.542 491.675 705.609 477.909 719.932 C 492.749 745.387 507.746 770.75 522.9 796.018 C 533.105 780.273 552.039 741.615 561.712 723.115 L 625.906 601.837 C 629.198 595.535 653.636 545.847 657.674 542.544 C 671.435 531.289 742.609 509.908 760.448 503.45 C 787.042 493.823 807.117 485.546 833.546 479.354 C 839.115 478.049 853.911 485.032 858.95 487.155 C 875.081 460.288 902.859 438.498 934.349 434.329 z" />
  <path fill="#f7f7f6" d="M 831.413 503.955 C 836.221 503.406 842.758 507.486 847.217 509.79 C 843.62 518.481 841.831 525.429 840.372 534.618 C 837.836 534.656 835.303 534.773 832.774 534.966 C 805.444 537.118 787.469 559.965 790.548 586.789 C 795.328 628.426 847.402 645.601 874.091 611.511 C 881.916 601.629 885.396 588.994 883.732 576.499 C 881.789 561.241 874.816 552.443 863.19 543.309 C 865.04 534.805 867.264 527.761 869.843 519.463 C 881.507 524.357 893.269 529.14 904.614 534.727 C 917.668 587.126 934.05 641.368 948.604 693.615 C 917.685 757.43 881.237 820.484 849.117 883.896 C 839.885 902.121 829.46 919.666 820.623 938.109 C 817.144 933.635 813.592 928.622 810.197 924.031 C 788.841 895.055 789.111 891.196 754.585 905.867 C 725.288 918.317 694.951 929.761 665.696 942.597 C 657.663 929.773 642.442 915.249 632.872 902.79 C 617.967 883.386 608.292 884.151 591.206 898.563 C 585.263 881.286 581.612 862.795 575.486 845.496 C 569.197 827.739 558.696 820.821 543.223 812.09 C 560.879 776.651 580.632 740.501 599.298 705.467 C 625.237 656.785 650.542 606.43 677.025 558.17 C 726.961 541.094 782.572 522.599 831.413 503.955 z" />
  <path fill="#db5923" d="M 778.747 644.327 C 786.95 647.283 805.663 657.768 813.572 662.119 C 809.534 670.422 805.414 678.686 801.214 686.909 C 810.037 692.782 820.035 705.271 823.975 715.114 C 832.283 735.867 828.37 750.497 820.699 769.894 C 812.905 766.565 788.08 754.866 781.566 750.552 C 781.823 748.261 783.007 741.242 782.732 739.547 C 777.177 705.292 734.513 694.696 724.573 734.616 C 734.421 770.454 800.354 789.426 784.173 842.818 C 771.29 885.328 735.864 898.578 695.304 887.361 C 693.052 892.459 686.187 909.028 682.731 912.293 L 680.663 911.842 C 669.982 906.293 659.39 900.575 648.891 894.689 C 652.53 886.402 657.229 877.839 661.465 869.763 C 631.368 845.237 624.802 819.04 640.218 783.151 C 652.738 789.915 666.158 795.559 678.934 802.165 C 677.111 813.404 675.621 818.66 681.361 830.032 C 692.461 852.023 731.799 858.797 739.705 830.875 C 744.921 812.452 718.725 796.279 707.588 784.815 C 700.841 777.869 692.969 770.915 688.125 762.093 C 669.52 733.078 683.091 690.702 712.218 674.103 C 729.197 664.426 747.064 664.801 765.783 669.83 C 769.965 662.543 774.865 652.035 778.747 644.327 z" />
  <path fill="#f7f7f6" d="M 687.842 1064.32 L 728.924 1134.31 C 733.556 1142.3 747.266 1167.91 752.687 1173.36 C 756.539 1174.6 763.498 1177.06 767.453 1175.83 C 843.622 1152.28 917.428 1117.69 993.023 1092.69 C 994.745 1136.42 993.75 1181.13 993.879 1224.97 C 993.904 1233.19 994.846 1274.29 993.665 1280.55 C 986.669 1284.83 970.418 1290.47 961.921 1293.83 L 900.91 1318.06 L 687.153 1402.78 C 685.756 1320.49 687.051 1234.71 687.151 1152.09 C 685.716 1121.67 688.513 1093.44 687.842 1064.32 z" />
  <path fill="#57898e" d="M 687.842 1064.32 L 728.924 1134.31 C 733.556 1142.3 747.266 1167.91 752.687 1173.36 C 756.539 1174.6 763.498 1177.06 767.453 1175.83 C 843.622 1152.28 917.428 1117.69 993.023 1092.69 C 994.745 1136.42 993.75 1181.13 993.879 1224.97 C 993.904 1233.19 994.846 1274.29 993.665 1280.55 C 992.414 1271.9 992.927 1234.34 992.962 1223.08 L 993.163 1114.71 C 967.988 1123.16 940.381 1134.39 915.388 1143.91 C 880.97 1157.14 846.394 1169.97 811.668 1182.38 C 792.288 1189.5 773.255 1197.79 753.633 1204.13 C 746.864 1206.32 741.554 1202.38 738.126 1196.83 C 731.695 1186.41 726.467 1175.04 721.028 1164.05 C 709.515 1141.1 698.485 1117.91 687.944 1094.49 C 686.918 1112.26 688.9 1135.08 687.151 1152.09 C 685.716 1121.67 688.513 1093.44 687.842 1064.32 z" />
  <path fill="#012830" d="M 950.919 1248.03 C 967.287 1247.35 970.132 1263.13 959.212 1270.43 C 951.529 1275.57 935.401 1280.59 926.16 1284.15 C 906.478 1291.71 886.834 1299.37 867.229 1307.12 C 851.489 1309.17 846.548 1291.56 859.192 1284.84 C 869.161 1279.54 881.208 1275.23 891.826 1271.08 L 950.919 1248.03 z" />
  <path fill="#012830" d="M 951.873 1205.04 C 967.373 1204.44 970.805 1221.95 958.769 1228.14 C 949.374 1232.96 937.83 1236.81 927.819 1240.72 C 907.293 1248.86 886.704 1256.83 866.053 1264.64 C 860.693 1264.54 855.941 1263.1 853.444 1257.97 C 852.08 1255.15 851.988 1251.88 853.192 1248.98 C 856.93 1239.86 881.84 1232.4 891.233 1228.69 C 911.382 1220.64 931.596 1212.76 951.873 1205.04 z" />
  <path fill="#57898e" d="M 661.675 1065.67 C 663.919 1071.51 662.182 1372.05 662.307 1402.72 C 633.427 1390.57 602.296 1378.98 572.988 1367.16 L 385.221 1292.06 C 375.95 1288.55 366.77 1285.29 357.935 1280.78 C 358.443 1219.6 356.483 1153.04 358.622 1092.55 C 432.197 1119.92 505.372 1148.32 579.155 1175.02 C 591.717 1179.56 599.517 1171.49 605.731 1162.04 C 626.072 1131.13 642.407 1096.98 661.675 1065.67 z" />
  <path fill="#f7f7f6" d="M 1004.4 915.965 C 1009.39 917.461 1027.01 949.714 1030.99 956.342 L 1077.68 1033.97 C 1036.25 1050.91 989.327 1067.5 947.023 1083.34 L 768.51 1150.7 L 767.273 1150.43 C 760.25 1140.8 745.081 1112.74 738.373 1101.1 C 724.685 1077.34 708.372 1051.72 695.582 1027.84 C 706.027 1023.18 722.58 1017.65 733.832 1013.55 L 806.34 987.36 L 1004.4 915.965 z" />
  <path fill="#f7f7f6" d="M 344.184 916.113 C 352.478 918.228 371.202 925.543 379.853 928.702 L 449.783 954.275 C 517.464 978.707 588.064 1002.81 654.928 1028.61 C 630.654 1068.9 608.21 1110.74 583.224 1150.81 C 574.486 1148.55 553.864 1139.81 544.603 1136.29 L 466.588 1106.94 C 402.917 1082.65 335.354 1059.01 272.597 1033.61 C 281.074 1021.57 289.382 1006.73 297.056 993.973 C 312.571 967.903 328.281 941.949 344.184 916.113 z" />
  <path fill="#db5923" d="M 395.026 538.66 C 401.175 534.934 407.398 531.329 413.688 527.846 C 446.335 560.491 479.714 592.89 511.952 625.818 C 504.765 630.264 497.528 634.626 490.24 638.905 C 461.396 656.953 430.694 673.548 401.228 690.858 C 388.44 699.21 370.446 708.788 356.787 716.825 C 347.349 678.334 335.959 640.512 326.347 602.088 C 324.703 595.518 322.846 589.054 320.881 582.575 C 331.766 576.322 342.612 570 353.417 563.608 C 366.785 556.048 382.443 547.138 395.026 538.66 z" />
  <path fill="#bb3f18" d="M 320.881 582.575 C 331.766 576.322 342.612 570 353.417 563.608 C 365.366 589.148 375.027 624.606 385.852 651.634 C 389.385 660.457 396.094 684.202 401.228 690.858 C 388.44 699.21 370.446 708.788 356.787 716.825 C 347.349 678.334 335.959 640.512 326.347 602.088 C 324.703 595.518 322.846 589.054 320.881 582.575 z" />
  <path fill="#f7f7f6" d="M 395.026 538.66 C 401.175 534.934 407.398 531.329 413.688 527.846 C 446.335 560.491 479.714 592.89 511.952 625.818 C 504.765 630.264 497.528 634.626 490.24 638.905 C 474.921 621.571 457.467 603.962 441.491 587.095 C 426.351 571.111 410.682 553.93 395.026 538.66 z" />
  <path fill="#db5923" d="M 420.56 811.925 C 428.329 812.585 497.443 846.343 509.308 852.534 C 512.194 854.04 522.156 860.81 523.586 864.022 C 531.866 882.622 538.24 911.111 543.597 930.96 C 533.383 937.97 523.254 944.486 513.237 951.83 C 505.574 948.847 497.887 945.924 490.177 943.061 C 456.645 931.974 415.752 916.775 382.748 904.042 C 376.812 886.861 365.975 862.608 358.823 844.868 C 377.824 833.975 400.888 822.448 420.56 811.925 z" />
  <path fill="#db5923" d="M 915.599 809.377 C 923.004 813.28 930.379 817.238 937.725 821.251 C 950.406 827.67 979.851 841.722 989.916 848.827 L 1000.92 854.525 C 993.315 869.445 984.527 884.944 977.563 899.955 L 958.75 906.515 C 935.588 915.372 902.269 928.241 879.167 935.535 C 872.643 938.706 851.489 945.776 842.856 949.363 C 866.457 902.597 891.908 856.565 915.599 809.377 z" />
  <path fill="#bb3f18" d="M 915.599 809.377 C 923.004 813.28 930.379 817.238 937.725 821.251 C 933.645 824.568 879.524 931.639 879.167 935.535 C 872.643 938.706 851.489 945.776 842.856 949.363 C 866.457 902.597 891.908 856.565 915.599 809.377 z" />
  <path fill="#f7f7f6" d="M 989.916 848.827 L 1000.92 854.525 C 993.315 869.445 984.527 884.944 977.563 899.955 L 958.75 906.515 C 963.204 895.846 983.717 859.887 989.916 848.827 z" />
  <path fill="#f7f7f6" d="M 608.885 914.717 C 612.731 916.181 625.375 932.896 629.162 937.341 L 687.437 1004.63 L 673.281 1009.9 C 661.013 1004.61 649.203 1000.28 636.693 995.676 C 605.295 984.87 574.43 972.617 542.997 961.877 C 561.835 947.226 588.716 929.345 608.885 914.717 z" />
  <path fill="#57898e" d="M 775.764 922.986 L 777.346 922.808 C 781.351 924.334 802.862 955.919 806.765 961.379 C 775.793 972.302 744.941 983.558 714.212 995.146 C 709.887 994.375 687.645 966.978 683.611 961.746 C 694.456 956.098 706.75 951.794 718.18 947.105 C 737.435 939.208 756.63 931.168 775.764 922.986 z" />
  <path fill="#f7f7f6" d="M 931.997 459.15 C 980.93 453.015 973.471 510.56 948.433 533.647 C 943.443 538.247 938.523 542.26 933.213 546.509 L 930.091 535.21 C 929.482 533.256 928.854 531.309 928.207 529.368 C 922.375 512.294 898.772 505.069 882.13 496.87 C 894.608 478.863 910.318 464.356 931.997 459.15 z" />
  <path fill="#db5923" d="M 1057.92 704.136 C 1062.2 710.861 1049.6 740.947 1045.47 748.804 C 1031.21 775.92 1009.84 789.921 981.335 798.494 L 980.214 796.498 C 979.86 789.91 982.668 776.696 984.567 770.389 C 994.516 737.332 1025.39 712.955 1057.92 704.136 z" />
  <path fill="#f7f7f6" d="M 831.361 559.961 C 842.375 559.119 837.106 568.24 841.863 575.629 C 846.72 583.173 851.145 580.715 858.305 582.244 C 862.659 591.262 849.975 600.889 842.785 604.014 C 814.68 607.675 802.255 573.935 831.361 559.961 z" />
  <path fill="#f7f7f6" d="M 454.18 793.794 C 462.296 794.69 527.042 827.478 538.974 833.527 C 543.8 835.974 548.637 839.923 552.408 844.028 L 542.5 851.624 C 539.979 851.626 535.532 845.594 533.461 843.524 C 523.021 833.091 461.606 807.513 444.47 799.619 L 454.18 793.794 z" />
  <path fill="#f7f7f6" d="M 557.164 861.767 L 558.164 862.185 C 560.719 867.167 570.053 904.02 571.978 911.216 L 563.074 917.123 L 561.902 916.775 C 559.91 913.014 550.702 878.114 547.888 869.682 C 550.989 866.365 553.575 864.513 557.164 861.767 z" />
  <path fill="#db5923" d="M 463.672 681.892 C 472.782 689.226 460.548 717.962 435.776 708.372 L 427.803 703.509 C 439.863 696.477 451.821 689.271 463.672 681.892 z" />
</svg>
